<?xml version="1.0" encoding="utf-8"?>
<!-- Generator: Adobe Illustrator 16.0.0, SVG Export Plug-In . SVG Version: 6.00 Build 0)  -->
<!DOCTYPE svg PUBLIC "-//W3C//DTD SVG 1.1//EN" "http://www.w3.org/Graphics/SVG/1.1/DTD/svg11.dtd">
<svg version="1.1" id="Layer_1" xmlns="http://www.w3.org/2000/svg" xmlns:xlink="http://www.w3.org/1999/xlink" x="0px" y="0px"
	 width="359.667px" height="96.896px" viewBox="0 0 359.667 96.896" enable-background="new 0 0 359.667 96.896"
	 xml:space="preserve">
<g>
	<path fill="#FFFFFF" d="M32.9,0C14.759,0,0,14.759,0,32.9v63.996h1.917V32.9c0-17.084,13.899-30.983,30.983-30.983
		S63.884,15.816,63.884,32.9v63.996h1.917V32.9C65.801,14.759,51.042,0,32.9,0z"/>
	<path fill="#FFFFFF" d="M250.106,0c-15.429,0-28.404,10.679-31.941,25.032C214.627,10.679,201.652,0,186.223,0
		c-18.142,0-32.901,14.759-32.901,32.9v63.996h1.917V32.9c0-17.084,13.899-30.983,30.984-30.983
		c17.084,0,30.983,13.899,30.983,30.983v63.996h1.916V32.9c0-17.084,13.899-30.983,30.983-30.983
		c17.085,0,30.985,13.899,30.985,30.983v63.996h1.916V32.9C283.007,14.759,268.248,0,250.106,0z"/>
	<path fill="#FFFFFF" d="M357.751,0v63.996c0,17.084-13.899,30.983-30.983,30.983c-17.085,0-30.985-13.899-30.985-30.983V0h-1.916
		v63.996c0,18.141,14.76,32.899,32.901,32.899c18.141,0,32.899-14.759,32.899-32.899V0H357.751z"/>
	<path fill="#FFFFFF" d="M109.562,0c-18.141,0-32.9,14.759-32.9,32.9v63.996h1.917V32.9c0-17.084,13.899-30.983,30.983-30.983
		s30.983,13.899,30.983,30.983V47.97H89.728v1.917h50.817v47.009h1.917V32.9C142.462,14.759,127.703,0,109.562,0z"/>
</g>
</svg>
