<?xml version="1.0" encoding="utf-8"?>
<!-- Generator: Adobe Illustrator 16.0.0, SVG Export Plug-In . SVG Version: 6.00 Build 0)  -->
<!DOCTYPE svg PUBLIC "-//W3C//DTD SVG 1.1//EN" "http://www.w3.org/Graphics/SVG/1.1/DTD/svg11.dtd">
<svg version="1.1" id="Layer_1" xmlns="http://www.w3.org/2000/svg" xmlns:xlink="http://www.w3.org/1999/xlink" x="0px" y="0px"
	 width="100px" height="100px" viewBox="0 0 100 100" enable-background="new 0 0 100 100" xml:space="preserve">
<g>
	<g>
		<circle fill="#77CED8" cx="50" cy="50" r="46.441"/>
		<g>
			<defs>
				<circle id="SVGID_1_" cx="50" cy="50" r="46.441"/>
			</defs>
			<clipPath id="SVGID_2_">
				<use xlink:href="#SVGID_1_"  overflow="visible"/>
			</clipPath>
			<linearGradient id="SVGID_3_" gradientUnits="userSpaceOnUse" x1="100.2441" y1="95.3643" x2="55.6438" y2="58.4096">
				<stop  offset="0" style="stop-color:#FFFFFF"/>
				<stop  offset="0.0718" style="stop-color:#DFDFDF"/>
				<stop  offset="0.2156" style="stop-color:#A5A5A5"/>
				<stop  offset="0.3593" style="stop-color:#727272"/>
				<stop  offset="0.4998" style="stop-color:#494949"/>
				<stop  offset="0.6362" style="stop-color:#292929"/>
				<stop  offset="0.7674" style="stop-color:#121212"/>
				<stop  offset="0.8912" style="stop-color:#050505"/>
				<stop  offset="1" style="stop-color:#000000"/>
			</linearGradient>
			<polygon opacity="0.5" clip-path="url(#SVGID_2_)" fill="url(#SVGID_3_)" points="27.383,77.445 64.709,114.771 103.762,109.002 
				126.676,75.654 106.482,56.248 79.857,29.623 65.787,45.908 46.93,27.965 47.033,37.938 49.486,46.451 47.426,48.98 
				44.838,48.191 43.189,49.105 41.16,45.74 34.076,52.615 33.486,49.105 32.479,52.906 24.295,53.176 39.357,66.404 			"/>
		</g>
	</g>
	<path fill="#FCB128" d="M58.99,47.457c1.559,1.662,3.715,2.17,4.807,1.141l16.094-15.104c1.102-1.029,0.729-3.213-0.834-4.871
		l-1.393-1.486c-1.557-1.66-3.709-2.168-4.809-1.143L56.764,41.096c-1.1,1.033-0.727,3.219,0.834,4.873L58.99,47.457z"/>
	<path fill="#1F334B" d="M51.818,44.904c0.443-1.652,0.646-3.391,0.563-5.189c-0.434-9.344-8.363-16.564-17.707-16.125
		c-1.295,0.059-2.545,0.277-3.744,0.609l12.006,9.719c1.936,1.574,2.201,4.473,0.578,6.477l-5.842,7.221
		c-1.623,2.002-4.516,2.346-6.461,0.773l-12.52-10.137c-0.131,0.99-0.195,2.01-0.143,3.047c0.434,9.342,8.365,16.563,17.707,16.127
		c3.424-0.162,6.561-1.338,9.145-3.213l27.396,21.264c1.973,1.537,4.818,1.174,6.352-0.799l1.369-1.764
		c1.533-1.975,1.176-4.818-0.801-6.354L51.818,44.904z"/>
	<path fill="#FCB128" d="M46.254,57.266c-0.645-0.691-2.027-0.445-3.082,0.543l-12.16,11.414l-3.604,1.564l-2.254,4.377l2.084,2.359
		l4.994-1.844l1.584-3.219l-0.006-0.008L46.1,60.926c1.053-0.988,1.383-2.355,0.736-3.045L46.254,57.266z"/>
	<path opacity="0.5" fill="#FFFFFF" d="M18.717,38.539c0,0-0.859,6.479,2.795,11.178c0,0-2.211-2.855-0.891-9.396L18.717,38.539z"/>
	<path opacity="0.5" fill="#FFFFFF" d="M31.219,24.193c0,0,6.318-1.672,11.441,1.361c0,0-3.111-1.834-9.434,0.303L31.219,24.193z"/>
	<path opacity="0.5" fill="#FFFFFF" d="M77.428,26.961c-1.508-1.338-3.389-1.695-4.396-0.756l-3.26,3.059
		C71.846,27.936,75.188,26.182,77.428,26.961z"/>
	<polygon opacity="0.5" fill="#FFFFFF" points="27.586,70.986 25.367,75.283 26.055,76.064 28.383,71.971 	"/>
</g>
</svg>
