<?xml version="1.0" encoding="utf-8"?>
<!-- Generator: Adobe Illustrator 16.0.0, SVG Export Plug-In . SVG Version: 6.00 Build 0)  -->
<!DOCTYPE svg PUBLIC "-//W3C//DTD SVG 1.1//EN" "http://www.w3.org/Graphics/SVG/1.1/DTD/svg11.dtd">
<svg version="1.1" id="Layer_1" xmlns="http://www.w3.org/2000/svg" xmlns:xlink="http://www.w3.org/1999/xlink" x="0px" y="0px"
	 width="100px" height="100px" viewBox="0 0 100 100" enable-background="new 0 0 100 100" xml:space="preserve">
<g>
	<g>
		<g>
			<circle fill="#77CED8" cx="50" cy="50" r="46.441"/>
			<g>
				<defs>
					<circle id="SVGID_1_" cx="50" cy="50" r="46.441"/>
				</defs>
				<clipPath id="SVGID_2_">
					<use xlink:href="#SVGID_1_"  overflow="visible"/>
				</clipPath>
				<linearGradient id="SVGID_3_" gradientUnits="userSpaceOnUse" x1="100.3164" y1="93.2939" x2="54.9084" y2="55.6702">
					<stop  offset="0" style="stop-color:#FFFFFF"/>
					<stop  offset="0.0718" style="stop-color:#DFDFDF"/>
					<stop  offset="0.2156" style="stop-color:#A5A5A5"/>
					<stop  offset="0.3593" style="stop-color:#727272"/>
					<stop  offset="0.4998" style="stop-color:#494949"/>
					<stop  offset="0.6362" style="stop-color:#292929"/>
					<stop  offset="0.7674" style="stop-color:#121212"/>
					<stop  offset="0.8912" style="stop-color:#050505"/>
					<stop  offset="1" style="stop-color:#000000"/>
				</linearGradient>
				<polygon opacity="0.5" clip-path="url(#SVGID_2_)" fill="url(#SVGID_3_)" points="21.721,70.854 59.047,108.18 102.957,108.316 
					123.047,72.18 104.068,51.885 77.441,25.259 75.025,27.093 67.4,19.593 59.172,28.804 55.047,34.054 50.172,37.054 
					56.172,43.304 55.172,45.804 50.922,41.179 43.84,48.054 34.506,39.22 31.674,52.221 19.297,54.805 29.422,66.555 				"/>
			</g>
		</g>
		<g>
			<path fill="#FFFFFF" d="M49.906,36.634c0,0-0.018,0.559,1.031,0.596l2.744,0.383c0,0,0.803,0.088,1.275,1.083
				c0,0,0.752,1.17,0.42,1.732l-2.168,3.18c0,0-0.473,0.491,0.037,1.153l2.305,2.222c0,0,0.734,0.401,1.207-0.142l2.131-1.677
				c0,0,0.805-0.786,2.064-0.174c0,0,1.346,0.436,1.502,1.328l0.455,3.284c0,0,0,0.789,1.014,0.754h2.885
				c0,0,0.873-0.158,0.926-0.857l0.367-2.971c0,0-0.035-0.858,1.014-1.347c0,0,1.293-0.926,2.238-0.228l2.621,1.94
				c0,0,0.49,0.525,1.381-0.104l1.941-1.941c0,0,0.646-0.716-0.018-1.432l-1.818-2.43c0,0-0.543-0.595,0.018-1.802
				c0,0,0.402-1.449,1.469-1.555l2.986-0.438c0,0,0.928-0.018,0.945-0.978l-0.035-2.711c0,0,0.055-1.03-1.029-1.152l-3.131-0.298
				c0,0-0.943-0.42-1.258-1.311c0,0-0.576-1.364,0.07-2.046l1.807-2.472c0,0,0.506-0.735,0.023-1.286l-2.389-2.295
				c0,0-0.596-0.298-0.986,0.092l-2.824,2.181c0,0-1.014,0.303-1.957-0.344c0,0-1.031-0.559-1.172-0.926
				c0,0-0.455-3.427-0.473-3.601c0,0-0.035-0.752-0.768-0.77l-3.078-0.018c0,0-0.664,0.105-0.732,0.63l-0.561,3.881
				c0,0-0.559,0.768-1.363,0.978c0,0-1.396,0.333-1.871,0.017l-2.551-1.904c0,0-0.699-0.647-1.328-0.069l-2.184,2.168
				c0,0-0.438,0.454-0.02,1.031l2.115,2.794c0,0,0.715,0.789-0.211,2.238c0,0-0.438,1.171-1.836,1.312
				c-1.396,0.139-2.639,0.349-2.639,0.349s-0.752,0.037-0.77,0.822C49.713,34.291,49.906,36.634,49.906,36.634z M59.404,34.808
				c0-3.258,2.641-5.9,5.9-5.9c3.258,0,5.9,2.643,5.9,5.9c0,3.258-2.643,5.899-5.9,5.899C62.045,40.707,59.404,38.066,59.404,34.808
				z"/>
			<path fill="#1F334B" d="M21.484,70.563c0,0,0.283,0.727,1.646,0.197l3.727-1.006c0,0,1.08-0.328,2.229,0.689
				c0,0,1.602,1.09,1.484,1.988l-1.039,5.262c0,0-0.338,0.887,0.674,1.461l4.172,1.584c0,0,1.162,0.111,1.471-0.84l1.814-3.316
				c0,0,0.602-1.445,2.547-1.35c0,0,1.965-0.176,2.652,0.879l2.379,3.963c0,0,0.432,1.008,1.711,0.408l3.695-1.574
				c0,0,1.035-0.684,0.719-1.607l-1.152-4.006c0,0-0.514-1.08,0.561-2.279c0,0,1.152-1.895,2.744-1.516l4.42,1.053
				c0,0,0.916,0.404,1.713-0.891l1.426-3.545c0,0,0.436-1.273-0.807-1.828l-3.658-2.119c0,0-1.02-0.467-0.963-2.318
				c0,0-0.277-2.08,1.031-2.797l3.592-2.193c0,0,1.18-0.529,0.676-1.77l-1.527-3.455c0,0-0.496-1.351-1.951-0.915l-4.172,1.329
				c0,0-1.439-0.021-2.33-0.991c0,0-1.484-1.432-1.029-2.658l0.963-4.159c0,0,0.246-1.217-0.674-1.66l-4.314-1.636
				c0,0-0.928-0.057-1.215,0.658l-2.426,4.338c0,0-1.133,0.945-2.697,0.632c0,0-1.627-0.154-2.006-0.547
				c0,0-2.455-4.143-2.574-4.356c0,0-0.455-0.944-1.406-0.565l-3.951,1.661c0,0-0.795,0.495-0.596,1.208l1.404,5.278
				c0,0-0.299,1.29-1.213,1.999c0,0-1.609,1.189-2.387,1.045l-4.313-1.047c0,0-1.248-0.447-1.74,0.637l-1.615,3.973
				c0,0-0.311,0.822,0.543,1.332l4.238,2.426c0,0,1.35,0.619,0.953,2.984c0,0,0.08,1.738-1.635,2.682s-3.191,1.893-3.191,1.893
				s-0.945,0.455-0.537,1.473S21.484,70.563,21.484,70.563z M32.66,63.029c-1.783-4.174,0.158-9.006,4.334-10.785
				c4.174-1.786,9.004,0.158,10.785,4.334c1.783,4.176-0.158,9.004-4.334,10.787S34.439,67.205,32.66,63.029z"/>
		</g>
	</g>
	<path fill="#77CED8" d="M40.091,47.044c0,0-13.897-0.347-12.682,15.634C27.409,62.678,27.583,49.998,40.091,47.044z"/>
	<path fill="#77CED8" d="M41.725,73.545c0,0,13.859-1.09,11-16.861C52.725,56.684,53.861,69.314,41.725,73.545z"/>
	<path opacity="0.5" d="M66.898,25.682c0,0-9.722-2.271-11.198,9.144C55.7,34.825,57.672,25.934,66.898,25.682z"/>
	<path opacity="0.5" d="M63.02,43.897c0,0,9.56,2.876,11.749-8.424C74.769,35.474,72.242,44.225,63.02,43.897z"/>
</g>
</svg>
