<?xml version="1.0" encoding="utf-8"?>
<!-- Generator: Adobe Illustrator 16.0.0, SVG Export Plug-In . SVG Version: 6.00 Build 0)  -->
<!DOCTYPE svg PUBLIC "-//W3C//DTD SVG 1.1//EN" "http://www.w3.org/Graphics/SVG/1.1/DTD/svg11.dtd">
<svg version="1.1" id="Layer_1" xmlns="http://www.w3.org/2000/svg" xmlns:xlink="http://www.w3.org/1999/xlink" x="0px" y="0px"
	 width="100px" height="100px" viewBox="0 0 100 100" enable-background="new 0 0 100 100" xml:space="preserve">
<g>
	<g>
		<circle fill="#77CED8" cx="49.494" cy="50.001" r="46.441"/>
		<g>
			<defs>
				<circle id="SVGID_1_" cx="49.494" cy="50.001" r="46.441"/>
			</defs>
			<clipPath id="SVGID_2_">
				<use xlink:href="#SVGID_1_"  overflow="visible"/>
			</clipPath>
			<linearGradient id="SVGID_3_" gradientUnits="userSpaceOnUse" x1="98.8916" y1="92.3643" x2="48.4019" y2="50.5299">
				<stop  offset="0" style="stop-color:#FFFFFF"/>
				<stop  offset="0.0718" style="stop-color:#DFDFDF"/>
				<stop  offset="0.2156" style="stop-color:#A5A5A5"/>
				<stop  offset="0.3593" style="stop-color:#727272"/>
				<stop  offset="0.4998" style="stop-color:#494949"/>
				<stop  offset="0.6362" style="stop-color:#292929"/>
				<stop  offset="0.7674" style="stop-color:#121212"/>
				<stop  offset="0.8912" style="stop-color:#050505"/>
				<stop  offset="1" style="stop-color:#000000"/>
			</linearGradient>
			<polygon opacity="0.5" clip-path="url(#SVGID_2_)" fill="url(#SVGID_3_)" points="23.723,69.358 64.855,106.206 102.449,108.315 
				123.873,78.353 76.982,32.167 68.041,30.353 55.207,19.853 48.373,18.353 42.041,24.519 39.541,30.185 29.707,30.185 
				23.207,32.185 24.041,42.853 29.707,50.185 22.373,59.519 22.207,61.853 22.707,65.519 23.207,65.685 			"/>
		</g>
	</g>
	<g>
		<path fill="#FCB128" d="M56.193,50.003c0,3.506-2.842,6.352-6.354,6.352c-3.508,0-6.352-2.846-6.352-6.352
			c0-3.512,2.844-6.354,6.352-6.354C53.352,43.649,56.193,46.491,56.193,50.003z"/>
		<path fill="#1F334B" d="M68.631,71.552c-7.127,0-17.107-3.814-26.695-10.205c-7.133-4.752-13.127-10.328-16.875-15.697
			c-3.977-5.703-4.986-10.611-2.846-13.824c1.471-2.209,4.283-3.375,8.137-3.375c7.131,0,17.111,3.816,26.703,10.207
			c7.131,4.754,13.123,10.326,16.869,15.695c3.979,5.703,4.99,10.613,2.848,13.826C75.301,70.384,72.486,71.552,68.631,71.552z
			 M30.352,30.999c-2.064,0-4.785,0.389-6.018,2.24c-1.5,2.246-0.471,6.238,2.82,10.951c3.566,5.115,9.318,10.455,16.193,15.037
			c9.049,6.029,18.736,9.775,25.283,9.775c2.066,0,4.787-0.389,6.018-2.236c1.5-2.248,0.473-6.24-2.816-10.953
			c-3.57-5.115-9.318-10.455-16.191-15.037C46.588,34.747,36.896,30.999,30.352,30.999z"/>
		<path fill="#1F334B" d="M30.324,71.056c-4.129,0-7.094-1.24-8.572-3.588c-2.057-3.268-0.918-8.146,3.207-13.748
			c3.885-5.27,10.016-10.689,17.271-15.258c9.465-5.959,19.348-9.52,26.43-9.52c4.129,0,7.094,1.242,8.574,3.592
			c2.057,3.27,0.918,8.148-3.207,13.744c-3.887,5.273-10.018,10.691-17.27,15.258C47.289,67.499,37.408,71.056,30.324,71.056z
			 M68.66,31.493c-6.525,0-16.133,3.496-25.072,9.127c-6.992,4.402-12.877,9.594-16.576,14.613c-3.412,4.627-4.541,8.59-3.1,10.877
			c1.244,1.98,4.174,2.396,6.412,2.396c6.525,0,16.135-3.496,25.076-9.127c6.988-4.4,12.875-9.59,16.576-14.609
			c3.408-4.629,4.539-8.594,3.098-10.877C73.826,31.911,70.898,31.493,68.66,31.493z"/>
		<path fill="#1F334B" d="M49.492,82.78c-7.643,0-13.635-14.4-13.635-32.781c0-18.383,5.992-32.779,13.635-32.779
			c7.645,0,13.633,14.396,13.633,32.779C63.125,68.38,57.137,82.78,49.492,82.78z M49.492,19.769
			c-5.352,0-11.082,12.146-11.082,30.23c0,18.086,5.73,30.234,11.082,30.234c5.354,0,11.084-12.148,11.084-30.234
			C60.576,31.915,54.846,19.769,49.492,19.769z"/>
		<path opacity="0.5" fill="#FFFFFF" d="M51.818,44.169c-0.613-0.205-1.27-0.32-1.953-0.32c-3.402,0-6.16,2.758-6.16,6.164
			c0,1.902,0.863,3.604,2.219,4.734C45.08,46.944,49.367,44.771,51.818,44.169z"/>
	</g>
</g>
</svg>
