<?xml version="1.0" encoding="utf-8"?>
<!-- Generator: Adobe Illustrator 16.0.0, SVG Export Plug-In . SVG Version: 6.00 Build 0)  -->
<!DOCTYPE svg PUBLIC "-//W3C//DTD SVG 1.1//EN" "http://www.w3.org/Graphics/SVG/1.1/DTD/svg11.dtd">
<svg version="1.1" xmlns="http://www.w3.org/2000/svg" xmlns:xlink="http://www.w3.org/1999/xlink" x="0px" y="0px" width="100px"
	 height="100px" viewBox="0 0 100 100" enable-background="new 0 0 100 100" xml:space="preserve">
<g id="Layer_1" opacity="0">
	<rect opacity="0" width="100" height="100"/>
</g>
<g id="Layer_2">
	<g>
		<g>
			<path fill="#3379BC" stroke="#FFFFFF" stroke-width="2" stroke-miterlimit="10" d="M77.045,42.012
				c0-10.304-8.354-18.656-18.658-18.656c-6.686,0-12.55,3.521-15.844,8.81c-1.68-0.713-3.524-1.108-5.463-1.108
				c-7.262,0-13.229,5.534-13.918,12.613c-0.023,0-0.045-0.001-0.068-0.001c-7.151,0-12.949,5.797-12.949,12.95
				c0,7.15,5.797,12.949,12.949,12.949l0,0h45.631V57.543C73.738,54.199,77.045,48.492,77.045,42.012z"/>
			<path fill="#3379BC" stroke="#FFFFFF" stroke-width="2" stroke-miterlimit="10" d="M80.451,54.836
				c-0.116,0-0.232,0.004-0.35,0.008c0.229-0.898,0.35-1.84,0.35-2.811c0-6.287-5.096-11.382-11.383-11.382
				c-2.386,0-4.599,0.734-6.428,1.988c-1.853-5.392-6.965-9.269-12.985-9.269c-7.28,0-13.232,5.666-13.697,12.827
				c-0.012,0-0.022,0-0.034,0c-7.583,0-13.73,6.148-13.73,13.73c0,7.414,5.878,13.453,13.229,13.717v0.014h44.525v-0.014
				c0.168,0.008,0.336,0.014,0.504,0.014c5.198,0,9.412-4.213,9.412-9.412C89.863,59.049,85.649,54.836,80.451,54.836z"/>
		</g>
		<g>
			<path fill="#3379BC" d="M43.176,77.535c-1.103,0-2-0.897-2-2V65.93h-4.732c-0.981,0-1.321-0.58-1.422-0.83
				c-0.101-0.249-0.259-0.903,0.446-1.584l15.819-15.321c0.379-0.367,0.881-0.569,1.414-0.569s1.035,0.202,1.414,0.568
				l15.819,15.322c0.705,0.681,0.547,1.335,0.446,1.584c-0.102,0.25-0.441,0.83-1.423,0.83h-4.732v9.605c0,1.103-0.897,2-2,2H43.176
				z"/>
			<path fill="#FFFFFF" d="M52.7,48.625c0.261,0,0.521,0.096,0.719,0.287l15.819,15.322c0.396,0.382,0.269,0.695-0.281,0.695h-4.732
				c-0.55,0-1,0.45-1,1v9.605c0,0.55-0.45,1-1,1H43.176c-0.55,0-1-0.45-1-1V65.93c0-0.55-0.45-1-1-1h-4.732
				c-0.55,0-0.677-0.313-0.282-0.695l15.82-15.322C52.18,48.721,52.439,48.625,52.7,48.625 M52.7,46.625
				c-0.794,0-1.543,0.302-2.11,0.85L34.77,62.798c-0.791,0.765-1.044,1.766-0.676,2.677c0.369,0.911,1.247,1.455,2.35,1.455h3.732
				v8.605c0,1.654,1.346,3,3,3h19.049c1.654,0,3-1.346,3-3V66.93h3.732c1.104,0,1.981-0.544,2.35-1.455
				c0.368-0.912,0.114-1.913-0.68-2.679l-15.816-15.32C54.243,46.927,53.494,46.625,52.7,46.625L52.7,46.625z"/>
		</g>
	</g>
</g>
</svg>
