<?xml version="1.0" encoding="utf-8"?>
<!-- Generator: Adobe Illustrator 16.0.0, SVG Export Plug-In . SVG Version: 6.00 Build 0)  -->
<!DOCTYPE svg PUBLIC "-//W3C//DTD SVG 1.1//EN" "http://www.w3.org/Graphics/SVG/1.1/DTD/svg11.dtd">
<svg version="1.1" xmlns="http://www.w3.org/2000/svg" xmlns:xlink="http://www.w3.org/1999/xlink" x="0px" y="0px" width="100px"
	 height="100px" viewBox="0 0 100 100" enable-background="new 0 0 100 100" xml:space="preserve">
<g id="Layer_1" opacity="0">
	<rect opacity="0" width="100" height="100"/>
</g>
<g id="Layer_2">
	<g>
		<g>
			<g>
				<g>
					<g>
						<path fill="#FFFFFF" d="M89.143,77.625c0,0.55-0.45,1-1,1H11.051c-0.55,0-1-0.45-1-1v-55.25c0-0.55,0.45-1,1-1h3.041
							c0.55,0,1,0.45,1,1v50.209c0,0.55,0.45,1,1,1h72.051c0.55,0,1,0.45,1,1V77.625z"/>
						<path fill="none" stroke="#3279BE" stroke-width="2" stroke-miterlimit="10" d="M89.143,77.625c0,0.55-0.45,1-1,1H11.051
							c-0.55,0-1-0.45-1-1v-55.25c0-0.55,0.45-1,1-1h3.041c0.55,0,1,0.45,1,1v50.209c0,0.55,0.45,1,1,1h72.051c0.55,0,1,0.45,1,1
							V77.625z"/>
					</g>
				</g>
			</g>
		</g>
		<g>
			<path fill="#FFFFFF" d="M79.881,24.379c-0.55,0.008-1.014,0-1.03-0.016s-0.044-0.017-0.062,0s-0.481,0.037-1.031,0.044
				l-7.844,0.109c-0.55,0.007-0.682,0.332-0.293,0.721l3.439,3.44c0.389,0.389,0.389,1.025,0,1.414L59.848,43.306
				c-0.389,0.389-1.025,0.389-1.414,0l-9.391-9.388c-0.389-0.389-1.025-0.389-1.414,0L18.115,63.432
				c-0.389,0.389-0.389,1.025,0,1.414l5.715,5.715c0.389,0.389,1.025,0.389,1.414,0l22.385-22.386c0.389-0.389,1.025-0.389,1.414,0
				l9.391,9.391c0.389,0.389,1.025,0.389,1.414,0l20.34-20.346c0.389-0.389,1.025-0.389,1.414,0l3.483,3.482
				c0.389,0.389,0.713,0.257,0.721-0.293l0.11-7.931c0.008-0.55,0.018-1.004,0.023-1.009s0.006-0.013,0.001-0.018
				s-0.003-0.459,0.005-1.009l0.072-5.149c0.008-0.55-0.437-0.994-0.986-0.986L79.881,24.379z"/>
			<path fill="none" stroke="#3279BE" stroke-width="2" stroke-miterlimit="10" d="M79.881,24.379c-0.55,0.008-1.014,0-1.03-0.016
				s-0.044-0.017-0.062,0s-0.481,0.037-1.031,0.044l-7.844,0.109c-0.55,0.007-0.682,0.332-0.293,0.721l3.439,3.44
				c0.389,0.389,0.389,1.025,0,1.414L59.848,43.306c-0.389,0.389-1.025,0.389-1.414,0l-9.391-9.388
				c-0.389-0.389-1.025-0.389-1.414,0L18.115,63.432c-0.389,0.389-0.389,1.025,0,1.414l5.715,5.715c0.389,0.389,1.025,0.389,1.414,0
				l22.385-22.386c0.389-0.389,1.025-0.389,1.414,0l9.391,9.391c0.389,0.389,1.025,0.389,1.414,0l20.34-20.346
				c0.389-0.389,1.025-0.389,1.414,0l3.483,3.482c0.389,0.389,0.713,0.257,0.721-0.293l0.11-7.931
				c0.008-0.55,0.018-1.004,0.023-1.009s0.006-0.013,0.001-0.018s-0.003-0.459,0.005-1.009l0.072-5.149
				c0.008-0.55-0.437-0.994-0.986-0.986L79.881,24.379z"/>
		</g>
	</g>
</g>
</svg>
