<?xml version="1.0" encoding="utf-8"?>
<!-- Generator: Adobe Illustrator 16.0.0, SVG Export Plug-In . SVG Version: 6.00 Build 0)  -->
<!DOCTYPE svg PUBLIC "-//W3C//DTD SVG 1.1//EN" "http://www.w3.org/Graphics/SVG/1.1/DTD/svg11.dtd">
<svg version="1.1" id="Layer_1" xmlns="http://www.w3.org/2000/svg" xmlns:xlink="http://www.w3.org/1999/xlink" x="0px" y="0px"
	 width="100px" height="100px" viewBox="0 0 100 100" enable-background="new 0 0 100 100" xml:space="preserve">
<rect opacity="0" width="100" height="100"/>
<g>
	<g>
		<path fill="#FFFFFF" d="M91.949,67.613c2.146,0.485,2.146,1.281,0,1.768l-37.453,8.486c-2.145,0.486-5.656,0.486-7.801,0
			L9.242,69.381c-2.146-0.486-2.146-1.282,0-1.768l37.453-8.488c2.146-0.485,5.657-0.485,7.801,0L91.949,67.613z"/>
		<path fill="none" stroke="#3379BC" stroke-width="2" stroke-miterlimit="10" d="M91.949,67.613c2.146,0.485,2.146,1.281,0,1.768
			l-37.453,8.486c-2.145,0.486-5.656,0.486-7.801,0L9.242,69.381c-2.146-0.486-2.146-1.282,0-1.768l37.453-8.488
			c2.146-0.485,5.657-0.485,7.801,0L91.949,67.613z"/>
	</g>
	<g>
		<path fill="#FFFFFF" d="M91.949,60.938c2.146,0.486,2.146,1.282,0,1.768l-37.453,8.486c-2.145,0.486-5.656,0.486-7.801,0
			L9.242,62.705c-2.146-0.485-2.146-1.281,0-1.768l37.453-8.487c2.146-0.486,5.657-0.486,7.801,0L91.949,60.938z"/>
		<path fill="none" stroke="#3379BC" stroke-width="2" stroke-miterlimit="10" d="M91.949,60.938c2.146,0.486,2.146,1.282,0,1.768
			l-37.453,8.486c-2.145,0.486-5.656,0.486-7.801,0L9.242,62.705c-2.146-0.485-2.146-1.281,0-1.768l37.453-8.487
			c2.146-0.486,5.657-0.486,7.801,0L91.949,60.938z"/>
	</g>
	<g>
		<path fill="#FFFFFF" d="M91.949,54.262c2.146,0.486,2.146,1.282,0,1.768l-37.453,8.488c-2.145,0.485-5.656,0.485-7.801,0
			L9.242,56.029c-2.146-0.485-2.146-1.281,0-1.768l37.453-8.487c2.146-0.486,5.657-0.486,7.801,0L91.949,54.262z"/>
		<path fill="none" stroke="#3379BC" stroke-width="2" stroke-miterlimit="10" d="M91.949,54.262c2.146,0.486,2.146,1.282,0,1.768
			l-37.453,8.488c-2.145,0.485-5.656,0.485-7.801,0L9.242,56.029c-2.146-0.485-2.146-1.281,0-1.768l37.453-8.487
			c2.146-0.486,5.657-0.486,7.801,0L91.949,54.262z"/>
	</g>
	<g>
		<path fill="#FFFFFF" d="M39.323,55.752c-1.103,0-2-0.897-2-2V42.84h-5.489c-0.98,0-1.321-0.58-1.422-0.829
			c-0.101-0.249-0.26-0.902,0.444-1.585l17.761-17.2c0.378-0.367,0.881-0.569,1.414-0.569s1.035,0.202,1.414,0.569l17.761,17.2
			c0.705,0.682,0.547,1.335,0.445,1.585c-0.101,0.249-0.441,0.829-1.422,0.829H62.74v10.912c0,1.103-0.897,2-2,2H39.323z"/>
		<path fill="#3379BC" d="M50.031,23.657c0.26,0,0.521,0.096,0.718,0.287l17.761,17.2c0.396,0.383,0.269,0.696-0.281,0.696H62.74
			c-0.55,0-1,0.45-1,1v10.912c0,0.55-0.45,1-1,1H39.323c-0.55,0-1-0.45-1-1V42.84c0-0.55-0.45-1-1-1h-5.489
			c-0.55,0-0.677-0.313-0.282-0.696l17.761-17.2C49.511,23.753,49.771,23.657,50.031,23.657 M50.031,21.657
			c-0.794,0-1.544,0.302-2.11,0.851l-17.76,17.2c-0.792,0.768-1.045,1.769-0.676,2.679s1.247,1.454,2.349,1.454h4.489v9.912
			c0,1.654,1.346,3,3,3H60.74c1.654,0,3-1.346,3-3V43.84h4.489c1.103,0,1.98-0.543,2.349-1.454c0.369-0.911,0.116-1.912-0.677-2.679
			l-17.761-17.2C51.575,21.959,50.826,21.657,50.031,21.657L50.031,21.657z"/>
	</g>
</g>
</svg>
