<?xml version="1.0" encoding="utf-8"?>
<!-- Generator: Adobe Illustrator 16.0.0, SVG Export Plug-In . SVG Version: 6.00 Build 0)  -->
<!DOCTYPE svg PUBLIC "-//W3C//DTD SVG 1.1//EN" "http://www.w3.org/Graphics/SVG/1.1/DTD/svg11.dtd">
<svg version="1.1" xmlns="http://www.w3.org/2000/svg" xmlns:xlink="http://www.w3.org/1999/xlink" x="0px" y="0px" width="100px"
	 height="100px" viewBox="0 0 100 100" enable-background="new 0 0 100 100" xml:space="preserve">
<g id="Layer_1" opacity="0">
	<rect opacity="0" width="100" height="100"/>
</g>
<g id="Layer_2">
	<g>
		<polygon fill="#3379BC" stroke="#FFFFFF" stroke-width="2" stroke-linecap="round" stroke-miterlimit="10" points="62.165,88.807 
			50.005,76.395 37.843,88.807 37.843,43.853 62.165,43.853 		"/>
		<g>
			<path fill="#3379BC" d="M71.853,51.688c0.612,1.711-0.372,3.033-2.187,2.938s-3.256,1.313-3.203,3.129
				c0.054,1.817-1.291,2.771-2.987,2.119c-1.696-0.65-3.503,0.242-4.013,1.986s-2.083,2.235-3.496,1.092
				c-1.412-1.145-3.405-0.853-4.43,0.648c-1.025,1.502-2.673,1.482-3.662-0.041c-0.989-1.525-2.976-1.863-4.414-0.752
				s-3,0.584-3.471-1.172s-2.256-2.69-3.967-2.078c-1.711,0.613-3.032-0.37-2.938-2.186c0.096-1.814-1.313-3.256-3.129-3.203
				c-1.816,0.054-2.77-1.291-2.117-2.988c0.651-1.696-0.243-3.502-1.987-4.013s-2.235-2.084-1.092-3.496
				c1.144-1.412,0.852-3.406-0.649-4.43s-1.482-2.672,0.042-3.662s1.862-2.976,0.751-4.414c-1.11-1.438-0.583-3,1.172-3.47
				c1.756-0.471,2.691-2.255,2.08-3.966c-0.612-1.711,0.372-3.033,2.187-2.938s3.256-1.313,3.202-3.13s1.291-2.77,2.987-2.119
				s3.503-0.243,4.013-1.987s2.083-2.235,3.496-1.091c1.412,1.144,3.405,0.852,4.43-0.649c1.025-1.501,2.673-1.482,3.662,0.042
				c0.99,1.524,2.977,1.863,4.414,0.751c1.438-1.111,3-0.584,3.471,1.171s2.256,2.691,3.967,2.079s3.032,0.372,2.937,2.187
				s1.313,3.256,3.13,3.203c1.816-0.053,2.77,1.291,2.118,2.988s0.242,3.502,1.987,4.013c1.744,0.511,2.235,2.084,1.092,3.496
				s-0.852,3.406,0.65,4.43c1.5,1.024,1.481,2.672-0.043,3.662c-1.525,0.99-1.863,2.977-0.752,4.415
				c1.11,1.438,0.583,2.999-1.172,3.469C72.176,48.191,71.24,49.976,71.853,51.688z"/>
			<path fill="none" stroke="#FFFFFF" stroke-width="2" stroke-miterlimit="10" d="M71.853,51.688
				c0.612,1.711-0.372,3.033-2.187,2.938s-3.256,1.313-3.203,3.129c0.054,1.817-1.291,2.771-2.987,2.119
				c-1.696-0.65-3.503,0.242-4.013,1.986s-2.083,2.235-3.496,1.092c-1.412-1.145-3.405-0.853-4.43,0.648
				c-1.025,1.502-2.673,1.482-3.662-0.041c-0.989-1.525-2.976-1.863-4.414-0.752s-3,0.584-3.471-1.172s-2.256-2.69-3.967-2.078
				c-1.711,0.613-3.032-0.37-2.938-2.186c0.096-1.814-1.313-3.256-3.129-3.203c-1.816,0.054-2.77-1.291-2.117-2.988
				c0.651-1.696-0.243-3.502-1.987-4.013s-2.235-2.084-1.092-3.496c1.144-1.412,0.852-3.406-0.649-4.43s-1.482-2.672,0.042-3.662
				s1.862-2.976,0.751-4.414c-1.11-1.438-0.583-3,1.172-3.47c1.756-0.471,2.691-2.255,2.08-3.966
				c-0.612-1.711,0.372-3.033,2.187-2.938s3.256-1.313,3.202-3.13s1.291-2.77,2.987-2.119s3.503-0.243,4.013-1.987
				s2.083-2.235,3.496-1.091c1.412,1.144,3.405,0.852,4.43-0.649c1.025-1.501,2.673-1.482,3.662,0.042
				c0.99,1.524,2.977,1.863,4.414,0.751c1.438-1.111,3-0.584,3.471,1.171s2.256,2.691,3.967,2.079s3.032,0.372,2.937,2.187
				s1.313,3.256,3.13,3.203c1.816-0.053,2.77,1.291,2.118,2.988s0.242,3.502,1.987,4.013c1.744,0.511,2.235,2.084,1.092,3.496
				s-0.852,3.406,0.65,4.43c1.5,1.024,1.481,2.672-0.043,3.662c-1.525,0.99-1.863,2.977-0.752,4.415
				c1.11,1.438,0.583,2.999-1.172,3.469C72.176,48.191,71.24,49.976,71.853,51.688z"/>
		</g>
		<circle fill="#3379BC" stroke="#FFFFFF" stroke-width="2" stroke-miterlimit="10" cx="50.003" cy="37.708" r="16.108"/>
		<polyline fill="#3379BC" stroke="#FFFFFF" stroke-width="2" stroke-linecap="round" stroke-miterlimit="10" points="
			41.328,37.372 47.696,43.74 58.68,32.756 		"/>
	</g>
</g>
</svg>
