<?xml version="1.0" encoding="utf-8"?>
<!-- Generator: Adobe Illustrator 16.0.0, SVG Export Plug-In . SVG Version: 6.00 Build 0)  -->
<!DOCTYPE svg PUBLIC "-//W3C//DTD SVG 1.1//EN" "http://www.w3.org/Graphics/SVG/1.1/DTD/svg11.dtd">
<svg version="1.1" xmlns="http://www.w3.org/2000/svg" xmlns:xlink="http://www.w3.org/1999/xlink" x="0px" y="0px" width="100px"
	 height="100px" viewBox="0 0 100 100" enable-background="new 0 0 100 100" xml:space="preserve">
<g id="Layer_1" opacity="0">
	<rect opacity="0" width="100" height="100"/>
</g>
<g id="Layer_2">
	<g>
		<g>
			<path fill-rule="evenodd" clip-rule="evenodd" fill="#3279BE" d="M41.176,76.293l-30.665-0.004
				c-0.045,0.009-0.117,0.015-0.187,0.015c-0.365,0-0.695-0.148-0.929-0.418c-0.167-0.192-0.254-0.44-0.244-0.695l0.009-0.263
				V43.341c0-0.385,0.221-0.736,0.568-0.902c0.189-0.091,0.393-0.134,0.623-0.134c0.014,0,10.233-0.007,10.233-0.007
				c0.4,0,0.786-0.033,1.151-0.097c0.081-0.028,0.168-0.054,0.229-0.062c0,0,0.022-0.003,0.049-0.006
				c0.062-0.022,0.126-0.038,0.192-0.048c0.323-0.047,0.564-0.211,0.68-0.462c0.123-0.268,0.083-0.595-0.11-0.898
				c-0.382-0.601-0.759-1.185-1.173-1.73c-0.773-1.024-1.081-2.242-0.869-3.431c0.222-1.244,0.983-2.338,2.142-3.083
				c0.951-0.61,2.06-0.933,3.209-0.933c1.342,0,2.655,0.448,3.697,1.262c1.917,1.497,2.306,4.034,0.924,6.033
				c-0.401,0.579-0.795,1.161-1.189,1.742c-0.271,0.399-0.286,0.631-0.274,0.771c0.024,0.277,0.129,0.499,0.561,0.67
				c0.705,0.277,1.518,0.279,2.378,0.281l8.967,0.002c1.211,0,1.662,0.452,1.662,1.669l0.001,2.413
				c0.001,2.281,0.002,4.562-0.006,6.842c-0.001,0.658-0.02,1.427-0.233,2.199c-0.377,1.368-1.386,1.475-1.686,1.475
				c-0.395,0-0.8-0.139-1.204-0.413l-1.843-1.251c-0.602-0.409-1.284-0.626-1.972-0.626c-0.909,0-1.782,0.378-2.458,1.063
				c-0.913,0.925-1.408,2.243-1.359,3.618c0.049,1.372,0.634,2.649,1.607,3.505c0.616,0.542,1.407,0.841,2.228,0.841
				c0.704,0,1.379-0.216,1.953-0.624c0.624-0.441,1.255-0.867,1.889-1.289c0.387-0.256,0.764-0.38,1.155-0.38
				c0.255,0,0.506,0.055,0.746,0.163c0.125,0.057,0.236,0.138,0.327,0.238c0.098,0.067,0.183,0.151,0.252,0.249
				c0.05,0.072,0.104,0.17,0.148,0.274c0.072,0.105,0.129,0.228,0.162,0.353c0.027,0.056,0.048,0.113,0.064,0.173
				c0.027,0.063,0.047,0.13,0.061,0.198c0.142,0.726,0.163,1.451,0.165,2.128c0.01,2.373,0.008,4.747,0.007,7.121l-0.001,2.587
				c0,0.007,0.014,0.188,0.016,0.21c0.023,0.126,0.024,0.256,0,0.379c-0.018,0.088-0.059,0.231-0.099,0.312
				c-0.159,0.316-0.474,0.526-0.827,0.551c0,0-0.26,0.02-0.303,0.02C41.594,76.305,41.176,76.293,41.176,76.293z"/>
			<path fill="#FFFFFF" d="M26.084,32.546c1.098,0,2.193,0.356,3.082,1.05c1.504,1.174,1.799,3.111,0.717,4.677
				c-0.402,0.581-0.799,1.166-1.194,1.75c-0.29,0.427-0.487,0.893-0.442,1.417c0.066,0.752,0.504,1.242,1.188,1.514
				c0.899,0.354,1.85,0.35,2.795,0.352c1.42,0.002,2.841,0.003,4.261,0.003c1.553,0,3.105-0.001,4.659-0.001
				c0.662,0,0.662,0,0.662,0.669c0,3.083,0.006,6.168-0.005,9.251c-0.001,0.648-0.021,1.301-0.197,1.937
				c-0.135,0.489-0.385,0.741-0.722,0.741c-0.188,0-0.404-0.079-0.642-0.24c-0.613-0.416-1.229-0.832-1.842-1.25
				c-0.789-0.536-1.667-0.8-2.535-0.8c-1.149,0-2.282,0.461-3.17,1.36c-2.316,2.348-2.175,6.4,0.299,8.576
				c0.822,0.724,1.854,1.09,2.888,1.09c0.884,0,1.771-0.268,2.532-0.809c0.614-0.435,1.237-0.855,1.863-1.271
				c0.188-0.125,0.389-0.213,0.602-0.213c0.108,0,0.219,0.022,0.333,0.074c0.046,0.066,0.099,0.122,0.175,0.152
				c0.023,0.033,0.047,0.064,0.068,0.096c-0.002,0.08,0.044,0.135,0.09,0.189c0,0.074,0.024,0.139,0.066,0.197
				c-0.005,0.05,0.007,0.096,0.045,0.131c0.125,0.641,0.145,1.292,0.146,1.939c0.014,3.235,0.006,6.471,0.006,9.705
				c0,0.092,0.012,0.183,0.018,0.275c-0.016,0.035-0.029,0.071,0.01,0.102l0.008,0.016c-0.004,0.02-0.008,0.039-0.012,0.059
				l-0.001,0.002c-0.072,0.005-0.144,0.012-0.217,0.018c-0.146-0.004-0.292-0.012-0.44-0.012
				c-10.221-0.001-20.441-0.001-30.664-0.004c-0.061,0-0.125,0.015-0.187,0.015c-0.063,0-0.123-0.015-0.174-0.074
				c0.004-0.101,0.01-0.201,0.01-0.302c0-10.527,0-21.058,0-31.587c0.062-0.03,0.126-0.036,0.191-0.036
				c0.054,0,0.108,0.004,0.162,0.004c3.356-0.004,6.715-0.007,10.072-0.012c0.477,0,0.953-0.041,1.422-0.13
				c0.025-0.012,0.053-0.023,0.078-0.036c0.048-0.006,0.095-0.013,0.144-0.019c0.01,0.002,0.019,0.003,0.028,0.003
				c0.035,0,0.065-0.013,0.092-0.042c1.406-0.205,2.051-1.656,1.27-2.887c-0.389-0.611-0.783-1.223-1.221-1.799
				c-1.29-1.709-0.822-3.887,1.018-5.068C24.225,32.801,25.156,32.546,26.084,32.546 M26.084,30.546
				c-1.341,0-2.637,0.377-3.749,1.091c-1.396,0.897-2.315,2.229-2.586,3.749c-0.262,1.467,0.112,2.961,1.053,4.208
				c0.367,0.483,0.708,1.005,1.051,1.544c-0.018,0.005-0.036,0.01-0.055,0.016c-0.105,0.018-0.216,0.043-0.323,0.077
				c-0.282,0.045-0.581,0.067-0.889,0.067l-5.6,0.007l-4.475,0.005c-0.049-0.003-0.104-0.004-0.16-0.004
				c-0.378,0-0.732,0.078-1.055,0.232c-0.694,0.333-1.137,1.034-1.137,1.804v31.587c0,0.047-0.002,0.093-0.005,0.14l-0.003,0.084
				c-0.02,0.509,0.155,1.006,0.489,1.39c0.427,0.492,1.025,0.763,1.684,0.763c0.089,0,0.18-0.006,0.271-0.015l22.893,0.003
				l7.688,0.001c0.075,0,0.149,0.003,0.224,0.006l0.164,0.005c0.018,0.001,0.036,0.001,0.053,0.001c0.053,0,0.106-0.002,0.16-0.007
				l0.089-0.007l0.103-0.009c0.708-0.048,1.337-0.467,1.654-1.101c0.079-0.159,0.138-0.33,0.173-0.504l0.012-0.06
				c0.048-0.242,0.051-0.489,0.01-0.73l-0.003-0.041l-0.002-2.6c0.001-2.375,0.003-4.751-0.007-7.127
				c-0.002-0.724-0.026-1.506-0.184-2.313c-0.022-0.114-0.054-0.225-0.095-0.332c-0.016-0.051-0.034-0.102-0.053-0.152
				c-0.04-0.143-0.096-0.28-0.167-0.411c-0.054-0.131-0.121-0.255-0.202-0.372l-0.067-0.095c-0.111-0.158-0.249-0.304-0.403-0.428
				c-0.171-0.173-0.373-0.313-0.597-0.415c-0.37-0.167-0.759-0.252-1.158-0.252c-0.585,0-1.159,0.184-1.706,0.545
				c-0.773,0.515-1.363,0.917-1.915,1.307c-0.407,0.289-0.882,0.441-1.376,0.441c-0.578,0-1.134-0.21-1.567-0.592
				c-0.767-0.674-1.229-1.691-1.268-2.789c-0.039-1.101,0.352-2.15,1.072-2.881c0.487-0.493,1.107-0.765,1.746-0.765
				c0.487,0,0.975,0.157,1.411,0.453l1.316,0.894l0.528,0.358c0.572,0.389,1.166,0.585,1.765,0.585c0.987,0,2.202-0.58,2.65-2.21
				c0.246-0.891,0.268-1.739,0.269-2.465c0.008-2.277,0.007-4.56,0.006-6.842l-0.001-2.413c0-1.771-0.896-2.669-2.662-2.669l-2.33,0
				l-2.329,0c-1.419,0-2.839-0.001-4.258-0.003c-0.757-0.001-1.387-0.003-1.893-0.153c0.001-0.002,0.003-0.004,0.004-0.006
				c0.393-0.581,0.786-1.16,1.184-1.735c1.694-2.451,1.218-5.559-1.131-7.392C29.18,31.069,27.649,30.546,26.084,30.546
				L26.084,30.546z"/>
		</g>
		<g>
			<path fill-rule="evenodd" clip-rule="evenodd" fill="#3279BE" d="M10.22,43.242c-0.205,0-0.405-0.063-0.574-0.181
				c-0.243-0.17-0.4-0.417-0.464-0.731c-0.042-0.116-0.037-0.154-0.034-0.277l0.01-0.361L9.159,10.61
				c-0.003-0.211-0.01-0.603,0.313-0.932c0.321-0.326,0.713-0.326,0.843-0.326c0,0,31.304,0.001,31.317,0.001
				c0.224,0,0.589,0.017,0.891,0.323c0.323,0.327,0.318,0.721,0.316,0.932l0.001,9.927c0,0.058,0.008,0.116,0.015,0.174l0.015,0.149
				c0.003,0.037,0.03,0.683,0.03,0.683c0.002,0.051,0,0.113-0.006,0.164c0.006,0.019,0.023,0.071,0.037,0.124
				c0.021,0.085,0.033,0.182,0.032,0.27c0.004,0.042,0.022,0.093,0.035,0.145l0.022,0.09c0.024,0.067,0.045,0.139,0.06,0.21
				c0.01,0.022,0.02,0.044,0.028,0.066c0.046,0.072,0.083,0.15,0.11,0.231c0.03,0.038,0.058,0.078,0.082,0.12
				c0.023,0.026,0.044,0.053,0.064,0.081c0.034,0.025,0.067,0.053,0.098,0.083c0.008,0.004,0.076,0.045,0.107,0.064
				c0.036,0.009,0.122,0.036,0.13,0.038c0.061,0.013,0.117,0.02,0.169,0.02c0.062,0,0.12-0.01,0.177-0.029
				c0.04-0.014,0.081-0.025,0.122-0.033l0.226-0.098c0.045-0.038,0.094-0.073,0.141-0.1c0.017-0.009,0.033-0.019,0.05-0.027
				c0.132-0.168,0.317-0.292,0.53-0.348c0.05-0.013,0.181-0.116,0.277-0.191l0.205-0.156c0.041-0.029,0.083-0.055,0.126-0.078
				c0.012-0.009,0.023-0.019,0.036-0.027c0.052-0.04,0.127-0.094,0.166-0.116c0.134-0.075,0.262-0.161,0.39-0.245
				c0.321-0.213,0.686-0.454,1.151-0.603c0.485-0.156,0.968-0.235,1.436-0.235c1.042,0,2.003,0.382,2.856,1.134
				c1.183,1.042,1.854,2.623,1.843,4.337c-0.012,1.72-0.708,3.298-1.91,4.331c-0.793,0.682-1.806,1.057-2.851,1.057
				c-0.837,0-1.644-0.241-2.332-0.698c-0.286-0.19-0.57-0.385-0.853-0.579c-0.392-0.27-0.784-0.54-1.185-0.795
				c-0.231-0.148-0.437-0.223-0.612-0.223c-0.089,0-0.23,0.016-0.434,0.152c-0.086,0.057-0.201,0.167-0.328,0.507
				c-0.133,0.355-0.177,0.766-0.203,1.121c-0.041,0.578-0.055,1.16-0.055,1.742l0.004,4.003c0,1.619,0,3.238,0.006,4.857
				c0,0.151,0.002,0.611-0.358,0.973c-0.359,0.361-0.82,0.361-0.972,0.361c-1.418-0.004-2.828-0.004-4.237-0.004
				c-1.748,0-3.495,0-5.242-0.008c-0.729-0.002-1.508-0.024-2.288-0.247c-0.884-0.251-1.209-0.799-1.324-1.104
				c-0.113-0.3-0.231-0.917,0.252-1.668c0.233-0.362,0.475-0.717,0.716-1.071c0.223-0.328,0.446-0.655,0.661-0.987
				c0.828-1.275,0.749-2.797-0.204-3.971c-0.837-1.033-1.938-1.583-3.365-1.684c-0.147-0.01-0.293-0.016-0.438-0.016
				c-1.37,0-2.494,0.46-3.437,1.406c-1.228,1.231-1.363,3.024-0.335,4.462c0.422,0.59,0.824,1.196,1.225,1.803
				c0.475,0.721,0.423,1.308,0.296,1.673c-0.127,0.367-0.453,0.861-1.277,1.134c-0.527,0.174-1.041,0.208-1.495,0.237
				c-0.167,0.011-0.335,0.021-0.501,0.041c-0.038,0.004-0.076,0.006-0.113,0.006l-9.862-0.007
				C10.548,43.233,10.227,43.242,10.22,43.242z"/>
			<path fill="#FFFFFF" d="M10.315,10.353c0.051,0,0.118,0.002,0.207,0.002c5.162-0.001,10.323-0.001,15.484-0.001
				c5.161,0,10.323,0,15.484,0.001c0.083,0,0.146-0.002,0.194-0.002c0.181,0,0.154,0.034,0.154,0.354
				c0.002,3.276,0,6.552,0.002,9.829c0,0.136,0.021,0.272,0.033,0.409c-0.035,0.054-0.025,0.107,0.009,0.157
				c0.007,0.162,0.013,0.325,0.019,0.487c-0.02,0.167,0.021,0.328,0.062,0.489c-0.004,0.194,0.062,0.374,0.103,0.559
				c0.012,0.023,0.023,0.047,0.035,0.071c-0.004,0.094,0.026,0.178,0.072,0.257c0.004,0.075,0.031,0.138,0.094,0.186
				c0,0.057-0.014,0.118,0.051,0.151c0.022,0.067,0.055,0.126,0.118,0.163c0.012,0.071,0.046,0.126,0.114,0.158
				c0.052,0.097,0.127,0.17,0.221,0.224c0.051,0.083,0.122,0.139,0.219,0.159c0.107,0.062,0.203,0.146,0.336,0.152
				c0.04,0.025,0.079,0.049,0.125,0.049c0.011,0,0.022-0.001,0.035-0.004c0.128,0.028,0.256,0.043,0.383,0.043
				c0.169,0,0.336-0.026,0.502-0.083c0.014,0.002,0.027,0.003,0.04,0.003c0.039,0,0.075-0.01,0.104-0.043
				c0.098-0.042,0.193-0.084,0.291-0.125c0.101-0.007,0.165-0.071,0.226-0.144c0,0,0.001-0.001,0.001-0.001
				c0.128-0.074,0.289-0.104,0.337-0.275c0.323-0.085,0.555-0.316,0.813-0.504c0.068-0.015,0.128-0.044,0.165-0.107l0.002-0.001
				c0.021-0.017,0.041-0.033,0.062-0.049c0.455-0.254,0.852-0.606,1.359-0.769c0.39-0.125,0.766-0.188,1.13-0.188
				c0.797,0,1.531,0.298,2.195,0.884c2.027,1.788,2.001,5.391-0.058,7.159c-0.624,0.536-1.412,0.816-2.199,0.816
				c-0.62,0-1.239-0.173-1.779-0.531c-0.688-0.456-1.357-0.94-2.053-1.384c-0.375-0.24-0.76-0.38-1.15-0.38
				c-0.328,0-0.659,0.099-0.99,0.32c-0.356,0.238-0.562,0.594-0.709,0.988c-0.169,0.451-0.229,0.924-0.264,1.399
				c-0.042,0.603-0.058,1.208-0.058,1.814c0.007,2.954,0,5.909,0.01,8.863c0.001,0.268-0.075,0.33-0.33,0.33
				c-0.002,0-0.004,0-0.006,0c-3.156-0.009-6.313,0.002-9.469-0.012c-0.676-0.002-1.357-0.02-2.018-0.208
				c-0.692-0.197-0.894-0.667-0.506-1.27c0.447-0.693,0.928-1.364,1.376-2.056c1.063-1.64,0.962-3.631-0.267-5.145
				c-1.047-1.292-2.432-1.936-4.071-2.051c-0.171-0.012-0.341-0.018-0.508-0.018c-1.585,0-2.986,0.538-4.145,1.7
				c-1.59,1.594-1.752,3.915-0.441,5.75c0.416,0.581,0.811,1.177,1.205,1.773c0.405,0.615,0.24,1.074-0.461,1.306
				c-0.582,0.192-1.194,0.165-1.795,0.233c-0.019,0-0.037,0.001-0.057,0.001c-0.823-0.003-1.648-0.008-2.471-0.008
				c-0.815,0-1.63,0-2.445,0c-1.63,0-3.26,0-4.89,0c-0.109,0-0.22,0.006-0.328,0.008c-0.059-0.041-0.052-0.109-0.072-0.167
				c0.003-0.128,0.011-0.257,0.011-0.384c0-10.325,0-20.646,0.002-30.97C10.16,10.389,10.127,10.353,10.315,10.353 M45.031,23.852
				h0.005 M45.031,23.852C45.031,23.852,45.031,23.852,45.031,23.852L45.031,23.852L45.031,23.852 M45.031,23.853
				C45.03,23.853,45.03,23.853,45.031,23.853c-0.001,0.001-0.001,0.001-0.001,0.001C45.03,23.853,45.03,23.853,45.031,23.853
				 M10.315,8.353c-0.778,0-1.275,0.339-1.556,0.625c-0.617,0.627-0.604,1.37-0.6,1.649l0.001,0.095
				c-0.002,10.323-0.002,20.645-0.002,30.97c0,0.053-0.002,0.107-0.004,0.161l-0.006,0.177c-0.004,0.19,0.019,0.379,0.067,0.562
				c0.158,0.678,0.551,1.074,0.857,1.289c0.336,0.235,0.737,0.361,1.147,0.361c0.015,0,0.03,0,0.045,0l0.142-0.004l0.141-0.003
				l2.446,0h2.444l2.444,0c0.585,0,1.17,0.002,1.755,0.005l0.709,0.003c0.001,0,0.002,0,0.003,0c0.021,0,0.066,0,0.085-0.001
				c0.076,0,0.126-0.004,0.202-0.013c0.15-0.017,0.302-0.026,0.453-0.036c0.488-0.032,1.095-0.071,1.742-0.285
				c1.277-0.423,1.745-1.281,1.909-1.756c0.165-0.473,0.331-1.434-0.404-2.55c-0.4-0.605-0.812-1.227-1.25-1.837
				c-0.754-1.057-0.666-2.273,0.231-3.173c0.756-0.759,1.624-1.112,2.729-1.112c0.122,0,0.246,0.004,0.37,0.013
				c1.15,0.081,1.995,0.5,2.656,1.315c0.681,0.839,0.734,1.885,0.143,2.797c-0.212,0.327-0.431,0.648-0.649,0.969
				c-0.246,0.361-0.492,0.723-0.729,1.091c-0.722,1.122-0.527,2.088-0.348,2.564c0.181,0.48,0.681,1.342,1.987,1.713
				c0.9,0.257,1.757,0.281,2.557,0.284c1.747,0.008,3.496,0.008,5.245,0.008c1.408,0,2.817,0,4.225,0.004
				c0.693,0,1.259-0.22,1.692-0.655c0.298-0.299,0.653-0.834,0.65-1.682c-0.005-1.618-0.006-3.236-0.006-4.854
				c0-1.335-0.001-2.671-0.004-4.006c0-0.613,0.017-1.161,0.053-1.67c0.018-0.242,0.044-0.516,0.109-0.738
				c0.369,0.237,0.729,0.485,1.089,0.733c0.288,0.197,0.575,0.395,0.866,0.588c0.853,0.566,1.851,0.865,2.885,0.865
				c1.284,0,2.528-0.461,3.503-1.299c1.421-1.22,2.244-3.073,2.257-5.082c0.014-2.003-0.781-3.86-2.181-5.093
				c-1.026-0.906-2.243-1.384-3.518-1.384c-0.571,0-1.158,0.096-1.742,0.284c-0.595,0.191-1.039,0.484-1.396,0.72
				c-0.107,0.071-0.213,0.144-0.326,0.206c-0.096,0.054-0.187,0.115-0.273,0.184c-0.053,0.031-0.104,0.065-0.154,0.101
				c-0.079,0.058-0.157,0.118-0.234,0.178c-0.026,0.021-0.052,0.042-0.078,0.062c-0.258,0.092-0.491,0.235-0.688,0.417
				c-0.014-0.044-0.029-0.087-0.046-0.13l-0.003-0.014c-0.007-0.125-0.026-0.249-0.056-0.37l-0.002-0.01
				c0-0.023,0-0.046-0.001-0.069l-0.019-0.5c-0.001-0.035-0.004-0.07-0.007-0.105c0-0.046-0.003-0.093-0.007-0.139l-0.017-0.172
				l-0.009-0.092l0-4.888l-0.001-4.915l0-0.085c0.004-0.279,0.013-1.022-0.604-1.647c-0.28-0.284-0.776-0.622-1.551-0.622
				l-0.109,0.001L41.49,8.355L26.006,8.354L10.521,8.355L10.43,8.354L10.315,8.353L10.315,8.353z"/>
		</g>
		<g>
			<path fill-rule="evenodd" clip-rule="evenodd" fill="#3279BE" d="M59.167,53.992c-1.493,0-2.908-0.533-3.984-1.5
				c-1.651-1.483-1.938-3.891-0.683-5.725l0.243-0.353c0.376-0.544,0.752-1.087,1.104-1.647c0.152-0.242,0.202-0.496,0.142-0.713
				c-0.06-0.209-0.215-0.381-0.451-0.499c-0.193-0.096-0.429-0.163-0.766-0.217c-0.597-0.095-1.211-0.107-1.679-0.107
				c0,0-7.711,0-9.854,0.005c-0.001,0-0.003,0-0.004,0c-0.163,0-0.556-0.002-0.893-0.292c-0.277-0.238-0.417-0.575-0.417-1.002
				c0.007-2.098,0.008-4.192,0.008-6.286l0.001-3.49c0-0.732,0.059-1.34,0.186-1.91c0.01-0.049,0.023-0.106,0.039-0.161
				c0.385-1.377,1.392-1.484,1.691-1.484c0.395,0,0.803,0.14,1.212,0.417c0.611,0.414,1.221,0.829,1.827,1.25
				c0.595,0.412,1.271,0.63,1.956,0.63c1.054,0,2.042-0.496,2.781-1.398c1.536-1.878,1.381-4.903-0.34-6.604
				c-0.665-0.658-1.568-1.035-2.477-1.035c-0.748,0-1.436,0.243-1.989,0.704c-0.062,0.052-0.13,0.095-0.202,0.13
				c-0.036,0.033-0.075,0.063-0.116,0.091c-0.01,0.007-0.093,0.06-0.104,0.066c-0.03,0.019-0.064,0.037-0.099,0.055
				c-0.053,0.049-0.109,0.091-0.169,0.126l-1.291,0.855c-0.064,0.043-0.134,0.078-0.207,0.105l-0.204,0.075
				c-0.075,0.027-0.152,0.045-0.231,0.054l-0.346,0.036c-0.032,0.003-0.064,0.004-0.096,0.004c-0.045,0-0.09-0.003-0.134-0.009
				c-0.474-0.064-1.1-0.332-1.391-1.243c-0.258-0.823-0.293-1.639-0.295-2.258c-0.005-1.773-0.005-3.548-0.006-5.322
				c0-1.575,0-3.15-0.004-4.725C41.924,10.244,42.04,9.932,42.27,9.7c0.347-0.35,0.785-0.35,0.929-0.35
				C53.695,9.355,64.19,9.355,74.687,9.355h0.216c0.281,0,0.55,0.119,0.739,0.327c0.189,0.208,0.283,0.487,0.256,0.767
				c0,0.004-0.011,0.105-0.011,0.11c-0.005,0.046-0.012,0.089-0.012,0.132L75.866,20.85c0.005,0.043,0.009,0.199,0.007,0.236
				l-0.008,0.198c-0.003,0.064-0.012,0.127-0.026,0.188c-0.001,0.006-0.02,0.34-0.02,0.34c-0.003,0.055-0.027,0.205-0.039,0.259
				c-0.002,0.011-0.01,0.071-0.012,0.088c-0.007,0.058-0.032,0.256-0.048,0.312l-0.206,0.698c-0.021,0.095-0.055,0.188-0.104,0.276
				c-0.002,0.003-0.004,0.007-0.006,0.01c-0.024,0.057-0.054,0.111-0.088,0.163c-0.001,0.001-0.037,0.063-0.051,0.083
				c-0.049,0.076-0.161,0.229-0.229,0.289c0,0-0.332,0.309-0.354,0.328c-0.093,0.083-0.2,0.149-0.319,0.194
				c-0.013,0.004-0.444,0.148-0.444,0.148c-0.067,0.021-0.137,0.036-0.207,0.043c0,0-0.296,0.024-0.322,0.024
				c-0.078,0-0.155-0.009-0.231-0.027l-0.566-0.132c-0.105-0.024-0.298-0.087-0.391-0.145c0,0-0.559-0.353-0.58-0.368
				c0,0-0.198-0.139-0.224-0.158c-0.045-0.027-0.087-0.057-0.127-0.091c-0.03-0.016-0.213-0.134-0.237-0.153
				c0,0-0.04-0.031-0.058-0.046c-0.024-0.012-0.049-0.024-0.072-0.038c-0.056-0.032-0.11-0.071-0.163-0.115
				c-0.034-0.02-0.068-0.042-0.101-0.066c-0.018-0.014-0.036-0.028-0.054-0.043c-0.072-0.036-0.141-0.082-0.204-0.137
				c-0.158-0.137-0.28-0.223-0.395-0.277c-0.071-0.034-0.137-0.075-0.197-0.123c-0.014-0.01-0.027-0.021-0.041-0.031
				c-0.024-0.009-0.052-0.02-0.069-0.028c-0.002,0-0.113-0.034-0.114-0.035c-0.114-0.036-0.22-0.091-0.313-0.163
				c-0.008-0.002-0.05-0.015-0.153-0.026c-0.019-0.002-0.037-0.004-0.056-0.007c-0.074-0.01-0.147-0.029-0.218-0.055
				c-0.057-0.021-0.116-0.031-0.184-0.031l-0.504,0.014c-0.069,0.017-0.152,0.031-0.22,0.034c-0.153,0.019-0.296,0.042-0.366,0.082
				c-0.065,0.038-0.134,0.068-0.203,0.089c-0.038,0.018-0.076,0.033-0.116,0.046c-0.059,0.04-0.122,0.074-0.188,0.101
				c-0.018,0.01-0.189,0.115-0.189,0.115l-0.045,0.035c-0.058,0.041-0.117,0.076-0.181,0.104c-0.035,0.043-0.073,0.083-0.115,0.121
				c0,0-0.181,0.164-0.188,0.169c-0.02,0.023-0.132,0.143-0.14,0.151c-0.029,0.031-0.085,0.087-0.135,0.133
				c-0.032,0.062-0.077,0.133-0.118,0.185c0,0-0.071,0.09-0.075,0.095c-0.035,0.072-0.079,0.139-0.131,0.2
				c-0.039,0.098-0.093,0.19-0.161,0.272c-0.027,0.114-0.047,0.169-0.111,0.268c-0.045,0.068-0.081,0.175-0.117,0.346
				c-0.018,0.083-0.046,0.164-0.084,0.24c0.009,0.14-0.016,0.273-0.066,0.397l-0.005,0.052c-0.007,0.055-0.019,0.116-0.034,0.179
				l-0.013,0.489c-0.001,0.038-0.004,0.076-0.01,0.114c0.005,0.034,0.008,0.068,0.009,0.102c0,0,0.011,0.385,0.01,0.402l0.011,0
				l0.021,0.109c0.007,0.037,0.016,0.131,0.017,0.144c0.033,0.098,0.051,0.202,0.052,0.307c0.008,0.049,0.034,0.107,0.055,0.167
				c0.01,0.029,0.043,0.131,0.05,0.162c0.008,0.034,0.015,0.069,0.027,0.102c0.06,0.087,0.077,0.134,0.107,0.235
				c0,0,0.023,0.045,0.035,0.068c0.04,0.081,0.069,0.167,0.087,0.255c-0.001-0.011,0-0.016,0.004-0.016
				c0.008,0,0.023,0.02,0.039,0.041c0.023,0.032,0.046,0.065,0.065,0.101c0.022,0.039,0.062,0.112,0.095,0.182
				c0.026,0.028,0.052,0.058,0.074,0.089c0.024,0.033,0.05,0.072,0.075,0.115c0.031,0.034,0.061,0.069,0.087,0.107
				c0.006,0.007,0.225,0.258,0.234,0.271c0.074,0.057,0.14,0.123,0.194,0.197c0.041,0.042,0.065,0.063,0.08,0.074
				c0.063,0.031,0.122,0.069,0.179,0.113c0.023,0.019,0.059,0.049,0.095,0.082c0.03,0.015,0.06,0.03,0.088,0.048
				c0.071,0.039,0.137,0.086,0.196,0.141c0.001,0,0.001,0,0.003,0c0.011,0,0.05,0.014,0.088,0.03
				c0.054,0.021,0.097,0.041,0.136,0.059c0.065,0.013,0.129,0.033,0.19,0.059c0.113,0.028,0.263,0.079,0.35,0.133
				c-0.032-0.02-0.024-0.025-0.004-0.025c0.01,0,0.084,0.009,0.114,0.012c0.044-0.005,0.087-0.008,0.131-0.008
				c0.134,0,0.268,0.027,0.394,0.081c-0.029-0.022,0.027-0.035,0.085-0.043l0.142-0.019c0.081-0.018,0.188-0.037,0.269-0.043
				c0.07-0.035,0.146-0.062,0.223-0.08c0.004,0,0.02-0.004,0.038-0.008c0.052-0.022,0.105-0.04,0.16-0.052
				c0.018-0.008,0.316-0.155,0.337-0.165c0.047-0.034,0.096-0.064,0.146-0.089c0.033-0.022,0.067-0.042,0.104-0.06
				c0.1-0.046,0.2-0.128,0.297-0.207c0.023-0.019,0.205-0.149,0.212-0.153l0.461,0.531c0.022,0.018,0.099,0.09,0.114,0.106
				l-0.483-0.702c0.062-0.045,0.128-0.083,0.197-0.113c0.068-0.067,0.146-0.123,0.229-0.168c0.041-0.034,0.085-0.064,0.131-0.091
				c0.006-0.004,0.087-0.058,0.122-0.078c0.189-0.107,0.333-0.205,0.45-0.306c0.028-0.024,0.166-0.122,0.176-0.128l0.602,0.802
				l-0.5-0.867l0.107-0.064c0.063-0.037,0.143-0.074,0.222-0.102c0.113-0.069,0.239-0.115,0.371-0.135
				c0.094-0.04,0.194-0.065,0.297-0.074c0,0,0.391-0.024,0.399-0.024l0.244,0.012c0.088,0.005,0.184,0.021,0.277,0.049
				c0.186,0.006,0.342,0.072,0.479,0.186c0.004,0.002,0.008,0.005,0.012,0.008c0.083,0.035,0.161,0.08,0.231,0.135
				c0.053,0.031,0.102,0.068,0.147,0.109l0.149,0.14c0.015,0.015,0.056,0.06,0.07,0.076c0.031,0.034,0.077,0.089,0.104,0.127
				l0.082,0.115c0.027,0.039,0.079,0.116,0.101,0.158l0.105,0.198c0.034,0.063,0.062,0.128,0.081,0.196
				c0.032,0.067,0.058,0.138,0.074,0.211l0.096,0.332c0.015,0.053,0.025,0.106,0.032,0.161c0.001,0.006,0.001,0.012,0.002,0.019
				c0.039,0.112,0.058,0.23,0.056,0.35c0.03,0.095,0.047,0.194,0.049,0.294v0.141c-0.001,0.048-0.004,0.096,0.002,0.144
				c0.054,0.144,0.066,0.276,0.048,0.416c0.009,0.065,0.011,0.132,0.008,0.199c0.003,0.034,0.005,0.068,0.005,0.103l-0.003,6.618
				c0,1.123-0.001,2.246,0.007,3.37c0.002,0.144,0.008,0.597-0.346,0.954c-0.354,0.359-0.806,0.359-0.954,0.359
				c-1.794-0.006-3.585-0.008-5.376-0.008l-4.066,0.003c-0.766,0.001-1.507,0.02-2.165,0.236c-0.573,0.189-0.652,0.461-0.683,0.701
				c-0.017,0.137-0.013,0.36,0.214,0.698c0.167,0.249,0.337,0.494,0.508,0.74c0.301,0.433,0.601,0.866,0.881,1.311
				c1.309,2.083,0.716,4.636-1.408,6.073C61.516,53.646,60.369,53.992,59.167,53.992z"/>
			<path fill="#FFFFFF" d="M43.199,10.35c10.496,0.005,20.991,0.005,31.487,0.005c0.074,0,0.146,0,0.216,0
				c-0.012,0.124-0.027,0.23-0.027,0.336c-0.004,3.385-0.006,6.771-0.009,10.157c0,0.026,0.006,0.054,0.009,0.082
				c-0.023,0.037-0.021,0.073-0.001,0.111c-0.003,0.066-0.005,0.132-0.008,0.197c-0.038,0.057-0.041,0.119-0.026,0.183
				c-0.008,0.113-0.014,0.226-0.02,0.338c-0.004,0.032-0.01,0.063-0.017,0.094c-0.007,0.041-0.016,0.082-0.022,0.123
				c-0.012,0.016-0.015,0.034-0.005,0.054c-0.007,0.053-0.01,0.106-0.016,0.159c-0.075,0.256-0.151,0.514-0.228,0.771l0.004-0.003
				c-0.012,0.021-0.024,0.042-0.036,0.064c-0.015,0.01-0.021,0.023-0.017,0.042c-0.016,0.023-0.029,0.045-0.045,0.068
				c-0.014,0.005-0.018,0.014-0.015,0.029c-0.018,0.027-0.036,0.056-0.054,0.084c-0.014,0.012-0.025,0.024-0.038,0.037
				c-0.088,0.081-0.176,0.162-0.265,0.244c-0.002,0-0.003,0-0.005,0c-0.01,0-0.015,0.006-0.013,0.017
				c-0.019,0.005-0.032,0.015-0.039,0.034c-0.023,0.009-0.047,0.017-0.07,0.026c-0.109,0.036-0.219,0.072-0.328,0.107
				c-0.074,0.007-0.148,0.013-0.224,0.019c-0.22-0.052-0.441-0.104-0.662-0.155c-0.148-0.092-0.294-0.184-0.441-0.275
				c-0.016-0.042-0.052-0.057-0.092-0.061c-0.024-0.017-0.048-0.035-0.072-0.052c-0.023-0.016-0.046-0.032-0.067-0.048
				c-0.034-0.021-0.066-0.042-0.1-0.063c-0.007-0.019-0.02-0.03-0.041-0.032c-0.051-0.053-0.102-0.107-0.179-0.12
				c-0.004-0.012-0.012-0.019-0.023-0.019c-0.002,0-0.003,0-0.005,0c-0.025-0.017-0.051-0.035-0.076-0.052
				c-0.063-0.069-0.129-0.132-0.227-0.147c-0.037-0.021-0.074-0.045-0.112-0.067c0.004-0.039-0.022-0.047-0.054-0.05l-0.004-0.003
				c-0.047-0.07-0.116-0.111-0.195-0.132l-0.002,0.001c-0.191-0.166-0.393-0.317-0.623-0.426c-0.008-0.02-0.02-0.029-0.042-0.032
				c-0.081-0.075-0.174-0.122-0.278-0.156c-0.021-0.01-0.043-0.02-0.066-0.028c-0.054-0.017-0.109-0.034-0.164-0.051l-0.003-0.003
				c-0.194-0.148-0.421-0.201-0.657-0.226l-0.012-0.012c0,0-0.014,0.008-0.015,0.008c-0.173-0.065-0.353-0.095-0.535-0.095
				c-0.032,0-0.065,0.001-0.099,0.003c-0.074,0-0.146,0-0.222,0c-0.072,0.003-0.146,0.006-0.218,0.01
				c-0.06,0.008-0.119,0.016-0.179,0.023c-0.015,0.003-0.03,0.008-0.046,0.012c-0.037,0.001-0.072,0.005-0.109,0.01
				c-0.252,0.032-0.496,0.077-0.719,0.206l0.001-0.002c-0.004,0-0.007,0-0.011,0c-0.047,0-0.088,0.013-0.119,0.052
				c-0.098,0.014-0.179,0.061-0.253,0.125c-0.003,0-0.006,0-0.01,0c-0.041,0-0.075,0.013-0.098,0.051l-0.003,0.002
				c-0.031,0.018-0.065,0.037-0.097,0.055c-0.044,0.027-0.087,0.055-0.13,0.081c-0.037,0.026-0.072,0.051-0.107,0.077l0.001-0.001
				c-0.021,0.017-0.044,0.032-0.067,0.049l0.005-0.005c-0.124,0.055-0.229,0.13-0.31,0.243c-0.021,0.018-0.043,0.037-0.064,0.056
				c-0.019,0.017-0.037,0.033-0.056,0.048c-0.019,0.02-0.036,0.038-0.056,0.055c-0.056,0.018-0.093,0.053-0.11,0.11
				c-0.019,0.018-0.035,0.037-0.054,0.055c-0.018,0.02-0.034,0.038-0.05,0.056c-0.021,0.021-0.04,0.043-0.058,0.065
				c-0.116,0.082-0.191,0.194-0.252,0.318c-0.025,0.032-0.051,0.063-0.074,0.094c-0.061,0.048-0.104,0.106-0.117,0.184
				c-0.082,0.076-0.144,0.164-0.164,0.275c-0.088,0.105-0.146,0.225-0.178,0.357c-0.139,0.21-0.209,0.445-0.261,0.689
				c-0.077,0.154-0.128,0.315-0.116,0.493c-0.039,0.048-0.058,0.103-0.041,0.166c-0.006,0.073-0.017,0.145-0.023,0.218
				c-0.043,0.05-0.039,0.109-0.03,0.168c-0.005,0.166-0.009,0.331-0.013,0.497c-0.039,0.091-0.026,0.183,0,0.274
				c0.004,0.11,0.008,0.222,0.01,0.333c-0.008,0.019-0.006,0.036,0.005,0.052c0.005,0.038,0.009,0.073,0.014,0.111
				c0.01,0.055,0.02,0.112,0.03,0.168c0.003,0.038,0.007,0.075,0.01,0.112c-0.008,0.059,0.004,0.113,0.041,0.161
				c0.002,0.193,0.072,0.371,0.132,0.551c0.032,0.135,0.067,0.269,0.147,0.386c0.006,0.02,0.01,0.039,0.016,0.058
				c0.011,0.02,0.021,0.04,0.033,0.059c-0.004,0.02,0.002,0.037,0.016,0.051c0.014,0.022,0.025,0.044,0.036,0.066
				c0.032,0.165,0.124,0.298,0.222,0.43c0.02,0.034,0.041,0.069,0.062,0.104l0.001,0.003c0.031,0.104,0.091,0.188,0.169,0.26
				c0.018,0.024,0.034,0.046,0.052,0.07c0.01,0.062,0.049,0.102,0.098,0.134c0,0.017,0.006,0.027,0.021,0.034
				c0.016,0.017,0.03,0.033,0.043,0.049l0.003,0.002c0.017,0.02,0.034,0.039,0.051,0.058c0.049,0.057,0.101,0.114,0.149,0.17
				c0.04,0.077,0.096,0.138,0.176,0.174c0,0.019,0.01,0.031,0.025,0.038c0.124,0.132,0.253,0.256,0.416,0.34l-0.002-0.003
				c0.021,0.017,0.041,0.033,0.063,0.05h0.002c0.059,0.072,0.13,0.122,0.219,0.149c0.008,0.015,0.021,0.023,0.038,0.023
				c0.001,0,0.002,0,0.003,0c0.132,0.122,0.297,0.179,0.456,0.249c0.076,0.028,0.141,0.086,0.227,0.086c0.008,0,0.016,0,0.024-0.001
				c0.028,0.034,0.065,0.047,0.108,0.047c0.008,0,0.017,0,0.024-0.001c0.023,0.005,0.049,0.01,0.074,0.014
				c0.164,0.103,0.351,0.108,0.534,0.133c0.045,0.01,0.089,0.019,0.133,0.019c0.035,0,0.07-0.005,0.104-0.021
				c0.102,0.044,0.204,0.059,0.307,0.059c0.165,0,0.331-0.039,0.496-0.056c0.039-0.01,0.078-0.02,0.116-0.031
				c0.013,0,0.025,0,0.039,0c0.133,0,0.262-0.026,0.378-0.103c0.025-0.006,0.051-0.011,0.075-0.016
				c0.012,0.001,0.023,0.002,0.035,0.002c0.037,0,0.069-0.01,0.093-0.048c0.005,0,0.011,0,0.016,0c0.071,0,0.129-0.039,0.188-0.072
				c0.025-0.013,0.049-0.025,0.074-0.038c0.003,0,0.006,0.001,0.009,0.001c0.012,0,0.021-0.005,0.028-0.017
				c0.027-0.012,0.055-0.025,0.084-0.037c0.004,0.002,0.007,0.002,0.01,0.002c0.007,0,0.012-0.004,0.015-0.013
				c0.026-0.016,0.055-0.031,0.08-0.045c0.003,0.001,0.006,0.001,0.009,0.001c0.01,0,0.018-0.005,0.023-0.017
				c0.068-0.008,0.123-0.042,0.166-0.098c0.046-0.002,0.081-0.023,0.104-0.062l0.004-0.002c0.182-0.082,0.334-0.208,0.486-0.332
				l0.008-0.004c0.02-0.016,0.041-0.029,0.063-0.045c0.018-0.013,0.035-0.025,0.055-0.039c0.035-0.023,0.07-0.049,0.104-0.072
				c0.022-0.017,0.045-0.033,0.065-0.048l-0.002,0.004c0.106-0.032,0.193-0.092,0.266-0.178h0.002
				c0.068-0.015,0.123-0.05,0.162-0.109l0.002-0.001c0.023-0.016,0.047-0.032,0.069-0.047c0.019,0,0.032-0.008,0.04-0.023
				c0.217-0.123,0.424-0.257,0.612-0.42c0.019-0.013,0.038-0.026,0.056-0.039c0.037-0.023,0.072-0.047,0.109-0.071
				c0.034-0.021,0.069-0.041,0.104-0.061c0.076-0.014,0.148-0.034,0.205-0.092l0.018-0.001c0.08-0.007,0.158-0.01,0.221-0.066
				c0.074-0.007,0.146-0.013,0.221-0.019l0.027,0.006l0.023-0.008c0.095,0.003,0.188,0.009,0.28,0.014
				c0.042,0.033,0.087,0.054,0.14,0.054c0.008,0,0.016,0,0.023-0.001c0.007,0.009,0.016,0.015,0.026,0.015
				c0.004,0,0.008,0,0.013-0.002c0.049,0.055,0.113,0.085,0.184,0.1l0.002,0.003c0.018,0.014,0.033,0.026,0.049,0.041
				c0.012,0.014,0.027,0.021,0.044,0.021c0.042,0.038,0.082,0.076,0.122,0.115c0.014,0.016,0.027,0.031,0.043,0.047
				c0.039,0.057,0.08,0.113,0.121,0.17c0.037,0.071,0.075,0.142,0.113,0.212c-0.004,0.06,0.018,0.111,0.06,0.155l0.001,0.009
				c0.037,0.126,0.072,0.252,0.108,0.377l0.001,0.008c-0.002,0.079,0,0.156,0.05,0.222c-0.004,0.112-0.002,0.226,0.049,0.33
				c0.003,0.193-0.017,0.388,0.053,0.575c-0.024,0.084-0.013,0.168,0.009,0.252c-0.021,0.053-0.021,0.107,0.001,0.16
				c0,1.855-0.001,3.708-0.002,5.562c0,1.478-0.005,2.955,0.006,4.434c0.003,0.235-0.048,0.306-0.3,0.306
				c-1.792-0.006-3.585-0.008-5.377-0.008c-1.355,0-2.711,0.001-4.066,0.003c-0.835,0.001-1.672,0.021-2.477,0.286
				c-0.744,0.246-1.262,0.713-1.362,1.528c-0.062,0.503,0.098,0.963,0.376,1.378c0.454,0.677,0.938,1.336,1.373,2.026
				c1.02,1.624,0.543,3.584-1.123,4.711c-0.822,0.556-1.79,0.828-2.757,0.828c-1.201,0-2.399-0.421-3.315-1.244
				c-1.283-1.152-1.5-2.995-0.526-4.416c0.463-0.673,0.933-1.34,1.368-2.031c0.627-0.995,0.309-2.136-0.712-2.641
				c-0.329-0.164-0.687-0.25-1.05-0.308c-0.609-0.097-1.223-0.12-1.838-0.12c-1.145,0-2.288,0-3.432,0c-2.142,0-4.283,0-6.425,0.005
				c-0.003,0-0.006,0-0.009,0c-0.221,0-0.302-0.036-0.302-0.293c0.012-3.259,0.006-6.517,0.01-9.775
				c0-0.569,0.038-1.136,0.162-1.693c0.008-0.037,0.016-0.072,0.025-0.107c0.14-0.5,0.391-0.755,0.729-0.755
				c0.19,0,0.409,0.081,0.652,0.245c0.607,0.412,1.214,0.824,1.816,1.243c0.786,0.544,1.659,0.809,2.526,0.809
				c1.31,0,2.604-0.604,3.554-1.764c1.865-2.281,1.679-5.884-0.41-7.949c-0.886-0.876-2.042-1.324-3.18-1.324
				c-0.944,0-1.875,0.308-2.629,0.935c-0.099,0.023-0.174,0.082-0.235,0.16c-0.031,0.021-0.063,0.041-0.095,0.06
				c-0.094,0.029-0.168,0.083-0.23,0.158l0.002-0.002c-0.444,0.295-0.89,0.59-1.334,0.884c-0.066,0.024-0.132,0.049-0.199,0.073
				c-0.11,0.012-0.221,0.024-0.332,0.035c-0.328-0.044-0.475-0.25-0.572-0.556c-0.201-0.641-0.246-1.298-0.248-1.957
				c-0.01-3.348-0.002-6.697-0.01-10.046C42.926,10.395,42.989,10.35,43.199,10.35 M74.902,10.355h0.005 M71.629,22.85
				c0.001,0,0.001,0,0.002,0.001v0L71.629,22.85 M74.537,22.957h0.005 M71.25,30.188h0.005 M70.363,30.79
				c-0.001,0.001-0.001,0.001-0.002,0.002H70.36L70.363,30.79 M43.2,8.35C43.2,8.35,43.2,8.35,43.2,8.35
				c-0.827,0-1.349,0.351-1.64,0.646c-0.292,0.295-0.64,0.818-0.632,1.639c0.004,1.562,0.004,3.137,0.004,4.712
				c0,1.774,0,3.549,0.006,5.322c0.002,0.69,0.042,1.604,0.34,2.55c0.494,1.547,1.711,1.871,2.212,1.938
				c0.089,0.012,0.179,0.018,0.269,0.018c0.064,0,0.128-0.003,0.192-0.009c0.12-0.012,0.24-0.024,0.359-0.038
				c0.158-0.017,0.313-0.053,0.462-0.107l0.144-0.053l0.064-0.023c0.146-0.054,0.285-0.125,0.415-0.21l0.38-0.252l0.888-0.589
				c0.071-0.043,0.14-0.091,0.205-0.144c0.015-0.009,0.029-0.018,0.043-0.026c0.061-0.038,0.106-0.066,0.151-0.097
				c0.042-0.028,0.083-0.058,0.122-0.088c0.097-0.057,0.19-0.121,0.277-0.193c0.469-0.391,0.993-0.473,1.349-0.473
				c0.648,0,1.294,0.272,1.774,0.746c1.347,1.332,1.472,3.79,0.268,5.261c-0.544,0.664-1.257,1.03-2.006,1.03
				c-0.479,0-0.959-0.157-1.387-0.453c-0.607-0.421-1.22-0.838-1.833-1.254c-0.579-0.392-1.175-0.589-1.774-0.589
				c-0.984,0-2.198,0.583-2.655,2.217c-0.02,0.071-0.038,0.148-0.055,0.228c-0.139,0.626-0.206,1.303-0.206,2.111l-0.001,3.493
				c0,2.092-0.001,4.184-0.008,6.275c0,1.358,0.947,2.301,2.302,2.301c2.154-0.005,4.294-0.005,6.434-0.005h1.715h1.717
				c0.432,0,0.994,0.011,1.524,0.095c0.11,0.018,0.206,0.037,0.285,0.058c-0.318,0.5-0.643,0.969-0.983,1.461l-0.242,0.352
				c-1.546,2.257-1.192,5.216,0.838,7.038c1.259,1.132,2.911,1.756,4.651,1.756c1.402,0,2.742-0.405,3.876-1.171
				c2.548-1.723,3.276-4.918,1.697-7.432c-0.298-0.473-0.607-0.919-0.907-1.351c-0.149-0.216-0.3-0.432-0.446-0.649
				c0.497-0.141,1.09-0.154,1.752-0.155c1.355-0.002,2.71-0.003,4.064-0.003c1.79,0,3.581,0.002,5.37,0.008
				c0.848,0,1.377-0.357,1.672-0.656c0.43-0.435,0.643-0.999,0.635-1.675c-0.008-1.111-0.007-2.232-0.007-3.353l0.001-1.056
				l0.002-5.562c0-0.031-0.001-0.062-0.002-0.092c0.003-0.087,0-0.175-0.009-0.263c0.005-0.172-0.013-0.345-0.052-0.514V30.92
				c-0.003-0.15-0.021-0.298-0.057-0.443c-0.011-0.121-0.031-0.243-0.063-0.361c-0.013-0.094-0.033-0.191-0.06-0.28l-0.04-0.141
				l-0.06-0.207c-0.023-0.089-0.054-0.177-0.09-0.262c-0.037-0.113-0.085-0.223-0.142-0.329l-0.098-0.183
				c-0.044-0.084-0.094-0.166-0.149-0.243l-0.095-0.133c-0.064-0.094-0.137-0.182-0.216-0.264c-0.038-0.043-0.05-0.056-0.091-0.095
				c-0.058-0.055-0.115-0.11-0.176-0.164c-0.081-0.073-0.167-0.138-0.257-0.196c-0.097-0.07-0.199-0.131-0.307-0.183
				c-0.142-0.087-0.293-0.156-0.449-0.205c-0.037-0.012-0.073-0.023-0.11-0.034c-0.188-0.069-0.385-0.11-0.586-0.12l-0.053-0.003
				l-0.261-0.012c-0.024-0.001-0.048-0.001-0.072-0.001c-0.04,0-0.079,0.001-0.118,0.003c-0.031,0.001-0.061,0.002-0.09,0.005
				L72.93,27.09c-0.158,0.015-0.313,0.048-0.463,0.099c-0.188,0.038-0.368,0.103-0.535,0.193c-0.094,0.038-0.186,0.082-0.272,0.133
				l-0.122,0.071c-0.019,0.011-0.036,0.022-0.055,0.034l-0.052,0.034l-0.042,0.027c-0.035,0.022-0.068,0.045-0.103,0.069
				c-0.063,0.042-0.137,0.099-0.193,0.148c-0.065,0.056-0.159,0.119-0.288,0.191c-0.016,0.009-0.03,0.018-0.046,0.027
				c-0.052,0.03-0.103,0.062-0.152,0.096l0.001,0c-0.041,0.026-0.081,0.054-0.12,0.083c-0.069,0.042-0.136,0.087-0.2,0.137
				c-0.103,0.056-0.199,0.121-0.289,0.194l-0.002-0.002c-0.013,0.008-0.051,0.035-0.063,0.044l-0.078,0.056
				c-0.017,0.011-0.031,0.022-0.046,0.033c-0.04,0.028-0.079,0.057-0.116,0.087c-0.042,0.034-0.077,0.064-0.112,0.09
				c-0.002,0.001-0.004,0.002-0.006,0.003c-0.054,0.027-0.105,0.056-0.156,0.087c-0.053,0.028-0.104,0.059-0.155,0.092
				c-0.025,0.013-0.05,0.026-0.075,0.04c0,0,0,0-0.001,0c-0.005,0.002-0.011,0.005-0.017,0.008c-0.035,0.015-0.07,0.03-0.105,0.047
				c-0.028,0.009-0.057,0.019-0.085,0.029c-0.066,0.016-0.132,0.036-0.195,0.059c-0.081,0.011-0.161,0.027-0.246,0.05
				c-0.007,0.001-0.015,0.002-0.022,0.003c-0.13-0.026-0.263-0.039-0.395-0.039c-0.02,0-0.039,0-0.059,0.001
				c-0.088-0.033-0.177-0.061-0.269-0.082c-0.045-0.015-0.09-0.029-0.136-0.042c-0.001,0-0.002,0-0.002,0l-0.049-0.021
				c-0.063-0.046-0.129-0.088-0.197-0.126c-0.068-0.054-0.141-0.103-0.216-0.147c-0.063-0.075-0.133-0.145-0.207-0.209l-0.055-0.063
				l-0.065-0.075c-0.007-0.008-0.026-0.03-0.038-0.043c-0.011-0.015-0.022-0.029-0.033-0.043c-0.018-0.026-0.035-0.051-0.054-0.076
				c-0.019-0.026-0.041-0.055-0.066-0.086c-0.013-0.024-0.025-0.048-0.039-0.071l-0.039-0.065c-0.026-0.047-0.062-0.103-0.096-0.154
				c-0.022-0.06-0.047-0.118-0.074-0.175c-0.011-0.025-0.021-0.051-0.032-0.076c-0.025-0.066-0.055-0.132-0.087-0.195
				c-0.011-0.04-0.022-0.081-0.032-0.109l-0.029-0.086l-0.011-0.033c-0.011-0.104-0.029-0.208-0.056-0.308
				c-0.006-0.05-0.013-0.101-0.021-0.143l-0.016-0.086c-0.003-0.09-0.006-0.182-0.009-0.271c-0.001-0.022-0.002-0.044-0.004-0.066
				c0.002-0.03,0.004-0.06,0.004-0.09l0.009-0.34c0.012-0.061,0.021-0.123,0.026-0.186c0.003-0.021,0.005-0.041,0.007-0.059
				c0.026-0.099,0.045-0.2,0.056-0.302c0.035-0.094,0.063-0.19,0.084-0.288c0.005-0.023,0.009-0.046,0.015-0.068
				c0.063-0.104,0.117-0.214,0.16-0.328c0.037-0.059,0.07-0.12,0.102-0.182c0.037-0.053,0.072-0.107,0.104-0.163l0.018-0.023
				c0.044-0.055,0.086-0.113,0.124-0.172c0.031-0.033,0.062-0.066,0.091-0.101c0.01-0.01,0.019-0.02,0.027-0.03l0.018-0.02
				c0.007-0.007,0.013-0.013,0.017-0.018c0.02-0.019,0.039-0.038,0.057-0.057c0.018-0.016,0.034-0.032,0.051-0.049
				c0.015-0.013,0.029-0.026,0.044-0.04l0.032-0.026c0.018-0.016,0.035-0.032,0.053-0.049c0.029-0.019,0.058-0.038,0.086-0.058
				c0.021-0.015,0.04-0.028,0.059-0.042c0.008-0.005,0.015-0.011,0.022-0.016l0.047-0.033l0.032-0.021l0.015-0.009l0.007-0.004
				c0.062-0.028,0.122-0.059,0.181-0.093c0.012-0.005,0.023-0.01,0.035-0.015c0.08-0.028,0.159-0.062,0.236-0.1
				c0.018-0.003,0.036-0.005,0.054-0.007c0.096-0.006,0.19-0.019,0.284-0.038l0.014,0l0.066-0.003h0.177c0.011,0,0.021,0,0.032,0
				c0.103,0.033,0.208,0.057,0.314,0.072c0.119,0.066,0.246,0.121,0.377,0.162l0.011,0.003c0.089,0.062,0.184,0.116,0.282,0.163
				c0.004,0.002,0.05,0.026,0.167,0.128c0.086,0.074,0.176,0.14,0.271,0.198c0.091,0.077,0.189,0.147,0.295,0.208l0.11,0.066
				c0.008,0.004,0.016,0.009,0.024,0.014c0.001,0,0.001,0.001,0.002,0.002l0.002,0.001c0.038,0.029,0.077,0.056,0.117,0.082
				c0.015,0.01,0.044,0.03,0.05,0.034c0.016,0.011,0.031,0.021,0.047,0.031c0.022,0.014,0.044,0.028,0.066,0.041
				c0.056,0.044,0.114,0.086,0.175,0.125l0.044,0.027c0.028,0.021,0.056,0.04,0.083,0.058l0.035,0.026
				c0.028,0.02,0.057,0.039,0.085,0.057c0.033,0.023,0.066,0.045,0.101,0.066l0.205,0.128l0.237,0.148
				c0.185,0.114,0.388,0.198,0.6,0.247l0.095,0.022l0.557,0.13c0.152,0.036,0.308,0.054,0.463,0.054
				c0.052,0,0.104-0.002,0.155-0.006c0.089-0.007,0.177-0.014,0.265-0.023c0.142-0.014,0.28-0.043,0.416-0.086l0.343-0.112
				c0.037-0.012,0.073-0.025,0.109-0.04l0.036-0.013c0.229-0.085,0.437-0.211,0.615-0.368c0.038-0.032,0.074-0.064,0.109-0.098
				l0.246-0.227c0.021-0.02,0.042-0.04,0.063-0.061c0.124-0.118,0.232-0.25,0.322-0.396l0.033-0.053
				c0.019-0.028,0.036-0.057,0.053-0.085c0.037-0.059,0.071-0.12,0.103-0.183c0.109-0.183,0.189-0.384,0.236-0.598l0.185-0.627
				c0.033-0.112,0.056-0.226,0.068-0.342l0.012-0.116c0.002-0.017,0.004-0.034,0.006-0.051c0.017-0.079,0.03-0.159,0.04-0.239
				c0.006-0.047,0.01-0.094,0.012-0.141c0.005-0.085,0.009-0.17,0.015-0.256c0.017-0.091,0.028-0.185,0.032-0.278l0.005-0.117
				l0.003-0.083c0.002-0.042,0.002-0.084,0.002-0.126c0.003-0.086,0-0.173-0.008-0.26l0.003-3.292l0.006-6.751
				c0.002-0.011,0.004-0.021,0.005-0.032l0.001-0.002v-0.003c0.016-0.1,0.024-0.203,0.024-0.308c0-1.104-0.894-2-1.998-2h-0.005
				h-0.216C64.19,8.355,53.696,8.355,43.2,8.35L43.2,8.35z"/>
		</g>
		<g>
			<path fill-rule="evenodd" clip-rule="evenodd" fill="#3279BE" d="M71.871,90.871c-0.387,0-0.659-0.195-0.776-0.279l-0.276-0.198
				c-1.224-0.88-2.447-1.759-3.681-2.623l-0.168-0.116c-0.312-0.216-0.623-0.432-0.926-0.662c0,0-0.297-0.202-0.31-0.212
				c-0.046-0.034-0.088-0.071-0.127-0.113c-0.104-0.042-0.153-0.07-0.236-0.145l-0.247-0.184l-0.579-0.401
				c-0.025-0.018-0.05-0.037-0.073-0.057c-0.027-0.015-0.055-0.031-0.081-0.049c-0.029-0.02-0.062-0.043-0.094-0.069
				c-0.053-0.027-0.104-0.06-0.151-0.097c-0.026-0.021-0.055-0.044-0.083-0.07c-0.058-0.036-0.112-0.078-0.161-0.126
				c-0.11-0.04-0.218-0.105-0.313-0.186c-0.016-0.012-0.149-0.125-0.149-0.125l-1.335-0.902c-0.08-0.056-0.151-0.123-0.213-0.198
				c-0.039-0.025-0.1-0.064-0.103-0.066l-0.232-0.175c-0.062-0.048-0.117-0.103-0.166-0.163c-0.015-0.012-0.26-0.247-0.264-0.251
				c-0.085-0.083-0.219-0.241-0.27-0.349c-0.102-0.084-0.13-0.117-0.192-0.233l-0.208-0.396c-0.039-0.074-0.069-0.152-0.089-0.234
				l-0.026-0.099c-0.013-0.042-0.035-0.157-0.042-0.2l-0.006-0.036c-0.009-0.043-0.016-0.087-0.019-0.13
				c-0.001-0.011-0.009-0.113-0.009-0.151c0-0.029,0.001-0.059,0.004-0.088c0.028-0.354,0.131-0.702,0.313-1.062
				c0.037-0.075,0.085-0.145,0.141-0.208c0.006-0.007,0.229-0.26,0.232-0.263c0.084-0.101,0.188-0.187,0.309-0.249
				c0.052-0.046,0.11-0.091,0.165-0.124l0.147-0.086c0.039-0.022,0.099-0.053,0.14-0.07l0.259-0.111
				c0.073-0.039,0.151-0.069,0.234-0.089c0.067-0.039,0.139-0.07,0.214-0.093c0.154-0.046,0.3-0.105,0.433-0.177
				c0.029-0.017,0.11-0.053,0.141-0.065c0.021-0.009,0.103-0.043,0.124-0.05c0.037-0.015,0.111-0.041,0.173-0.061
				c0.093-0.06,0.194-0.104,0.301-0.13c0.035-0.009,0.086-0.02,0.122-0.024c0.029-0.013,0.077-0.044,0.126-0.07
				c0.059-0.031,0.125-0.061,0.188-0.08c0.034-0.017,0.069-0.033,0.07-0.034c0.039-0.019,0.08-0.035,0.121-0.049
				c0.016-0.011,0.182-0.112,0.182-0.112c0.044-0.027,0.089-0.051,0.137-0.07c0.149-0.17,0.309-0.281,0.427-0.361
				c0.035-0.039,0.081-0.086,0.131-0.132c0.018-0.023,0.036-0.046,0.055-0.067c0.104-0.118,0.194-0.254,0.271-0.404
				c0.019-0.063,0.045-0.125,0.076-0.184c0,0,0.073-0.137,0.092-0.169c0.006-0.027,0.126-0.501,0.126-0.501
				c0.047-0.159,0.06-0.303,0.046-0.469l0.987-0.201l-0.996,0.093c-0.007-0.072-0.006-0.145,0.003-0.216
				c-0.011-0.04-0.019-0.081-0.024-0.121l-0.018-0.147c-0.01-0.033-0.017-0.066-0.022-0.101c-0.006-0.033-0.02-0.121-0.024-0.173
				c-0.016-0.038-0.063-0.192-0.068-0.216c-0.195-0.631-0.427-1.046-0.75-1.344c-0.075-0.069-0.145-0.163-0.2-0.264
				c-0.044-0.043-0.086-0.088-0.108-0.118l-0.194-0.183l-0.235-0.2c0,0-0.53-0.358-0.54-0.363c-0.013-0.007-0.265-0.158-0.295-0.175
				c-0.17-0.019-0.332-0.08-0.471-0.179c-0.069-0.015-0.136-0.035-0.2-0.063c-0.104-0.016-0.226-0.039-0.361-0.093
				c-0.01-0.004-0.02-0.008-0.028-0.012c-0.062-0.006-0.123-0.016-0.168-0.029c-0.024-0.007-0.102-0.03-0.125-0.039
				c-0.041,0.005-0.073,0.008-0.104,0.008c-0.035,0-0.311-0.019-0.355-0.024c-0.063-0.008-0.141-0.011-0.219-0.011
				c-0.334,0-0.628,0.048-0.897,0.146c-0.088,0.04-0.184,0.068-0.284,0.082c-0.014,0.009-0.028,0.017-0.042,0.024
				c-0.048,0.03-0.099,0.057-0.151,0.078l-0.165,0.069c-0.052,0.04-0.108,0.075-0.169,0.105c-0.229,0.112-0.438,0.29-0.641,0.543
				c-0.433,0.529-0.643,1.067-0.647,1.652c0,0.044-0.004,0.087-0.01,0.13c-0.025,0.184-0.009,0.402,0.01,0.656
				c0.002,0.022,0.003,0.047,0.004,0.072c0.01,0.079,0.011,0.159,0.002,0.238c0.006,0.063,0.005,0.126-0.001,0.188
				c0.008,0.079,0.006,0.159-0.005,0.239c0.011,0.049,0.012,0.106,0.016,0.156c0.004,0.044,0.007,0.117,0.004,0.161
				c0,0.043-0.003,0.108-0.009,0.17c0.005,0.03,0.009,0.061,0.011,0.091c0.001,0.012,0.006,0.101,0.006,0.113
				c0.003,0.071-0.002,0.146-0.015,0.22c0.001,0.015,0.003,0.029,0.004,0.045c0.014,0.085,0.018,0.172,0.01,0.26l-0.012,0.124
				c-0.002,0.026-0.039,0.248-0.039,0.248c-0.01,0.057-0.023,0.112-0.042,0.166l-0.149,0.429c-0.026,0.076-0.062,0.149-0.106,0.217
				l-0.102,0.16c-0.038,0.063-0.084,0.122-0.136,0.176l-0.267,0.274c-0.086,0.09-0.188,0.163-0.3,0.217l-0.287,0.137
				c-0.097,0.046-0.201,0.076-0.308,0.089l-0.513,0.059c-0.038,0.005-0.077,0.007-0.115,0.007c-0.066,0-0.133-0.007-0.198-0.02
				l-0.462-0.094c-0.083-0.018-0.256-0.063-0.332-0.1c-0.002-0.001-0.054-0.025-0.092-0.043c-0.034-0.012-0.081-0.026-0.082-0.026
				c-0.039-0.014-0.078-0.028-0.115-0.046c-0.021-0.01-0.065-0.032-0.066-0.032c-0.072-0.021-0.142-0.05-0.208-0.087
				c0,0-0.27-0.15-0.272-0.151l-0.105-0.05c-0.04-0.021-0.079-0.042-0.116-0.067c-0.058-0.022-0.113-0.051-0.166-0.084l-0.416-0.264
				l-8.611-5.692c-0.112-0.073-0.207-0.169-0.281-0.28c-0.08-0.119-0.136-0.26-0.159-0.401c-0.002-0.013-0.014-0.099-0.015-0.111
				c-0.038-0.313,0.075-0.626,0.303-0.844c0.16-0.152,0.297-0.368,0.457-0.618l0.836-1.27c1.367-2.064,2.734-4.13,4.09-6.2
				c0.19-0.293,0.354-0.608,0.52-0.923c0.085-0.161,0.278-0.521,0.281-0.521c0,0,0,0.001,0.001,0.001
				c0.012-0.085,0.036-0.169,0.069-0.248c0.003-0.009,0.04-0.09,0.044-0.099c-0.005-0.089,0.013-0.132,0.031-0.219
				c0.058-0.318-0.001-0.446-0.072-0.544c-0.008-0.012-0.093-0.131-0.095-0.132c-0.206-0.195-0.45-0.282-0.793-0.282l-0.653,0.004
				c-0.48,0.002-0.96,0.003-1.438,0.029c-0.087,0.004-0.174,0.007-0.259,0.007c-2.308,0-4.105-1.657-4.37-4.03
				c-0.327-2.946,1.924-5.934,4.817-6.395c0.255-0.041,0.507-0.06,0.754-0.06c1.772,0,3.304,1.044,3.997,2.727l0.388,0.946
				c0.157,0.388,0.314,0.775,0.477,1.16c0.174,0.413,0.472,0.66,0.795,0.66c0.066,0,0.136-0.01,0.205-0.03
				c0.252-0.07,0.488-0.242,0.815-0.594c0.312-0.336,0.618-0.734,0.936-1.219l1.429-2.163c1.289-1.952,2.578-3.902,3.861-5.857
				c0.348-0.533,0.781-0.646,1.083-0.646c0.388,0,0.678,0.193,0.773,0.256l3.348,2.213c1.687,1.114,3.374,2.228,5.057,3.348
				c0.555,0.37,1.136,0.778,1.624,1.337c0.065,0.073,0.123,0.139,0.178,0.208c0.481,0.63,0.481,1.187,0.398,1.545
				c-0.084,0.357-0.331,0.855-1.032,1.201c-0.22,0.107-0.445,0.199-0.67,0.29L71.8,55.229c-0.289,0.121-0.578,0.242-0.873,0.351
				c-1.893,0.697-2.748,2.637-2.033,4.61c0.686,1.893,2.666,3.267,4.709,3.267c0.38,0,0.754-0.048,1.111-0.142
				c1.591-0.416,2.599-1.747,2.566-3.391c-0.015-0.736-0.022-1.473-0.03-2.208c-0.004-0.183,0.009-0.343,0.037-0.499
				c0.2-1.098,0.99-1.49,1.664-1.49c0.166,0,0.341,0.021,0.521,0.064c0.536,0.13,1.07,0.37,1.633,0.736
				c1.749,1.137,3.492,2.284,5.237,3.432l1.397,0.923c0.702,0.464,1.403,0.929,2.109,1.388c0.322,0.21,0.52,0.479,0.587,0.801
				c0.066,0.321-0.005,0.646-0.215,0.965c-5.783,8.746-11.56,17.492-17.329,26.242C72.549,90.794,72.105,90.871,71.871,90.871z"/>
			<path fill="#FFFFFF" d="M62.712,45.586c0.062,0,0.131,0.03,0.22,0.089c2.801,1.856,5.607,3.699,8.404,5.561
				c0.509,0.34,1.016,0.694,1.424,1.162c0.049,0.055,0.098,0.108,0.143,0.166c0.383,0.5,0.283,0.953-0.287,1.234
				c-0.279,0.137-0.574,0.245-0.861,0.365c-0.39,0.16-0.775,0.331-1.172,0.477c-2.519,0.928-3.498,3.49-2.629,5.89
				c0.852,2.349,3.229,3.926,5.649,3.926c0.457,0,0.915-0.057,1.364-0.174c2.03-0.531,3.354-2.284,3.313-4.378
				c-0.015-0.734-0.022-1.469-0.03-2.202c-0.002-0.102,0.002-0.202,0.021-0.302c0.081-0.448,0.309-0.674,0.681-0.674
				c0.087,0,0.183,0.013,0.286,0.037c0.479,0.115,0.915,0.337,1.321,0.602c1.785,1.16,3.563,2.33,5.342,3.501
				c1.135,0.746,2.264,1.5,3.402,2.241c0.18,0.117,0.201,0.197,0.082,0.379c-5.781,8.744-11.559,17.49-17.328,26.24
				c-0.069,0.104-0.126,0.145-0.186,0.145c-0.058,0-0.117-0.037-0.193-0.092c-1.318-0.947-2.637-1.896-3.967-2.828
				c-0.357-0.248-0.718-0.492-1.064-0.758L66.64,86.17l-0.022,0.002c-0.078-0.053-0.158-0.105-0.236-0.158
				c-0.015-0.01-0.031-0.021-0.047-0.033c-0.084-0.089-0.186-0.158-0.299-0.205c-0.018-0.016-0.032-0.029-0.049-0.043
				c-0.031-0.028-0.063-0.056-0.096-0.084c-0.088-0.06-0.178-0.119-0.266-0.178c-0.169-0.119-0.339-0.236-0.509-0.354
				c-0.037-0.068-0.095-0.106-0.171-0.116c-0.032-0.021-0.065-0.043-0.098-0.064c-0.015-0.039-0.043-0.059-0.082-0.059
				c-0.002,0-0.004,0-0.006,0c-0.026-0.021-0.055-0.04-0.082-0.061c-0.012-0.038-0.033-0.066-0.076-0.066c-0.002,0-0.004,0-0.006,0
				c-0.113-0.109-0.241-0.2-0.391-0.255l-0.008-0.019h-0.02c-0.033-0.027-0.065-0.057-0.099-0.086
				c-0.331-0.225-0.663-0.449-0.994-0.674c-0.138-0.094-0.274-0.188-0.413-0.283c-0.082-0.13-0.215-0.199-0.338-0.279
				c-0.056-0.043-0.111-0.086-0.167-0.129c-0.019-0.066-0.067-0.102-0.125-0.129c-0.053-0.051-0.104-0.102-0.158-0.151
				c-0.04-0.04-0.083-0.079-0.123-0.118H61.76c-0.051-0.109-0.121-0.201-0.213-0.276c-0.07-0.132-0.138-0.262-0.207-0.393
				c-0.012-0.049-0.025-0.099-0.039-0.146c-0.008-0.03-0.012-0.061-0.017-0.091c-0.005-0.022-0.007-0.043-0.011-0.065l-0.002-0.004
				c-0.002-0.026-0.004-0.052-0.006-0.077c0.019-0.248,0.098-0.478,0.209-0.697c0.028-0.032,0.055-0.064,0.082-0.097
				c0.051-0.055,0.1-0.109,0.15-0.166c0.012,0,0.02-0.007,0.018-0.021c0.087-0.03,0.155-0.088,0.217-0.153
				c0.051-0.03,0.104-0.061,0.154-0.09c0.043-0.018,0.086-0.037,0.129-0.054c0.017-0.009,0.033-0.019,0.049-0.027
				c0.045-0.017,0.09-0.033,0.135-0.05c0.016-0.001,0.029-0.008,0.037-0.023c0.097-0.014,0.188-0.039,0.264-0.105
				c0.217-0.064,0.426-0.149,0.625-0.258c0.036-0.016,0.072-0.03,0.11-0.047c0.04-0.014,0.082-0.03,0.124-0.047
				c0.098-0.02,0.191-0.054,0.27-0.12l0.016-0.004c0.17-0.023,0.318-0.102,0.465-0.181l0.006-0.004
				c0.02-0.006,0.039-0.011,0.059-0.016c0.051-0.023,0.102-0.049,0.152-0.073c0.094-0.02,0.18-0.054,0.25-0.123
				c0.049-0.029,0.098-0.06,0.146-0.09c0.121-0.044,0.227-0.108,0.314-0.202c0.084-0.121,0.203-0.197,0.32-0.276
				c0.08-0.014,0.113-0.076,0.148-0.138c0.025-0.029,0.048-0.057,0.072-0.086c0.055-0.025,0.098-0.059,0.117-0.118
				c0.172-0.195,0.314-0.413,0.43-0.647c0.035-0.032,0.058-0.072,0.047-0.125c0.032-0.06,0.063-0.119,0.094-0.178
				c0.063-0.079,0.078-0.176,0.098-0.271c0.039-0.147,0.074-0.294,0.113-0.441c0.078-0.264,0.098-0.532,0.076-0.804V75.84
				c-0.002-0.027-0.004-0.053-0.006-0.078v0.002c-0.003-0.027-0.005-0.054-0.008-0.08l0.004,0.002
				c0.023-0.118,0.014-0.233-0.027-0.347c-0.006-0.042-0.012-0.085-0.016-0.128c0.01-0.053,0.008-0.102-0.028-0.146l-0.001-0.006
				c-0.004-0.023-0.009-0.047-0.013-0.07c-0.005-0.109-0.021-0.217-0.074-0.316c-0.005-0.018-0.009-0.036-0.014-0.053
				c0.005-0.012,0.001-0.021-0.01-0.028l0.005-0.015l-0.011-0.008c-0.208-0.681-0.499-1.313-1.034-1.807
				c-0.018-0.018-0.021-0.051-0.029-0.076c-0.008-0.049-0.036-0.078-0.08-0.101c-0.024-0.021-0.05-0.044-0.074-0.065
				c-0.014-0.019-0.026-0.039-0.039-0.057c-0.068-0.064-0.134-0.129-0.202-0.195c-0.028-0.025-0.058-0.052-0.087-0.078
				c-0.084-0.072-0.168-0.143-0.252-0.215c-0.044-0.033-0.088-0.068-0.132-0.102c-0.167-0.111-0.335-0.225-0.503-0.338
				c-0.012-0.016-0.027-0.025-0.047-0.026c-0.031-0.019-0.064-0.037-0.1-0.056c-0.188-0.109-0.366-0.246-0.598-0.253
				c-0.017-0.017-0.033-0.033-0.05-0.05c-0.101-0.068-0.21-0.109-0.331-0.115c-0.118-0.08-0.265-0.055-0.39-0.104
				c-0.067-0.057-0.145-0.074-0.227-0.074c-0.019,0-0.038,0.001-0.058,0.003c-0.017-0.005-0.035-0.01-0.054-0.016
				c-0.107-0.04-0.216-0.063-0.328-0.063c-0.035,0-0.069,0.003-0.104,0.007c-0.041-0.006-0.081-0.012-0.121-0.016
				c-0.042,0-0.084,0-0.125,0c-0.021-0.003-0.039-0.007-0.057-0.01c-0.1-0.006-0.198-0.01-0.297-0.01
				c-0.45,0-0.89,0.067-1.315,0.234c0,0,0.001,0,0.001,0.002c-0.146,0.01-0.277,0.061-0.396,0.143
				c-0.02,0.001-0.034,0.01-0.043,0.025c-0.064,0.026-0.127,0.053-0.189,0.08c-0.082,0.02-0.154,0.055-0.207,0.123
				c-0.393,0.193-0.709,0.478-0.979,0.815c-0.54,0.661-0.859,1.405-0.867,2.269c-0.044,0.314-0.015,0.627,0.009,0.943
				c-0.007,0.018-0.006,0.033,0.003,0.051c-0.028,0.067-0.024,0.135-0.002,0.203c-0.012,0.064-0.032,0.129,0,0.193
				c-0.017,0.115-0.021,0.229,0.006,0.344c0.003,0.019,0.003,0.039,0.006,0.059c-0.002,0.034-0.002,0.07-0.002,0.105v0.018
				c-0.021,0.089-0.032,0.179,0.005,0.267c0.002,0.027,0.003,0.058,0.004,0.085c-0.03,0.112-0.023,0.226,0,0.34
				c-0.009,0.016-0.009,0.031,0.002,0.049c-0.004,0.042-0.008,0.084-0.012,0.128c-0.01,0.058-0.02,0.114-0.029,0.173
				c-0.05,0.143-0.1,0.287-0.149,0.431c-0.04,0.062-0.079,0.122-0.117,0.185c-0.092,0.095-0.185,0.188-0.274,0.282
				c-0.098,0.046-0.193,0.093-0.29,0.139c-0.168,0.021-0.339,0.038-0.507,0.058c-0.154-0.031-0.308-0.063-0.462-0.094
				c-0.03-0.006-0.06-0.012-0.092-0.018c-0.04-0.02-0.081-0.037-0.122-0.058c-0.012-0.015-0.027-0.021-0.045-0.021
				c-0.002,0-0.003,0-0.004,0c-0.043-0.015-0.086-0.028-0.131-0.043l-0.006-0.016l-0.019,0.005c-0.019-0.01-0.038-0.02-0.057-0.03
				c-0.031-0.027-0.065-0.05-0.106-0.05c-0.009,0-0.018,0.001-0.027,0.003c-0.088-0.049-0.176-0.099-0.266-0.148
				C54.553,78.01,54.537,78,54.519,78c-0.039-0.018-0.075-0.035-0.113-0.054c-0.048-0.062-0.108-0.095-0.187-0.098
				c-0.141-0.089-0.279-0.178-0.42-0.266c-2.863-1.894-5.727-3.786-8.59-5.679l-0.004-0.006c-0.004-0.024-0.007-0.048-0.01-0.072
				c0.322-0.307,0.531-0.694,0.773-1.058c1.588-2.399,3.18-4.8,4.756-7.207c0.305-0.469,0.547-0.979,0.817-1.471
				c0.065-0.118,0.128-0.237,0.138-0.377c0.014-0.032,0.029-0.065,0.044-0.098c0.052-0.13,0.099-0.263,0.09-0.406
				c0.005-0.023,0.008-0.047,0.013-0.069c0.084-0.457,0.023-0.886-0.256-1.269l-0.005-0.006c-0.021-0.029-0.039-0.06-0.058-0.089
				c-0.025-0.024-0.049-0.051-0.076-0.075c-0.004-0.048-0.031-0.079-0.075-0.098c-0.417-0.396-0.919-0.557-1.481-0.557
				c-0.009,0-0.017,0-0.025,0c-0.707,0.009-1.415-0.004-2.119,0.034c-0.069,0.004-0.137,0.006-0.205,0.006
				c-1.809,0-3.173-1.317-3.376-3.141c-0.269-2.424,1.59-4.916,3.98-5.297c0.202-0.032,0.401-0.048,0.597-0.048
				c1.366,0,2.523,0.776,3.072,2.107c0.292,0.703,0.572,1.411,0.867,2.113c0.339,0.805,0.994,1.272,1.717,1.272
				c0.156,0,0.316-0.022,0.477-0.067c0.521-0.146,0.916-0.489,1.275-0.875c0.388-0.418,0.727-0.874,1.04-1.351
				c1.765-2.674,3.532-5.344,5.29-8.021C62.551,45.65,62.622,45.586,62.712,45.586 M61.266,81.574L61.266,81.574v0.002V81.574
				 M62.712,43.586c-0.449,0-1.297,0.143-1.923,1.103c-1.278,1.948-2.566,3.897-3.854,5.848l-1.429,2.165
				c-0.289,0.439-0.563,0.796-0.838,1.092c-0.076,0.082-0.138,0.143-0.187,0.188c-0.15-0.358-0.297-0.72-0.444-1.082
				c-0.13-0.318-0.259-0.638-0.392-0.955c-0.848-2.059-2.734-3.341-4.919-3.341c-0.301,0-0.608,0.024-0.912,0.073
				c-3.453,0.55-6.042,3.981-5.653,7.493c0.318,2.851,2.574,4.92,5.364,4.92c0.104,0,0.208-0.003,0.313-0.009
				c0.444-0.024,0.902-0.025,1.387-0.027c0.189-0.001,0.378-0.001,0.567-0.003c-0.019,0.053-0.035,0.106-0.049,0.161
				c-0.081,0.148-0.151,0.282-0.221,0.415c-0.163,0.31-0.317,0.602-0.476,0.847c-1.351,2.063-2.717,4.126-4.082,6.188l-0.666,1.006
				c-0.06,0.089-0.121,0.186-0.182,0.281c-0.108,0.17-0.23,0.363-0.302,0.431c-0.458,0.436-0.683,1.061-0.607,1.687
				c0.006,0.052,0.013,0.101,0.021,0.151c0.045,0.282,0.15,0.553,0.309,0.791c0.148,0.223,0.343,0.419,0.566,0.567l0.064,0.042
				l8.525,5.636c0.015,0.01,0.029,0.019,0.044,0.028l0.257,0.162l0.154,0.098c0.075,0.048,0.154,0.091,0.235,0.128
				c0.047,0.027,0.095,0.054,0.144,0.077c0.031,0.016,0.062,0.03,0.093,0.045l0.104,0.059l0.133,0.073
				c0.104,0.059,0.212,0.106,0.323,0.145c0.006,0.002,0.012,0.005,0.017,0.007c0.073,0.035,0.148,0.064,0.226,0.09l0.021,0.007
				l0.01,0.005c0.152,0.07,0.368,0.146,0.534,0.177c0.001,0,0.068,0.014,0.069,0.014l0.213,0.043l0.232,0.047
				c0.131,0.026,0.264,0.04,0.396,0.04c0.077,0,0.154-0.005,0.23-0.014l0.197-0.021l0.321-0.037
				c0.214-0.026,0.422-0.087,0.615-0.179l0.134-0.064l0.149-0.071c0.226-0.105,0.429-0.253,0.601-0.434l0.148-0.152l0.111-0.114
				c0.104-0.106,0.194-0.225,0.271-0.351l0.085-0.135c0.089-0.136,0.16-0.282,0.214-0.436l0.05-0.144l0.098-0.283
				c0.038-0.107,0.066-0.218,0.085-0.33l0.019-0.108l0.01-0.06c0.009-0.052,0.016-0.104,0.021-0.157l0.011-0.113
				c0.008-0.087,0.01-0.176,0.007-0.263c-0.001-0.05-0.003-0.099-0.007-0.147c0.007-0.08,0.009-0.16,0.006-0.24
				c-0.002-0.056-0.005-0.108-0.008-0.157c-0.001-0.009-0.002-0.019-0.002-0.027c0.001-0.032,0.002-0.064,0.002-0.097
				c0.006-0.108,0.003-0.223-0.009-0.333c-0.002-0.019-0.004-0.037-0.006-0.056c0.006-0.078,0.006-0.155,0.003-0.233
				c0.003-0.06,0.003-0.119,0-0.179c0.006-0.087,0.005-0.175-0.001-0.262c-0.001-0.02-0.002-0.038-0.004-0.058l-0.005-0.076
				c-0.013-0.163-0.028-0.366-0.018-0.443c0.013-0.085,0.019-0.172,0.02-0.258c0.002-0.241,0.052-0.575,0.416-1.021
				c0.121-0.151,0.22-0.24,0.314-0.287c0.074-0.036,0.146-0.077,0.215-0.123l0.056-0.023c0.058-0.023,0.114-0.05,0.17-0.079
				c0.104-0.025,0.203-0.06,0.299-0.101c0.151-0.05,0.325-0.075,0.527-0.075c0.029,0,0.059,0.001,0.088,0.002
				c0.088,0.012,0.177,0.018,0.266,0.018h0.007c0.059,0.006,0.12,0.011,0.183,0.013c0.061,0.017,0.123,0.03,0.187,0.042
				c0.141,0.049,0.268,0.078,0.368,0.097c0.021,0.007,0.041,0.014,0.062,0.021c0.16,0.09,0.331,0.157,0.51,0.2l0.062,0.037
				c0.024,0.015,0.049,0.028,0.074,0.041c0.011,0.007,0.021,0.013,0.032,0.019l0.382,0.257l0.007,0.006l0.033,0.025l0.093,0.079
				l0.115,0.098l0.02,0.018l0.025,0.024l0.041,0.04c0.015,0.018,0.029,0.035,0.044,0.053c0.078,0.121,0.169,0.233,0.272,0.336
				c0.02,0.02,0.039,0.038,0.059,0.057c0.188,0.174,0.336,0.457,0.477,0.921c0.002,0.005,0.004,0.011,0.006,0.016l0.01,0.038
				c0.007,0.026,0.015,0.053,0.023,0.078c0.001,0.011,0.003,0.021,0.005,0.031c0.002,0.014,0.011,0.063,0.014,0.075
				c0.005,0.03,0.012,0.061,0.019,0.091c0.005,0.044,0.011,0.089,0.018,0.133c0.001,0.011,0.003,0.021,0.004,0.031
				c-0.001,0.085,0.003,0.171,0.012,0.258l0.004,0.032l0.002,0.024c0,0.014,0.001,0.027,0.002,0.041c0.005,0.057,0,0.078,0,0.078
				c-0.006,0.019-0.011,0.036-0.016,0.056l-0.063,0.243L64.65,76.53l-0.028,0.056c-0.046,0.084-0.085,0.17-0.117,0.259
				c-0.026,0.045-0.055,0.086-0.084,0.122c-0.046,0.044-0.091,0.089-0.133,0.137c-0.105,0.075-0.227,0.171-0.352,0.291
				c-0.02,0.012-0.039,0.023-0.059,0.036l-0.102,0.062c-0.036,0.015-0.072,0.031-0.108,0.048l-0.014,0.007
				c-0.1,0.036-0.196,0.079-0.29,0.13c-0.158,0.04-0.314,0.101-0.462,0.178c-0.023,0.008-0.046,0.017-0.069,0.025
				c-0.052,0.018-0.138,0.052-0.188,0.074l-0.105,0.044c-0.055,0.024-0.109,0.051-0.162,0.079c-0.072,0.039-0.15,0.071-0.239,0.098
				c-0.104,0.031-0.205,0.07-0.303,0.117c-0.089,0.028-0.176,0.063-0.26,0.104c-0.074,0.027-0.146,0.059-0.216,0.095
				c-0.083,0.034-0.187,0.083-0.265,0.128l-0.179,0.104c-0.082,0.049-0.161,0.104-0.235,0.164c-0.182,0.111-0.343,0.25-0.479,0.408
				l-0.112,0.124c-0.021,0.022-0.04,0.045-0.06,0.067c-0.002,0.003-0.031,0.038-0.034,0.041c-0.111,0.126-0.23,0.296-0.307,0.445
				c-0.236,0.467-0.372,0.925-0.415,1.398c-0.006,0.066-0.01,0.134-0.01,0.202v0.002c0,0.062,0.003,0.122,0.008,0.183l0.003,0.031
				c0.005,0.072,0.015,0.145,0.027,0.217c0.003,0.016,0.006,0.036,0.01,0.06c0.014,0.085,0.03,0.165,0.051,0.246
				c0.005,0.02,0.011,0.04,0.017,0.06l0.014,0.053c0.04,0.163,0.1,0.321,0.178,0.47l0.086,0.163l0.124,0.234
				c0.08,0.149,0.179,0.288,0.293,0.413c0.086,0.135,0.188,0.26,0.306,0.37l0.052,0.049l0.038,0.036
				c0.019,0.019,0.047,0.046,0.066,0.063l0.065,0.063l0.052,0.051c0.006,0.005,0.011,0.01,0.016,0.015
				c0.083,0.094,0.175,0.18,0.275,0.257l0.166,0.129c0.041,0.031,0.082,0.061,0.125,0.089c0.091,0.094,0.191,0.179,0.3,0.254
				l0.423,0.29l0.497,0.337l0.398,0.27c0.018,0.016,0.035,0.03,0.052,0.044c0.079,0.065,0.163,0.124,0.251,0.176
				c0.05,0.031,0.103,0.062,0.155,0.088c0.022,0.019,0.044,0.036,0.066,0.053c0.032,0.027,0.065,0.054,0.099,0.079
				c0.009,0.007,0.052,0.038,0.061,0.045c0.056,0.043,0.113,0.083,0.173,0.12c0.009,0.006,0.018,0.013,0.027,0.019l0.061,0.04
				c0.031,0.021,0.063,0.041,0.096,0.061c0.026,0.02,0.053,0.039,0.08,0.058l0.14,0.098l0.358,0.25
				c0.014,0.01,0.028,0.02,0.043,0.029l0.055,0.037l0.099,0.065c0.016,0.014,0.03,0.026,0.046,0.039
				c0.107,0.096,0.222,0.177,0.344,0.245c0.024,0.021,0.05,0.04,0.075,0.059c0.046,0.034,0.095,0.068,0.138,0.098l0.117,0.079
				l0.073,0.049c0.307,0.233,0.623,0.453,0.939,0.671l0.169,0.118c1.224,0.856,2.443,1.733,3.662,2.609l0.278,0.199
				c0.162,0.116,0.651,0.468,1.36,0.468c0.35,0,1.23-0.102,1.853-1.039c5.771-8.754,11.549-17.499,17.329-26.243
				c0.453-0.689,0.446-1.317,0.361-1.724s-0.331-0.984-1.019-1.433c-0.705-0.459-1.403-0.921-2.103-1.384l-1.294-0.854l-0.107-0.071
				c-1.746-1.149-3.491-2.297-5.243-3.436c-0.657-0.429-1.294-0.713-1.943-0.869c-0.256-0.062-0.51-0.093-0.754-0.093
				c-1.354,0-2.393,0.909-2.648,2.316c-0.04,0.212-0.058,0.443-0.053,0.697c0.008,0.725,0.016,1.465,0.03,2.204
				c0.023,1.164-0.691,2.107-1.819,2.403c-0.275,0.071-0.564,0.108-0.858,0.108c-1.637,0-3.222-1.097-3.77-2.607
				c-0.445-1.229-0.173-2.737,1.44-3.331c0.307-0.113,0.61-0.24,0.914-0.367l0.327-0.137l0.247-0.101
				c0.247-0.1,0.494-0.201,0.732-0.318c0.826-0.407,1.382-1.071,1.569-1.873c0.188-0.803-0.017-1.646-0.573-2.373
				c-0.078-0.101-0.15-0.184-0.225-0.267c-0.567-0.65-1.21-1.102-1.818-1.509c-1.688-1.123-3.376-2.238-5.064-3.353
				c-1.115-0.737-2.231-1.474-3.347-2.212C63.616,43.729,63.17,43.586,62.712,43.586L62.712,43.586z"/>
		</g>
	</g>
</g>
</svg>
