<?xml version="1.0" encoding="utf-8"?>
<!-- Generator: Adobe Illustrator 16.0.0, SVG Export Plug-In . SVG Version: 6.00 Build 0)  -->
<!DOCTYPE svg PUBLIC "-//W3C//DTD SVG 1.1//EN" "http://www.w3.org/Graphics/SVG/1.1/DTD/svg11.dtd">
<svg version="1.1" xmlns="http://www.w3.org/2000/svg" xmlns:xlink="http://www.w3.org/1999/xlink" x="0px" y="0px" width="100px"
	 height="100px" viewBox="0 0 100 100" enable-background="new 0 0 100 100" xml:space="preserve">
<g id="Layer_1" opacity="0">
	<rect opacity="0" width="100" height="100"/>
</g>
<g id="Layer_2">
	<g>
		<g>
			<path fill-rule="evenodd" clip-rule="evenodd" fill="#FFFFFF" d="M9.917,76.357c-0.366,0-0.696-0.149-0.931-0.42
				c-0.167-0.193-0.254-0.443-0.243-0.698l0.009-0.259V43.394c0-0.385,0.221-0.736,0.568-0.902c0.189-0.09,0.393-0.134,0.623-0.134
				c0.014,0,10.233-0.007,10.233-0.007c0.4,0,0.787-0.033,1.152-0.097c0.08-0.028,0.167-0.054,0.228-0.061
				c0,0,0.022-0.003,0.048-0.006c0.063-0.022,0.127-0.039,0.193-0.048c0.323-0.047,0.565-0.211,0.681-0.463
				c0.123-0.268,0.083-0.595-0.11-0.898c-0.402-0.631-0.769-1.198-1.173-1.73c-0.773-1.024-1.081-2.242-0.869-3.432
				c0.222-1.244,0.983-2.338,2.142-3.083c0.951-0.61,2.06-0.933,3.209-0.933c1.342,0,2.655,0.448,3.697,1.262
				c1.917,1.497,2.306,4.035,0.922,6.034c-0.4,0.579-0.794,1.16-1.188,1.742c-0.271,0.398-0.286,0.63-0.274,0.771
				c0.024,0.279,0.129,0.5,0.561,0.671c0.705,0.277,1.517,0.279,2.377,0.281l8.968,0.002c1.211,0,1.662,0.452,1.662,1.669l0,2.256
				c0.001,2.333,0.002,4.667-0.006,6.998c-0.001,0.661-0.021,1.432-0.233,2.201c-0.378,1.368-1.386,1.475-1.687,1.475
				c-0.395,0-0.799-0.139-1.202-0.412l-1.845-1.253c-0.602-0.409-1.283-0.625-1.971-0.625c-0.909,0-1.782,0.377-2.458,1.063
				c-0.912,0.924-1.408,2.243-1.359,3.618c0.048,1.372,0.634,2.649,1.606,3.504c0.616,0.542,1.408,0.841,2.228,0.841
				c0.704,0,1.379-0.216,1.953-0.624c0.624-0.44,1.255-0.867,1.888-1.289c0.388-0.256,0.765-0.38,1.156-0.38
				c0.255,0,0.506,0.055,0.746,0.163c0.126,0.058,0.238,0.14,0.33,0.242c0.092,0.063,0.173,0.143,0.24,0.234l0.091,0.129
				c0.05,0.075,0.09,0.157,0.118,0.242c0.046,0.082,0.083,0.171,0.107,0.263c0.028,0.058,0.051,0.118,0.067,0.181
				c0.026,0.062,0.046,0.127,0.059,0.194c0.147,0.754,0.163,1.493,0.166,2.126c0.009,2.4,0.008,4.799,0.007,7.196l-0.001,2.515
				c0,0,0.013,0.183,0.014,0.204c0.026,0.136,0.026,0.275-0.004,0.407c-0.095,0.423-0.463,0.795-0.895,0.836
				c0,0-0.324,0.022-0.331,0.022l-0.42-0.012l-30.665-0.003C10.058,76.352,9.986,76.357,9.917,76.357z"/>
			<path fill="#3279BE" d="M25.677,32.599c1.098,0,2.193,0.356,3.082,1.05c1.504,1.174,1.799,3.111,0.716,4.677
				c-0.402,0.581-0.798,1.166-1.194,1.75c-0.291,0.427-0.487,0.893-0.442,1.417c0.066,0.752,0.503,1.242,1.187,1.514
				c0.899,0.354,1.85,0.35,2.794,0.352c1.42,0.002,2.841,0.003,4.261,0.003c1.553,0,3.106-0.001,4.66-0.001
				c0.662,0,0.662,0,0.662,0.669c0,3.083,0.005,6.168-0.005,9.251c-0.001,0.648-0.021,1.301-0.197,1.938
				c-0.135,0.488-0.386,0.741-0.723,0.741c-0.188,0-0.404-0.079-0.641-0.24c-0.614-0.417-1.229-0.833-1.843-1.251
				c-0.788-0.536-1.666-0.799-2.534-0.799c-1.149,0-2.282,0.461-3.17,1.359c-2.316,2.348-2.175,6.401,0.298,8.576
				c0.822,0.724,1.854,1.09,2.888,1.09c0.885,0,1.771-0.268,2.532-0.809c0.614-0.434,1.237-0.855,1.862-1.271
				c0.188-0.125,0.389-0.213,0.603-0.213c0.107,0,0.218,0.022,0.333,0.074c0.045,0.067,0.099,0.123,0.174,0.153
				c0.023,0.032,0.047,0.063,0.068,0.096c-0.002,0.079,0.044,0.134,0.091,0.189c-0.001,0.074,0.024,0.138,0.066,0.196
				c-0.005,0.051,0.006,0.096,0.044,0.131c0.125,0.641,0.144,1.293,0.147,1.939c0.013,3.236,0.006,6.472,0.006,9.706
				c0,0.091,0.011,0.183,0.017,0.274c-0.016,0.035-0.029,0.072,0.011,0.103l0.007,0.015c-0.004,0.02-0.008,0.039-0.012,0.06
				l-0.001,0.001c-0.072,0.006-0.144,0.012-0.217,0.018c-0.146-0.003-0.292-0.012-0.44-0.012c-10.221,0-20.442,0-30.665-0.003
				c-0.06,0-0.125,0.015-0.187,0.015c-0.063,0-0.123-0.015-0.174-0.074c0.004-0.101,0.01-0.201,0.01-0.303
				c0-10.527,0-21.057,0-31.586c0.062-0.03,0.126-0.036,0.191-0.036c0.054,0,0.108,0.004,0.162,0.004
				c3.356-0.004,6.715-0.007,10.072-0.012c0.477,0,0.953-0.041,1.421-0.13c0.026-0.012,0.053-0.023,0.079-0.036
				c0.047-0.006,0.094-0.013,0.143-0.019c0.01,0.002,0.019,0.003,0.028,0.003c0.035,0,0.065-0.013,0.091-0.042
				c1.406-0.205,2.052-1.656,1.271-2.887c-0.39-0.611-0.783-1.223-1.221-1.799c-1.291-1.709-0.823-3.887,1.017-5.068
				C23.817,32.854,24.748,32.599,25.677,32.599 M25.677,30.599c-1.341,0-2.638,0.377-3.75,1.091
				c-1.396,0.897-2.315,2.229-2.586,3.75c-0.262,1.467,0.113,2.961,1.054,4.207c0.358,0.472,0.691,0.98,1.051,1.544
				c-0.019,0.005-0.038,0.01-0.056,0.016c-0.105,0.018-0.217,0.044-0.323,0.077c-0.282,0.045-0.58,0.067-0.888,0.067l-5.6,0.007
				l-4.475,0.005c-0.049-0.003-0.104-0.004-0.16-0.004c-0.377,0-0.732,0.078-1.055,0.232c-0.694,0.333-1.137,1.034-1.137,1.804
				V74.98c0,0.056-0.003,0.111-0.006,0.166c-0.023,0.511,0.149,1.058,0.483,1.445c0.427,0.494,1.026,0.766,1.687,0.766
				c0.089,0,0.18-0.006,0.271-0.015c10.194,0.003,20.388,0.003,30.581,0.003c0.064,0,0.128,0.003,0.193,0.005l0.207,0.007
				c0.013,0,0.027,0,0.04,0c0.054,0,0.107-0.002,0.161-0.007l0.141-0.011l0.077-0.007c0.473-0.038,0.917-0.243,1.252-0.579
				c0.288-0.288,0.482-0.658,0.555-1.059c0.054-0.251,0.058-0.508,0.015-0.757l-0.001-0.023l-0.004-0.056l0.001-2.486
				c0.001-2.399,0.002-4.799-0.007-7.199c-0.003-0.73-0.028-1.515-0.184-2.314c-0.021-0.111-0.053-0.221-0.092-0.325
				c-0.017-0.055-0.035-0.108-0.056-0.161c-0.041-0.145-0.098-0.284-0.17-0.416c-0.049-0.119-0.11-0.232-0.182-0.341
				c-0.033-0.05-0.068-0.099-0.104-0.147c-0.105-0.145-0.233-0.278-0.375-0.394c-0.172-0.175-0.376-0.318-0.602-0.42
				c-0.37-0.168-0.76-0.253-1.158-0.253c-0.585,0-1.159,0.183-1.705,0.544c-0.646,0.43-1.285,0.862-1.914,1.307
				c-0.409,0.291-0.883,0.442-1.378,0.442c-0.577,0-1.134-0.21-1.567-0.592c-0.767-0.674-1.229-1.69-1.268-2.788
				c-0.039-1.102,0.352-2.151,1.072-2.882c0.486-0.492,1.107-0.764,1.746-0.764c0.486,0,0.974,0.156,1.41,0.453l1.108,0.752
				l0.735,0.499c0.574,0.389,1.167,0.586,1.765,0.586c0.986,0,2.201-0.58,2.65-2.209c0.246-0.889,0.268-1.738,0.27-2.465
				c0.008-2.332,0.007-4.666,0.006-7l0-2.255c0-1.771-0.896-2.669-2.662-2.669l-2.331,0l-2.329,0c-1.419,0-2.839-0.001-4.258-0.003
				c-0.756-0.001-1.387-0.003-1.893-0.153c0.001-0.002,0.002-0.003,0.003-0.005c0.394-0.582,0.786-1.161,1.185-1.736
				c1.695-2.45,1.219-5.559-1.13-7.392C28.772,31.123,27.241,30.599,25.677,30.599L25.677,30.599z"/>
		</g>
		<g>
			<path fill-rule="evenodd" clip-rule="evenodd" fill="#FFFFFF" d="M9.812,43.295c-0.205,0-0.405-0.063-0.574-0.181
				c-0.243-0.17-0.399-0.416-0.464-0.73c-0.043-0.118-0.037-0.153-0.034-0.279l0.01-0.361l0.001-31.082
				c-0.004-0.21-0.01-0.603,0.313-0.931c0.32-0.326,0.713-0.326,0.842-0.326c0,0,31.304,0.001,31.317,0.001
				c0.224,0,0.589,0.017,0.892,0.323c0.323,0.327,0.318,0.721,0.316,0.933v9.926c0,0.057,0.008,0.113,0.015,0.17l0.015,0.153
				c0.003,0.037,0.03,0.697,0.03,0.697c0.001,0.049,0,0.098-0.006,0.146c0.006,0.019,0.023,0.07,0.036,0.122
				c0.021,0.084,0.034,0.188,0.033,0.274c0.004,0.041,0.022,0.091,0.035,0.142l0.022,0.092c0.024,0.067,0.045,0.141,0.06,0.212
				c0.01,0.021,0.019,0.043,0.027,0.066c0.046,0.071,0.082,0.148,0.108,0.229c0.031,0.038,0.059,0.079,0.083,0.121
				c0.023,0.026,0.045,0.053,0.065,0.082c0.034,0.025,0.066,0.052,0.096,0.081c0.009,0.005,0.078,0.046,0.108,0.064
				c0.035,0.009,0.122,0.036,0.13,0.038c0.061,0.013,0.117,0.02,0.169,0.02c0.062,0,0.12-0.01,0.177-0.029
				c0.04-0.014,0.081-0.025,0.122-0.033l0.226-0.097c0.045-0.039,0.093-0.073,0.14-0.1c0.017-0.009,0.034-0.019,0.051-0.028
				c0.132-0.168,0.317-0.292,0.53-0.348c0.05-0.013,0.182-0.116,0.278-0.191l0.204-0.155c0.041-0.029,0.083-0.055,0.126-0.078
				c0.012-0.009,0.023-0.019,0.036-0.027c0.052-0.04,0.127-0.094,0.166-0.116c0.134-0.075,0.262-0.161,0.39-0.245
				c0.322-0.213,0.687-0.454,1.15-0.603c0.486-0.156,0.969-0.235,1.436-0.235c1.042,0,2.003,0.382,2.856,1.134
				c1.182,1.042,1.854,2.623,1.843,4.337c-0.012,1.72-0.707,3.298-1.909,4.331c-0.793,0.682-1.806,1.057-2.851,1.057
				c-0.837,0-1.644-0.241-2.333-0.698c-0.286-0.189-0.568-0.384-0.85-0.578c-0.393-0.27-0.786-0.541-1.188-0.797
				c-0.231-0.148-0.437-0.223-0.611-0.223c-0.089,0-0.23,0.016-0.434,0.152c-0.086,0.057-0.2,0.166-0.329,0.508
				c-0.133,0.355-0.177,0.765-0.202,1.119c-0.04,0.578-0.056,1.159-0.055,1.742l0.003,3.879c0,1.661,0,3.322,0.006,4.982
				c0,0.151,0.002,0.611-0.358,0.973c-0.36,0.361-0.82,0.361-0.972,0.361c-1.418-0.004-2.828-0.004-4.237-0.004
				c-1.748,0-3.495,0-5.242-0.008c-0.729-0.002-1.507-0.024-2.287-0.247c-0.885-0.251-1.21-0.8-1.325-1.104
				c-0.113-0.3-0.231-0.917,0.252-1.668c0.234-0.363,0.477-0.719,0.719-1.076c0.222-0.326,0.443-0.651,0.658-0.982
				c0.827-1.275,0.749-2.797-0.204-3.971c-0.836-1.032-1.937-1.583-3.365-1.684c-0.147-0.01-0.293-0.016-0.438-0.016
				c-1.37,0-2.494,0.46-3.437,1.406c-1.228,1.231-1.363,3.024-0.335,4.462c0.423,0.59,0.825,1.197,1.226,1.804
				c0.475,0.72,0.423,1.307,0.296,1.672c-0.127,0.367-0.453,0.861-1.277,1.134c-0.528,0.173-1.042,0.207-1.495,0.236
				c-0.167,0.011-0.334,0.021-0.5,0.041c-0.038,0.004-0.076,0.006-0.113,0.006l-9.863-0.007C10.14,43.287,9.819,43.295,9.812,43.295
				z"/>
			<path fill="#3279BE" d="M9.906,10.406c0.051,0,0.118,0.002,0.207,0.002c5.162,0,10.323-0.001,15.484-0.001
				c5.161,0,10.323,0,15.484,0.001c0.083,0,0.146-0.002,0.194-0.002c0.182,0,0.154,0.034,0.154,0.354
				c0.001,3.276-0.001,6.552,0.001,9.829c0,0.136,0.022,0.272,0.034,0.409c-0.035,0.054-0.025,0.107,0.009,0.157
				c0.006,0.162,0.013,0.325,0.018,0.487c-0.019,0.167,0.022,0.328,0.062,0.489c-0.004,0.194,0.062,0.374,0.103,0.559
				c0.012,0.023,0.023,0.047,0.035,0.071c-0.004,0.094,0.026,0.178,0.072,0.257c0.004,0.075,0.031,0.138,0.093,0.186
				c0,0.057-0.013,0.118,0.052,0.151c0.022,0.067,0.054,0.126,0.118,0.163c0.012,0.071,0.046,0.126,0.114,0.158
				c0.052,0.097,0.127,0.17,0.22,0.224c0.052,0.083,0.123,0.139,0.219,0.159c0.107,0.062,0.203,0.146,0.335,0.152
				c0.04,0.025,0.08,0.049,0.126,0.049c0.011,0,0.022-0.001,0.035-0.004c0.128,0.028,0.256,0.043,0.382,0.043
				c0.169,0,0.336-0.026,0.502-0.083c0.014,0.002,0.027,0.003,0.04,0.003c0.039,0,0.075-0.01,0.104-0.043
				c0.098-0.042,0.194-0.084,0.292-0.125c0.101-0.007,0.166-0.071,0.226-0.145l0,0c0.127-0.073,0.289-0.104,0.337-0.275
				c0.323-0.085,0.555-0.316,0.813-0.504c0.068-0.015,0.128-0.044,0.165-0.107l0.002-0.001c0.021-0.017,0.041-0.033,0.062-0.049
				c0.455-0.254,0.852-0.606,1.359-0.769c0.39-0.125,0.767-0.188,1.13-0.188c0.797,0,1.531,0.298,2.195,0.884
				c2.027,1.788,2.001,5.391-0.057,7.159c-0.624,0.536-1.412,0.816-2.199,0.816c-0.62,0-1.24-0.173-1.78-0.531
				c-0.687-0.456-1.357-0.94-2.052-1.384c-0.375-0.24-0.761-0.38-1.15-0.38c-0.328,0-0.659,0.099-0.99,0.32
				c-0.356,0.238-0.561,0.594-0.709,0.988c-0.169,0.451-0.23,0.924-0.264,1.399c-0.042,0.603-0.058,1.208-0.057,1.814
				c0.006,2.954-0.001,5.909,0.009,8.863c0.001,0.268-0.075,0.33-0.33,0.33c-0.002,0-0.004,0-0.006,0
				c-3.156-0.009-6.313,0.002-9.469-0.012c-0.675-0.002-1.356-0.02-2.017-0.208c-0.693-0.197-0.894-0.667-0.506-1.27
				c0.447-0.693,0.927-1.364,1.375-2.056c1.063-1.64,0.961-3.631-0.267-5.145c-1.046-1.292-2.432-1.936-4.071-2.051
				c-0.171-0.012-0.341-0.018-0.509-0.018c-1.585,0-2.986,0.538-4.145,1.7c-1.59,1.594-1.752,3.915-0.441,5.75
				c0.417,0.581,0.812,1.177,1.205,1.773c0.406,0.615,0.241,1.074-0.46,1.306c-0.583,0.192-1.194,0.165-1.794,0.233
				c-0.019,0-0.038,0.001-0.057,0.001c-0.824-0.003-1.648-0.008-2.471-0.008c-0.815,0-1.63,0-2.445,0c-1.63,0-3.26,0-4.89,0
				c-0.109,0-0.22,0.006-0.328,0.008c-0.059-0.041-0.051-0.109-0.072-0.167C9.742,42,9.75,41.872,9.75,41.745
				c0-10.325,0-20.646,0.002-30.97C9.752,10.442,9.719,10.406,9.906,10.406 M44.624,23.905h0.005 M44.624,23.905
				C44.624,23.905,44.624,23.906,44.624,23.905L44.624,23.905L44.624,23.905 M44.623,23.906L44.623,23.906
				c0,0-0.001,0.001-0.001,0.001C44.622,23.906,44.623,23.906,44.623,23.906 M9.906,8.406c-0.778,0-1.275,0.339-1.555,0.625
				c-0.617,0.627-0.605,1.37-0.6,1.649l0.001,0.095C7.75,21.098,7.75,31.42,7.75,41.745c0,0.053-0.002,0.107-0.004,0.161
				L7.74,42.083c-0.004,0.192,0.019,0.383,0.069,0.568c0.159,0.675,0.55,1.069,0.856,1.283c0.336,0.235,0.737,0.361,1.147,0.361
				c0.015,0,0.03,0,0.045,0l0.142-0.004l0.141-0.003l2.446,0h2.444l2.444,0c0.585,0,1.17,0.002,1.755,0.005l0.71,0.003
				c0.001,0,0.002,0,0.003,0c0.021,0,0.066,0,0.084-0.001c0.076,0,0.128-0.004,0.203-0.013c0.15-0.017,0.301-0.026,0.452-0.036
				c0.487-0.032,1.094-0.071,1.742-0.285c1.278-0.422,1.745-1.281,1.91-1.756c0.164-0.474,0.33-1.435-0.406-2.551
				c-0.433-0.657-0.826-1.248-1.249-1.837c-0.754-1.056-0.666-2.272,0.232-3.172c0.756-0.759,1.624-1.112,2.729-1.112
				c0.122,0,0.246,0.004,0.37,0.013c1.15,0.081,1.995,0.499,2.656,1.315c0.682,0.839,0.734,1.885,0.143,2.798
				c-0.21,0.325-0.428,0.644-0.646,0.963c-0.248,0.363-0.495,0.727-0.733,1.097c-0.722,1.12-0.527,2.087-0.348,2.563
				c0.181,0.481,0.681,1.343,1.988,1.714c0.899,0.257,1.756,0.281,2.556,0.284c1.747,0.008,3.496,0.008,5.245,0.008
				c1.409,0,2.817,0,4.226,0.004c0.693,0,1.259-0.22,1.692-0.655c0.298-0.299,0.653-0.834,0.65-1.682
				c-0.006-1.659-0.006-3.319-0.006-4.979c0-1.293,0-2.587-0.003-3.881c-0.001-0.599,0.016-1.146,0.052-1.672
				c0.017-0.241,0.044-0.515,0.108-0.736c0.369,0.238,0.73,0.486,1.092,0.735c0.287,0.197,0.574,0.394,0.863,0.586
				c0.854,0.566,1.852,0.865,2.886,0.865c1.284,0,2.528-0.461,3.502-1.299c1.422-1.22,2.244-3.073,2.258-5.082
				c0.013-2.003-0.782-3.86-2.182-5.093c-1.026-0.906-2.243-1.384-3.518-1.384c-0.571,0-1.158,0.096-1.742,0.284
				c-0.595,0.191-1.039,0.484-1.396,0.72c-0.107,0.071-0.214,0.144-0.326,0.206c-0.096,0.054-0.187,0.115-0.273,0.183
				c-0.053,0.032-0.104,0.065-0.154,0.102c-0.079,0.057-0.157,0.117-0.234,0.178c-0.026,0.021-0.052,0.042-0.079,0.063
				c-0.258,0.092-0.491,0.235-0.687,0.417c-0.014-0.044-0.029-0.088-0.046-0.131l-0.004-0.015c-0.007-0.122-0.025-0.243-0.054-0.362
				l-0.004-0.019c0-0.02,0-0.04-0.001-0.061l-0.019-0.499c-0.001-0.038-0.004-0.075-0.008-0.112c0-0.046-0.003-0.093-0.007-0.139
				l-0.018-0.177l-0.009-0.089l0-5.587V10.76l0-0.085c0.003-0.28,0.013-1.023-0.604-1.648c-0.28-0.283-0.776-0.621-1.55-0.621
				l-0.11,0.001l-0.084,0.001L25.598,8.408L10.113,8.409l-0.092-0.001L9.906,8.406L9.906,8.406z"/>
		</g>
		<g>
			<path fill-rule="evenodd" clip-rule="evenodd" fill="#FFFFFF" d="M58.759,54.046c-1.493,0-2.908-0.533-3.984-1.502
				c-1.651-1.481-1.939-3.889-0.683-5.724l0.243-0.353c0.376-0.544,0.752-1.087,1.104-1.647c0.152-0.242,0.202-0.496,0.142-0.713
				c-0.06-0.209-0.215-0.381-0.451-0.499c-0.193-0.096-0.429-0.163-0.766-0.217c-0.597-0.095-1.211-0.107-1.679-0.107
				c0,0-7.711,0-9.854,0.005c-0.001,0-0.003,0-0.004,0c-0.178,0-0.609-0.002-0.958-0.352c-0.235-0.235-0.353-0.554-0.352-0.945
				c0.007-2.05,0.007-4.1,0.007-6.15l0.001-3.623c0-0.73,0.059-1.337,0.186-1.909c0.01-0.05,0.023-0.107,0.039-0.162
				c0.386-1.377,1.392-1.484,1.691-1.484c0.396,0,0.804,0.14,1.212,0.417c0.611,0.414,1.221,0.829,1.827,1.25
				c0.595,0.412,1.271,0.63,1.955,0.63c1.055,0,2.042-0.496,2.781-1.398c1.536-1.878,1.381-4.903-0.34-6.604
				c-0.665-0.658-1.568-1.035-2.477-1.035c-0.748,0-1.436,0.243-1.989,0.704c-0.062,0.052-0.13,0.095-0.202,0.13
				c-0.036,0.033-0.075,0.063-0.116,0.091c-0.009,0.006-0.076,0.049-0.085,0.055c-0.032,0.02-0.072,0.043-0.114,0.064
				c-0.055,0.052-0.115,0.096-0.179,0.133l-1.284,0.852c-0.065,0.043-0.135,0.078-0.208,0.105l-0.202,0.074
				c-0.075,0.027-0.154,0.046-0.233,0.055l-0.345,0.036c-0.032,0.003-0.064,0.005-0.097,0.005c-0.045,0-0.089-0.003-0.134-0.009
				c-0.476-0.064-1.104-0.333-1.392-1.246c-0.257-0.816-0.293-1.634-0.295-2.254c-0.004-1.729-0.006-8.428-0.01-10.048
				c-0.001-0.379,0.114-0.69,0.345-0.921c0.346-0.348,0.784-0.348,0.928-0.348c10.496,0.005,20.991,0.005,31.487,0.005h0.216
				c0.281,0,0.55,0.119,0.739,0.327c0.189,0.208,0.283,0.487,0.256,0.767c0,0.004-0.011,0.105-0.011,0.11
				c-0.005,0.046-0.012,0.089-0.012,0.132l-0.009,10.158c0.005,0.043,0.009,0.199,0.007,0.236l-0.008,0.198
				c-0.003,0.064-0.012,0.127-0.026,0.188c-0.001,0.006-0.02,0.34-0.02,0.34c-0.003,0.055-0.027,0.205-0.039,0.259
				c-0.002,0.011-0.01,0.071-0.012,0.088c-0.007,0.058-0.032,0.256-0.048,0.312l-0.206,0.698c-0.021,0.095-0.055,0.188-0.104,0.276
				c-0.002,0.003-0.004,0.007-0.006,0.01c-0.024,0.057-0.054,0.111-0.088,0.163c-0.001,0.001-0.037,0.063-0.051,0.083
				c-0.049,0.076-0.161,0.229-0.229,0.289c0,0-0.332,0.309-0.354,0.328c-0.093,0.083-0.2,0.149-0.319,0.194
				c-0.013,0.004-0.444,0.148-0.444,0.148c-0.067,0.021-0.137,0.036-0.207,0.043c0,0-0.296,0.024-0.322,0.024
				c-0.078,0-0.155-0.009-0.231-0.027l-0.566-0.132c-0.105-0.024-0.298-0.087-0.391-0.145c0,0-0.559-0.353-0.58-0.368
				c0,0-0.198-0.139-0.224-0.158c-0.045-0.027-0.087-0.057-0.127-0.091c-0.03-0.016-0.213-0.134-0.237-0.153
				c0,0-0.04-0.031-0.058-0.046c-0.024-0.012-0.049-0.024-0.072-0.038c-0.056-0.032-0.11-0.071-0.163-0.115
				c-0.034-0.02-0.068-0.042-0.101-0.066c-0.018-0.014-0.036-0.028-0.054-0.043c-0.072-0.036-0.141-0.082-0.204-0.137
				c-0.158-0.137-0.28-0.223-0.395-0.277c-0.071-0.034-0.137-0.075-0.197-0.123c-0.014-0.01-0.027-0.021-0.041-0.031
				c-0.024-0.009-0.052-0.02-0.069-0.028c-0.002,0-0.113-0.034-0.114-0.035c-0.114-0.036-0.22-0.091-0.313-0.163
				c-0.008-0.002-0.05-0.015-0.153-0.026c-0.019-0.002-0.037-0.004-0.056-0.007c-0.074-0.01-0.147-0.029-0.218-0.055
				c-0.057-0.021-0.116-0.031-0.184-0.031l-0.504,0.014c-0.069,0.017-0.152,0.031-0.22,0.034c-0.153,0.019-0.296,0.042-0.366,0.082
				c-0.065,0.038-0.134,0.068-0.203,0.089c-0.038,0.018-0.076,0.033-0.116,0.046c-0.059,0.04-0.122,0.074-0.188,0.101
				c-0.018,0.01-0.189,0.115-0.189,0.115L66.402,23c-0.058,0.041-0.117,0.076-0.181,0.104c-0.035,0.043-0.073,0.083-0.115,0.121
				c0,0-0.181,0.164-0.188,0.169c-0.02,0.023-0.132,0.143-0.14,0.151c-0.029,0.031-0.085,0.087-0.135,0.133
				c-0.032,0.062-0.077,0.133-0.118,0.185c0,0-0.071,0.09-0.075,0.095c-0.035,0.072-0.079,0.139-0.131,0.2
				c-0.039,0.098-0.093,0.19-0.161,0.272c-0.027,0.114-0.047,0.169-0.111,0.268c-0.045,0.068-0.081,0.175-0.117,0.346
				c-0.018,0.083-0.046,0.164-0.084,0.24c0.009,0.14-0.016,0.273-0.066,0.397l-0.005,0.052c-0.007,0.055-0.019,0.116-0.034,0.179
				l-0.013,0.489c-0.001,0.038-0.004,0.076-0.01,0.114c0.005,0.034,0.008,0.068,0.009,0.102c0,0,0.011,0.385,0.01,0.402l0.011,0
				l0.021,0.109c0.007,0.037,0.016,0.131,0.017,0.144c0.033,0.098,0.051,0.202,0.052,0.307c0.008,0.049,0.034,0.107,0.055,0.167
				c0.01,0.029,0.043,0.131,0.05,0.162c0.008,0.034,0.015,0.069,0.027,0.102c0.06,0.087,0.077,0.134,0.107,0.235
				c0,0,0.023,0.045,0.035,0.068c0.04,0.081,0.069,0.167,0.087,0.255c-0.001-0.011,0-0.016,0.004-0.016
				c0.008,0,0.023,0.02,0.039,0.041c0.023,0.032,0.046,0.065,0.065,0.101c0.022,0.039,0.062,0.112,0.095,0.182
				c0.026,0.028,0.052,0.058,0.074,0.089c0.024,0.033,0.05,0.072,0.075,0.115c0.031,0.034,0.061,0.069,0.087,0.107
				c0.006,0.007,0.225,0.258,0.234,0.271c0.074,0.057,0.14,0.123,0.194,0.197c0.041,0.042,0.065,0.063,0.08,0.074
				c0.063,0.031,0.122,0.069,0.179,0.113c0.023,0.019,0.059,0.049,0.095,0.082c0.03,0.015,0.06,0.03,0.088,0.048
				c0.071,0.039,0.137,0.086,0.196,0.141c0.001,0,0.001,0,0.003,0c0.011,0,0.05,0.014,0.088,0.03
				c0.054,0.021,0.097,0.041,0.136,0.059c0.065,0.013,0.129,0.033,0.19,0.059c0.113,0.028,0.263,0.079,0.35,0.133
				c-0.032-0.02-0.024-0.025-0.004-0.025c0.01,0,0.084,0.009,0.114,0.012c0.044-0.005,0.087-0.008,0.131-0.008
				c0.134,0,0.268,0.027,0.394,0.081c-0.029-0.022,0.027-0.035,0.085-0.043l0.142-0.019c0.081-0.018,0.188-0.037,0.269-0.043
				c0.07-0.035,0.146-0.062,0.223-0.08c0.004,0,0.02-0.004,0.038-0.008c0.052-0.022,0.105-0.04,0.16-0.052
				c0.018-0.008,0.316-0.155,0.337-0.165c0.047-0.034,0.096-0.064,0.146-0.089c0.033-0.022,0.067-0.042,0.104-0.06
				c0.1-0.046,0.2-0.128,0.297-0.207c0.023-0.019,0.205-0.149,0.212-0.153l0.461,0.531c0.022,0.018,0.099,0.09,0.114,0.106
				l-0.483-0.702c0.062-0.045,0.128-0.083,0.197-0.113c0.068-0.067,0.146-0.123,0.229-0.168c0.041-0.034,0.085-0.064,0.131-0.091
				c0.006-0.004,0.087-0.058,0.122-0.078c0.189-0.107,0.333-0.205,0.45-0.306c0.028-0.024,0.166-0.122,0.176-0.128l0.602,0.802
				l-0.5-0.867l0.107-0.064c0.063-0.037,0.143-0.074,0.222-0.102c0.113-0.069,0.239-0.115,0.371-0.135
				c0.094-0.04,0.194-0.065,0.297-0.074c0,0,0.391-0.024,0.399-0.024l0.244,0.012c0.088,0.005,0.184,0.021,0.277,0.049
				c0.186,0.006,0.342,0.072,0.479,0.186c0.004,0.002,0.008,0.005,0.012,0.008c0.083,0.035,0.161,0.08,0.231,0.135
				c0.053,0.031,0.102,0.068,0.147,0.109l0.149,0.14c0.015,0.015,0.056,0.06,0.07,0.076c0.031,0.034,0.077,0.089,0.104,0.127
				l0.082,0.115c0.027,0.039,0.079,0.116,0.101,0.158l0.105,0.198c0.034,0.063,0.062,0.128,0.081,0.196
				c0.032,0.067,0.058,0.138,0.074,0.211l0.096,0.332c0.015,0.053,0.025,0.106,0.032,0.161c0.001,0.006,0.001,0.012,0.002,0.019
				c0.039,0.112,0.058,0.23,0.056,0.35c0.03,0.095,0.047,0.194,0.049,0.294v0.141c-0.001,0.048-0.004,0.096,0.002,0.144
				c0.054,0.144,0.066,0.276,0.048,0.416c0.009,0.065,0.011,0.132,0.008,0.199c0.003,0.034,0.005,0.068,0.005,0.103l-0.003,6.618
				c0,1.123-0.001,2.246,0.007,3.37c0.002,0.144,0.008,0.597-0.346,0.954c-0.354,0.359-0.806,0.359-0.954,0.359
				c-1.794-0.006-3.585-0.008-5.376-0.008l-4.066,0.003c-0.766,0.001-1.507,0.02-2.165,0.236c-0.573,0.189-0.652,0.461-0.683,0.701
				c-0.017,0.137-0.013,0.36,0.214,0.698c0.167,0.249,0.337,0.494,0.508,0.74c0.301,0.433,0.601,0.866,0.881,1.311
				c1.308,2.083,0.715,4.636-1.408,6.072C61.107,53.699,59.961,54.045,58.759,54.046z"/>
			<path fill="#3279BE" d="M42.792,10.403c10.496,0.005,20.991,0.005,31.487,0.005c0.074,0,0.146,0,0.216,0
				c-0.012,0.124-0.027,0.23-0.027,0.336c-0.004,3.385-0.006,6.771-0.009,10.157c0,0.026,0.006,0.054,0.009,0.082
				c-0.023,0.037-0.021,0.073-0.001,0.111c-0.003,0.066-0.005,0.132-0.008,0.197c-0.038,0.057-0.041,0.119-0.026,0.183
				c-0.008,0.113-0.014,0.226-0.02,0.338c-0.004,0.032-0.01,0.063-0.017,0.094c-0.007,0.041-0.016,0.082-0.022,0.123
				c-0.012,0.016-0.015,0.034-0.005,0.054c-0.007,0.053-0.01,0.106-0.016,0.159c-0.075,0.256-0.151,0.514-0.228,0.771l0.004-0.003
				c-0.012,0.021-0.024,0.042-0.036,0.064c-0.015,0.01-0.021,0.023-0.017,0.042c-0.016,0.023-0.029,0.045-0.045,0.068
				c-0.014,0.005-0.018,0.014-0.015,0.029c-0.018,0.027-0.036,0.056-0.054,0.084c-0.014,0.012-0.025,0.024-0.038,0.037
				c-0.088,0.081-0.176,0.162-0.265,0.244c-0.002,0-0.003,0-0.005,0c-0.01,0-0.015,0.006-0.013,0.017
				c-0.019,0.005-0.032,0.015-0.039,0.034c-0.023,0.009-0.047,0.017-0.07,0.026c-0.109,0.036-0.219,0.072-0.328,0.107
				c-0.074,0.007-0.148,0.013-0.224,0.019c-0.22-0.052-0.441-0.104-0.662-0.155c-0.148-0.092-0.294-0.184-0.441-0.275
				c-0.016-0.042-0.052-0.057-0.092-0.061c-0.024-0.017-0.048-0.035-0.072-0.052c-0.023-0.016-0.046-0.032-0.067-0.048
				c-0.034-0.021-0.066-0.042-0.1-0.063c-0.007-0.019-0.02-0.03-0.041-0.032c-0.051-0.053-0.102-0.107-0.179-0.12
				c-0.004-0.012-0.012-0.019-0.023-0.019c-0.002,0-0.003,0-0.005,0c-0.025-0.017-0.051-0.035-0.076-0.052
				c-0.063-0.069-0.129-0.132-0.227-0.147c-0.037-0.021-0.074-0.045-0.112-0.067c0.004-0.039-0.022-0.047-0.054-0.05l-0.004-0.003
				c-0.047-0.07-0.116-0.111-0.195-0.132l-0.002,0.001c-0.191-0.166-0.393-0.317-0.623-0.426c-0.008-0.02-0.02-0.029-0.042-0.032
				c-0.081-0.075-0.174-0.122-0.278-0.156c-0.021-0.01-0.043-0.02-0.066-0.028c-0.054-0.017-0.109-0.034-0.164-0.051l-0.003-0.003
				c-0.194-0.148-0.421-0.201-0.657-0.226l-0.012-0.012c0,0-0.014,0.008-0.015,0.008c-0.173-0.065-0.353-0.095-0.535-0.095
				c-0.032,0-0.065,0.001-0.099,0.003c-0.074,0-0.146,0-0.222,0c-0.072,0.003-0.146,0.006-0.218,0.01
				c-0.06,0.008-0.119,0.016-0.179,0.023c-0.015,0.003-0.03,0.008-0.046,0.012c-0.037,0.001-0.072,0.005-0.109,0.01
				c-0.252,0.032-0.496,0.077-0.719,0.206l0.001-0.002c-0.004,0-0.007,0-0.011,0c-0.047,0-0.088,0.013-0.119,0.052
				c-0.098,0.014-0.179,0.061-0.253,0.125c-0.003,0-0.006,0-0.01,0c-0.041,0-0.075,0.013-0.098,0.051l-0.003,0.002
				c-0.031,0.018-0.065,0.037-0.097,0.055c-0.044,0.027-0.087,0.055-0.13,0.081c-0.037,0.026-0.072,0.051-0.107,0.077l0.001-0.001
				c-0.021,0.017-0.044,0.032-0.067,0.049l0.005-0.005c-0.124,0.055-0.229,0.13-0.31,0.243c-0.021,0.018-0.043,0.037-0.064,0.056
				c-0.019,0.017-0.037,0.033-0.056,0.048c-0.019,0.02-0.036,0.038-0.056,0.055c-0.056,0.018-0.093,0.053-0.11,0.11
				c-0.019,0.018-0.035,0.037-0.054,0.055c-0.018,0.02-0.034,0.038-0.05,0.056c-0.021,0.021-0.04,0.043-0.058,0.065
				c-0.116,0.082-0.191,0.194-0.252,0.318c-0.025,0.032-0.051,0.063-0.074,0.094c-0.061,0.048-0.104,0.106-0.117,0.184
				c-0.082,0.076-0.144,0.164-0.164,0.275c-0.088,0.105-0.146,0.225-0.178,0.357c-0.139,0.21-0.209,0.445-0.261,0.689
				c-0.077,0.154-0.128,0.315-0.116,0.493c-0.039,0.048-0.058,0.103-0.041,0.166c-0.006,0.073-0.017,0.145-0.023,0.218
				c-0.043,0.05-0.039,0.109-0.03,0.168c-0.005,0.166-0.009,0.331-0.013,0.497c-0.039,0.091-0.026,0.183,0,0.274
				c0.004,0.11,0.008,0.222,0.01,0.333c-0.008,0.019-0.006,0.036,0.005,0.052c0.005,0.038,0.009,0.073,0.014,0.111
				c0.01,0.055,0.02,0.112,0.03,0.168c0.003,0.038,0.007,0.075,0.01,0.112c-0.008,0.059,0.004,0.113,0.041,0.161
				c0.002,0.193,0.072,0.371,0.132,0.551c0.032,0.135,0.067,0.269,0.147,0.386c0.006,0.02,0.01,0.039,0.016,0.058
				c0.011,0.02,0.021,0.04,0.033,0.059c-0.004,0.02,0.002,0.037,0.016,0.051c0.014,0.022,0.025,0.044,0.036,0.066
				c0.032,0.165,0.124,0.298,0.222,0.43c0.02,0.034,0.041,0.069,0.062,0.104l0.001,0.003c0.031,0.104,0.091,0.188,0.169,0.26
				c0.018,0.024,0.034,0.046,0.052,0.07c0.01,0.062,0.049,0.102,0.098,0.134c0,0.017,0.006,0.027,0.021,0.034
				c0.016,0.017,0.03,0.033,0.043,0.049l0.003,0.002c0.017,0.02,0.034,0.039,0.051,0.058c0.049,0.057,0.101,0.114,0.149,0.17
				c0.04,0.077,0.096,0.138,0.176,0.174c0,0.019,0.01,0.031,0.025,0.038c0.124,0.132,0.253,0.256,0.416,0.34l-0.002-0.003
				c0.021,0.017,0.041,0.033,0.063,0.05h0.002c0.059,0.072,0.13,0.122,0.219,0.149c0.008,0.015,0.021,0.023,0.038,0.023
				c0.001,0,0.002,0,0.003,0c0.132,0.122,0.297,0.179,0.456,0.249c0.076,0.028,0.141,0.086,0.227,0.086c0.008,0,0.016,0,0.024-0.001
				c0.028,0.034,0.065,0.047,0.108,0.047c0.008,0,0.017,0,0.024-0.001c0.023,0.005,0.049,0.01,0.074,0.014
				c0.164,0.103,0.351,0.108,0.534,0.133c0.045,0.01,0.089,0.019,0.133,0.019c0.035,0,0.07-0.005,0.104-0.021
				c0.102,0.044,0.204,0.059,0.307,0.059c0.165,0,0.331-0.039,0.496-0.056c0.039-0.01,0.078-0.02,0.116-0.031
				c0.013,0,0.025,0,0.039,0c0.133,0,0.262-0.026,0.378-0.103c0.025-0.006,0.051-0.011,0.075-0.016
				c0.012,0.001,0.023,0.002,0.035,0.002c0.037,0,0.069-0.01,0.093-0.048c0.005,0,0.011,0,0.016,0c0.071,0,0.129-0.039,0.188-0.072
				c0.025-0.013,0.049-0.025,0.074-0.038c0.003,0,0.006,0.001,0.009,0.001c0.012,0,0.021-0.005,0.028-0.017
				c0.027-0.012,0.055-0.025,0.084-0.037c0.004,0.002,0.007,0.002,0.01,0.002c0.007,0,0.012-0.004,0.015-0.013
				c0.026-0.016,0.055-0.031,0.08-0.045c0.003,0.001,0.006,0.001,0.009,0.001c0.01,0,0.018-0.005,0.023-0.017
				c0.068-0.008,0.123-0.042,0.166-0.098c0.046-0.002,0.081-0.023,0.104-0.062l0.004-0.002c0.182-0.082,0.334-0.208,0.486-0.332
				l0.008-0.004c0.02-0.016,0.041-0.029,0.063-0.045c0.018-0.013,0.035-0.025,0.055-0.039c0.035-0.023,0.07-0.049,0.104-0.072
				c0.022-0.017,0.045-0.033,0.065-0.048l-0.002,0.004c0.106-0.032,0.193-0.092,0.266-0.178h0.002
				c0.068-0.015,0.123-0.05,0.162-0.109l0.002-0.001c0.023-0.016,0.047-0.032,0.069-0.047c0.019,0,0.032-0.008,0.04-0.023
				c0.217-0.123,0.424-0.257,0.612-0.42c0.019-0.013,0.038-0.026,0.056-0.039c0.037-0.023,0.072-0.047,0.109-0.071
				c0.034-0.021,0.069-0.041,0.104-0.061c0.076-0.014,0.148-0.034,0.205-0.092l0.018-0.001c0.08-0.007,0.158-0.01,0.221-0.066
				c0.074-0.007,0.146-0.013,0.221-0.019l0.027,0.006l0.023-0.008c0.095,0.003,0.188,0.009,0.28,0.014
				c0.042,0.033,0.087,0.054,0.14,0.054c0.008,0,0.016,0,0.023-0.001c0.007,0.009,0.016,0.015,0.026,0.015
				c0.004,0,0.008,0,0.013-0.002c0.049,0.055,0.113,0.085,0.184,0.1l0.002,0.003c0.018,0.014,0.033,0.026,0.049,0.041
				c0.012,0.014,0.027,0.021,0.044,0.021c0.042,0.038,0.082,0.076,0.122,0.115c0.014,0.016,0.027,0.031,0.043,0.047
				c0.039,0.057,0.08,0.113,0.121,0.17c0.037,0.071,0.075,0.142,0.113,0.212c-0.004,0.06,0.018,0.111,0.06,0.155l0.001,0.009
				c0.037,0.126,0.072,0.252,0.108,0.377l0.001,0.008c-0.002,0.079,0,0.156,0.05,0.222c-0.004,0.112-0.002,0.226,0.049,0.33
				c0.003,0.193-0.017,0.388,0.053,0.575c-0.024,0.084-0.013,0.168,0.009,0.252c-0.021,0.053-0.021,0.107,0.001,0.16
				c0,1.855-0.001,3.708-0.002,5.562c0,1.478-0.005,2.955,0.006,4.434c0.003,0.235-0.048,0.306-0.3,0.306
				c-1.792-0.006-3.585-0.008-5.377-0.008c-1.355,0-2.711,0.001-4.066,0.003c-0.835,0.001-1.672,0.021-2.477,0.286
				c-0.744,0.246-1.262,0.713-1.362,1.528c-0.062,0.503,0.098,0.963,0.376,1.378c0.454,0.677,0.938,1.336,1.373,2.026
				c1.02,1.624,0.543,3.584-1.123,4.711c-0.822,0.556-1.79,0.829-2.757,0.829c-1.201,0-2.399-0.422-3.315-1.245
				c-1.283-1.151-1.5-2.994-0.526-4.416c0.463-0.673,0.933-1.34,1.368-2.031c0.627-0.995,0.309-2.136-0.712-2.641
				c-0.329-0.164-0.687-0.25-1.05-0.308c-0.609-0.097-1.223-0.12-1.838-0.12c-1.145,0-2.288,0-3.432,0c-2.142,0-4.283,0-6.425,0.005
				c-0.003,0-0.006,0-0.009,0c-0.22,0-0.303-0.036-0.302-0.293c0.011-3.259,0.005-6.517,0.009-9.775
				c0-0.569,0.039-1.136,0.162-1.693c0.008-0.037,0.016-0.072,0.025-0.107c0.14-0.5,0.391-0.755,0.729-0.755
				c0.191,0,0.41,0.081,0.652,0.245c0.608,0.412,1.214,0.824,1.817,1.243c0.785,0.544,1.659,0.809,2.525,0.809
				c1.31,0,2.604-0.604,3.555-1.764c1.865-2.281,1.679-5.884-0.41-7.949c-0.886-0.876-2.042-1.324-3.18-1.324
				c-0.944,0-1.875,0.308-2.629,0.935c-0.099,0.023-0.174,0.082-0.235,0.16c-0.031,0.021-0.064,0.041-0.094,0.06
				c-0.094,0.029-0.169,0.083-0.23,0.158l0.001-0.002c-0.444,0.295-0.889,0.59-1.333,0.884c-0.066,0.024-0.132,0.049-0.199,0.073
				c-0.111,0.012-0.221,0.024-0.332,0.035c-0.329-0.044-0.476-0.25-0.572-0.556c-0.202-0.641-0.247-1.298-0.249-1.957
				c-0.009-3.348-0.002-6.697-0.01-10.046C42.518,10.448,42.581,10.403,42.792,10.403 M74.494,10.409h0.005 M71.221,22.903
				c0.001,0,0.001,0,0.002,0.001v0L71.221,22.903 M74.129,23.01h0.005 M70.842,30.241h0.005 M69.955,30.843
				c-0.001,0.001-0.001,0.001-0.002,0.002h-0.001L69.955,30.843 M42.792,8.403C42.792,8.403,42.792,8.403,42.792,8.403
				c-0.663,0-1.213,0.216-1.637,0.643c-0.292,0.293-0.64,0.814-0.636,1.633c0.004,1.616,0.004,3.235,0.004,4.855
				c0,1.729,0.001,3.459,0.005,5.188c0.002,0.694,0.044,1.609,0.342,2.554c0.487,1.543,1.709,1.868,2.211,1.936
				c0.089,0.012,0.179,0.018,0.268,0.018c0.064,0,0.129-0.003,0.193-0.009l0.358-0.038c0.16-0.018,0.316-0.054,0.467-0.109
				l0.137-0.05l0.066-0.024c0.146-0.054,0.286-0.125,0.416-0.211l0.444-0.294l0.819-0.544c0.072-0.043,0.142-0.092,0.209-0.146
				c0.023-0.014,0.046-0.028,0.069-0.042l0.126-0.081c0.042-0.028,0.083-0.058,0.122-0.088c0.097-0.057,0.19-0.121,0.277-0.193
				c0.469-0.391,0.993-0.473,1.349-0.473c0.648,0,1.294,0.272,1.774,0.746c1.347,1.331,1.472,3.789,0.268,5.261
				c-0.544,0.664-1.257,1.03-2.006,1.03c-0.479,0-0.958-0.156-1.386-0.453c-0.608-0.422-1.221-0.839-1.835-1.255
				c-0.578-0.391-1.174-0.589-1.773-0.589c-0.983,0-2.197,0.582-2.655,2.216c-0.021,0.072-0.039,0.149-0.056,0.229
				c-0.14,0.63-0.206,1.305-0.206,2.111l-0.001,3.622c0,2.049,0,4.098-0.007,6.147c-0.003,0.83,0.348,1.357,0.643,1.654
				c0.427,0.429,0.985,0.646,1.659,0.646c2.154-0.005,4.294-0.005,6.434-0.005h1.715h1.716c0.432,0,0.994,0.011,1.524,0.095
				c0.11,0.018,0.206,0.037,0.285,0.058c-0.318,0.5-0.643,0.969-0.983,1.462l-0.242,0.352c-1.546,2.257-1.192,5.215,0.838,7.038
				c1.259,1.132,2.911,1.757,4.651,1.757c1.402,0,2.742-0.405,3.877-1.172c2.546-1.723,3.275-4.917,1.696-7.432
				c-0.298-0.473-0.607-0.919-0.907-1.351c-0.149-0.216-0.3-0.432-0.446-0.649c0.497-0.141,1.09-0.154,1.752-0.155
				c1.355-0.002,2.71-0.003,4.064-0.003c1.79,0,3.581,0.002,5.37,0.008c0.848,0,1.377-0.357,1.672-0.656
				c0.43-0.435,0.643-0.998,0.635-1.675c-0.008-1.111-0.007-2.232-0.007-3.353l0.001-1.056l0.002-5.562
				c0-0.031-0.001-0.062-0.002-0.092c0.003-0.087,0-0.175-0.009-0.263c0.005-0.172-0.013-0.345-0.052-0.514v-0.148
				c-0.003-0.15-0.021-0.298-0.057-0.443c-0.011-0.121-0.031-0.243-0.063-0.361c-0.013-0.094-0.033-0.191-0.06-0.28l-0.04-0.141
				l-0.06-0.207c-0.023-0.089-0.054-0.177-0.09-0.262c-0.037-0.113-0.085-0.223-0.142-0.329l-0.098-0.183
				c-0.044-0.084-0.095-0.166-0.149-0.243l-0.095-0.133c-0.064-0.094-0.137-0.182-0.216-0.264c-0.037-0.043-0.05-0.056-0.091-0.095
				c-0.058-0.056-0.115-0.111-0.176-0.165c-0.081-0.073-0.167-0.138-0.257-0.196c-0.097-0.07-0.199-0.131-0.307-0.183
				c-0.142-0.087-0.293-0.156-0.449-0.205c-0.037-0.012-0.073-0.023-0.11-0.034c-0.188-0.069-0.385-0.11-0.586-0.12l-0.053-0.003
				l-0.261-0.012c-0.024-0.001-0.048-0.001-0.072-0.001c-0.04,0-0.079,0.001-0.118,0.003c-0.031,0.001-0.061,0.002-0.09,0.005
				l-0.247,0.021c-0.158,0.015-0.313,0.048-0.463,0.099c-0.188,0.038-0.368,0.103-0.535,0.193c-0.094,0.038-0.186,0.082-0.272,0.133
				l-0.122,0.071c-0.019,0.011-0.036,0.022-0.055,0.034l-0.052,0.034l-0.042,0.027c-0.035,0.022-0.068,0.045-0.103,0.069
				c-0.063,0.042-0.137,0.099-0.193,0.148c-0.065,0.056-0.159,0.119-0.288,0.191c-0.016,0.009-0.03,0.018-0.046,0.027
				c-0.052,0.03-0.103,0.062-0.152,0.096l0.001,0c-0.041,0.026-0.081,0.054-0.12,0.083c-0.069,0.042-0.136,0.087-0.2,0.137
				c-0.102,0.056-0.198,0.121-0.289,0.193l-0.001-0.001c-0.013,0.008-0.052,0.035-0.064,0.044l-0.078,0.056
				c-0.017,0.011-0.031,0.022-0.046,0.033c-0.04,0.028-0.079,0.057-0.116,0.087c-0.042,0.034-0.077,0.064-0.112,0.09
				c-0.002,0.001-0.004,0.002-0.006,0.003c-0.054,0.027-0.105,0.056-0.156,0.087c-0.053,0.028-0.104,0.059-0.155,0.092
				c-0.025,0.013-0.05,0.026-0.075,0.04c0,0,0,0-0.001,0c-0.005,0.002-0.011,0.005-0.017,0.008c-0.035,0.015-0.07,0.03-0.105,0.047
				c-0.028,0.009-0.057,0.019-0.085,0.029c-0.066,0.016-0.132,0.036-0.195,0.059c-0.081,0.011-0.161,0.027-0.246,0.05
				c-0.007,0.001-0.015,0.002-0.022,0.003c-0.13-0.026-0.263-0.039-0.395-0.039c-0.02,0-0.039,0-0.059,0.001
				c-0.088-0.033-0.177-0.061-0.269-0.082c-0.045-0.015-0.09-0.029-0.137-0.042l-0.001,0L67.2,29.226
				c-0.064-0.046-0.13-0.088-0.198-0.126c-0.068-0.054-0.141-0.103-0.216-0.147c-0.063-0.075-0.133-0.145-0.207-0.209l-0.055-0.063
				l-0.065-0.075c-0.007-0.008-0.026-0.03-0.038-0.043c-0.011-0.015-0.022-0.029-0.033-0.043c-0.018-0.026-0.035-0.051-0.054-0.076
				c-0.019-0.026-0.041-0.055-0.066-0.086c-0.013-0.024-0.025-0.048-0.039-0.071l-0.039-0.065c-0.026-0.047-0.062-0.103-0.096-0.154
				c-0.022-0.06-0.047-0.118-0.074-0.175c-0.011-0.025-0.021-0.05-0.032-0.075c-0.025-0.067-0.055-0.132-0.087-0.196
				c-0.011-0.04-0.022-0.081-0.032-0.109l-0.029-0.086l-0.011-0.033c-0.011-0.104-0.029-0.207-0.056-0.308
				c-0.006-0.05-0.013-0.101-0.021-0.142l-0.016-0.087c-0.003-0.09-0.006-0.182-0.009-0.271c-0.001-0.022-0.002-0.044-0.004-0.066
				c0.002-0.03,0.004-0.06,0.004-0.09l0.009-0.34c0.012-0.061,0.021-0.123,0.026-0.186c0.003-0.021,0.005-0.041,0.007-0.059
				c0.026-0.099,0.045-0.2,0.056-0.302c0.035-0.094,0.063-0.19,0.084-0.288c0.005-0.023,0.009-0.046,0.015-0.068
				c0.063-0.104,0.117-0.214,0.16-0.328c0.037-0.059,0.07-0.12,0.102-0.182c0.037-0.053,0.072-0.107,0.104-0.163l0.018-0.023
				c0.044-0.055,0.086-0.113,0.124-0.172c0.031-0.033,0.062-0.066,0.091-0.1c0.01-0.01,0.019-0.021,0.027-0.031l0.018-0.02
				c0.007-0.007,0.013-0.013,0.017-0.018c0.02-0.019,0.039-0.038,0.057-0.057c0.018-0.016,0.034-0.032,0.051-0.049
				c0.015-0.013,0.029-0.026,0.044-0.04l0.032-0.026c0.018-0.016,0.035-0.032,0.053-0.049c0.029-0.019,0.058-0.038,0.086-0.058
				c0.021-0.015,0.04-0.028,0.059-0.042c0.008-0.005,0.015-0.011,0.022-0.016l0.047-0.033l0.032-0.021l0.015-0.009l0.007-0.004
				c0.062-0.028,0.122-0.059,0.181-0.093c0.012-0.005,0.023-0.01,0.035-0.015c0.08-0.028,0.159-0.062,0.236-0.1
				c0.018-0.003,0.036-0.005,0.054-0.007c0.096-0.006,0.19-0.019,0.284-0.038l0.014,0l0.066-0.003h0.177c0.011,0,0.021,0,0.032,0
				c0.103,0.033,0.208,0.057,0.314,0.072c0.119,0.067,0.246,0.122,0.377,0.163l0.011,0.003c0.089,0.062,0.184,0.116,0.282,0.163
				c0.004,0.002,0.05,0.026,0.167,0.128c0.086,0.074,0.176,0.14,0.271,0.198c0.091,0.077,0.189,0.147,0.295,0.208l0.11,0.066
				c0.008,0.004,0.016,0.009,0.024,0.014c0.001,0,0.001,0.001,0.002,0.002l0.002,0.001c0.038,0.029,0.077,0.056,0.117,0.082
				c0.015,0.01,0.044,0.03,0.05,0.034c0.016,0.011,0.031,0.021,0.047,0.031c0.022,0.014,0.044,0.028,0.066,0.041
				c0.056,0.044,0.114,0.086,0.175,0.125l0.044,0.027c0.028,0.021,0.056,0.04,0.083,0.058l0.035,0.026
				c0.028,0.02,0.057,0.039,0.085,0.057c0.033,0.023,0.066,0.045,0.101,0.066l0.205,0.128l0.237,0.148
				c0.185,0.114,0.388,0.198,0.6,0.247l0.091,0.021l0.561,0.131c0.152,0.036,0.308,0.054,0.463,0.054
				c0.052,0,0.104-0.002,0.155-0.006c0.089-0.007,0.177-0.014,0.265-0.023c0.142-0.014,0.28-0.043,0.416-0.086l0.343-0.112
				c0.037-0.012,0.073-0.025,0.109-0.04l0.036-0.013c0.229-0.085,0.437-0.211,0.615-0.368c0.038-0.032,0.074-0.064,0.109-0.098
				l0.246-0.227c0.021-0.02,0.042-0.04,0.063-0.061c0.124-0.118,0.232-0.25,0.322-0.396l0.033-0.053
				c0.019-0.028,0.036-0.057,0.053-0.085c0.037-0.059,0.071-0.12,0.103-0.183c0.109-0.183,0.189-0.384,0.236-0.598l0.185-0.627
				c0.033-0.112,0.056-0.227,0.068-0.342l0.012-0.116c0.002-0.017,0.004-0.034,0.006-0.051c0.017-0.079,0.03-0.159,0.04-0.239
				c0.006-0.046,0.01-0.093,0.012-0.14c0.005-0.086,0.009-0.171,0.015-0.257c0.017-0.091,0.028-0.185,0.032-0.278l0.005-0.117
				l0.003-0.083c0.002-0.042,0.002-0.084,0.002-0.126c0.003-0.086,0-0.173-0.008-0.26l0.003-3.292l0.006-6.751
				c0.002-0.011,0.004-0.021,0.005-0.032l0.001-0.002v-0.003c0.016-0.1,0.024-0.203,0.024-0.308c0-1.104-0.894-2-1.998-2h-0.005
				h-0.216C63.782,8.409,53.288,8.409,42.792,8.403L42.792,8.403z"/>
		</g>
		<g>
			<path fill-rule="evenodd" clip-rule="evenodd" fill="#FFFFFF" d="M71.463,90.924c-0.387,0-0.659-0.195-0.776-0.279l-0.148-0.106
				c-1.266-0.909-2.532-1.819-3.809-2.714l-0.203-0.141c-0.3-0.208-0.6-0.416-0.89-0.639c0,0-0.242-0.161-0.255-0.171
				c-0.048-0.035-0.139-0.107-0.179-0.15c-0.091-0.038-0.141-0.064-0.217-0.128l-0.114-0.1l-0.217-0.145l-0.513-0.357
				c-0.028-0.02-0.056-0.04-0.082-0.063c-0.026-0.014-0.17-0.107-0.17-0.107c-0.051-0.029-0.102-0.064-0.153-0.104
				c-0.027-0.021-0.056-0.046-0.085-0.073c-0.056-0.034-0.108-0.075-0.156-0.121c-0.112-0.041-0.224-0.108-0.321-0.192
				c-0.014-0.011-0.145-0.121-0.145-0.121l-1.335-0.902c-0.08-0.056-0.151-0.122-0.212-0.198c-0.039-0.024-0.101-0.064-0.104-0.066
				l-0.232-0.175c-0.062-0.048-0.117-0.103-0.166-0.163c-0.015-0.012-0.336-0.32-0.336-0.32c-0.08-0.08-0.146-0.174-0.195-0.276
				c-0.103-0.083-0.132-0.119-0.194-0.235l-0.208-0.396c-0.039-0.074-0.069-0.152-0.089-0.234l-0.028-0.105
				c-0.011-0.04-0.046-0.232-0.046-0.232c-0.009-0.041-0.016-0.084-0.019-0.126c-0.001-0.011-0.009-0.114-0.009-0.152
				c0-0.029,0.001-0.059,0.004-0.088c0.028-0.354,0.131-0.702,0.313-1.062c0.035-0.07,0.079-0.137,0.131-0.196
				c0,0,0.245-0.279,0.251-0.285c0.081-0.096,0.182-0.176,0.297-0.236c0.056-0.051,0.118-0.099,0.18-0.134l0.154-0.089
				c0.033-0.02,0.069-0.037,0.104-0.052c0,0,0.18-0.083,0.209-0.095l0.005,0.011c0.09-0.056,0.188-0.098,0.293-0.123
				c0.068-0.04,0.141-0.071,0.217-0.095c0.159-0.047,0.301-0.104,0.433-0.176c0.031-0.018,0.126-0.06,0.159-0.073
				c0,0,0.251-0.097,0.285-0.106c0.09-0.058,0.189-0.101,0.294-0.126c0.035-0.009,0.086-0.02,0.122-0.024
				c0.027-0.013,0.074-0.043,0.122-0.069c0.061-0.033,0.131-0.063,0.198-0.084c0.04-0.019,0.108-0.047,0.173-0.071
				c0.02-0.014,0.207-0.129,0.207-0.129c0.039-0.023,0.08-0.045,0.123-0.063c0.148-0.169,0.308-0.28,0.426-0.359
				c0.035-0.041,0.083-0.089,0.136-0.137c0.017-0.022,0.033-0.044,0.052-0.064c0.104-0.118,0.194-0.254,0.271-0.406
				c0.02-0.063,0.045-0.124,0.076-0.182c0.002-0.004,0.093-0.176,0.093-0.177c0.006-0.025,0.126-0.495,0.126-0.495
				c0.046-0.157,0.059-0.302,0.045-0.469h0.004c-0.003-0.018-0.006-0.036-0.008-0.055c-0.008-0.081-0.007-0.164,0.004-0.246
				c-0.014-0.048-0.024-0.097-0.031-0.146l-0.018-0.146c-0.006-0.021-0.034-0.169-0.036-0.182c-0.005-0.03-0.008-0.06-0.011-0.09
				c-0.016-0.038-0.063-0.195-0.069-0.22c-0.194-0.629-0.427-1.043-0.749-1.341c-0.074-0.068-0.143-0.161-0.198-0.261
				c-0.045-0.045-0.089-0.091-0.111-0.121l-0.206-0.194l-0.222-0.188l-0.094-0.07c0,0-0.448-0.294-0.466-0.305
				c0,0-0.243-0.146-0.273-0.162c-0.171-0.019-0.334-0.08-0.473-0.179c-0.069-0.015-0.137-0.035-0.201-0.063
				c-0.104-0.016-0.226-0.039-0.36-0.093c-0.01-0.004-0.02-0.008-0.029-0.012c-0.061-0.006-0.121-0.016-0.167-0.029
				c-0.021-0.006-0.098-0.03-0.119-0.038c-0.039,0.005-0.071,0.008-0.102,0.008c-0.039,0-0.076-0.004-0.125-0.011
				c-0.045,0-0.194-0.009-0.239-0.015c-0.009-0.002-0.023-0.004-0.04-0.007c-0.059-0.003-0.117-0.004-0.176-0.004
				c-0.358,0-0.67,0.054-0.952,0.165c-0.075,0.029-0.154,0.05-0.234,0.061c-0.06,0.041-0.124,0.076-0.191,0.104l-0.162,0.067
				c-0.054,0.042-0.111,0.078-0.173,0.108c-0.227,0.11-0.436,0.288-0.64,0.542c-0.433,0.529-0.643,1.067-0.647,1.652
				c0,0.044-0.004,0.087-0.01,0.13c-0.025,0.184-0.009,0.402,0.011,0.656c0.001,0.022,0.002,0.046,0.003,0.071
				c0.01,0.079,0.011,0.159,0.002,0.238c0.006,0.063,0.005,0.126-0.001,0.188c0.008,0.079,0.006,0.159-0.005,0.239
				c0.011,0.05,0.012,0.105,0.016,0.155c0.003,0.044,0.007,0.116,0.004,0.16c0,0.044-0.003,0.11-0.009,0.173
				c0.005,0.03,0.009,0.061,0.011,0.091c0.001,0.012,0.006,0.102,0.006,0.114c0.003,0.071-0.002,0.146-0.015,0.217
				c0.002,0.017,0.003,0.033,0.004,0.05c0.014,0.083,0.018,0.169,0.01,0.254c-0.003,0.026-0.018,0.182-0.022,0.208l-0.028,0.169
				c-0.01,0.056-0.023,0.109-0.042,0.163l-0.146,0.421c-0.027,0.08-0.066,0.162-0.113,0.232l-0.101,0.158
				c-0.037,0.06-0.08,0.115-0.129,0.166l-0.271,0.279c-0.086,0.09-0.188,0.163-0.3,0.217l-0.279,0.133
				c-0.102,0.05-0.21,0.081-0.321,0.094l-0.507,0.057c-0.038,0.005-0.077,0.007-0.115,0.007c-0.066,0-0.133-0.007-0.198-0.02
				l-0.462-0.094c-0.083-0.018-0.256-0.063-0.332-0.1l0.004-0.009c-0.023-0.008-0.155-0.054-0.194-0.071
				c-0.056-0.017-0.11-0.039-0.162-0.065c-0.073-0.021-0.144-0.051-0.211-0.088l-0.266-0.147c-0.03-0.018-0.06-0.035-0.088-0.056
				l-0.005,0.011c-0.047-0.022-0.093-0.048-0.136-0.076c-0.059-0.023-0.116-0.053-0.17-0.087l-0.412-0.261l-8.61-5.693
				c-0.096-0.063-0.18-0.143-0.249-0.234c-0.096-0.128-0.164-0.283-0.19-0.441c-0.004-0.022-0.016-0.117-0.019-0.141
				c-0.029-0.306,0.083-0.607,0.306-0.819c0.161-0.153,0.299-0.37,0.458-0.621l0.798-1.212c1.379-2.083,2.758-4.166,4.126-6.255
				c0.191-0.294,0.355-0.608,0.52-0.922c0.085-0.162,0.278-0.521,0.281-0.521c0,0,0.001,0,0.001,0.001
				c0.012-0.082,0.034-0.162,0.065-0.238l0.059-0.131c0-0.066,0.008-0.132,0.021-0.196c0.058-0.319-0.001-0.447-0.072-0.544
				c-0.014-0.02-0.026-0.038-0.038-0.055c-0.031-0.032-0.06-0.068-0.087-0.105c-0.198-0.176-0.434-0.254-0.758-0.254l-0.624,0.004
				c-0.491,0.001-0.982,0.002-1.471,0.029c-0.087,0.004-0.173,0.007-0.257,0.007c-2.31,0-4.107-1.657-4.372-4.031
				c-0.327-2.945,1.924-5.933,4.816-6.394c0.256-0.041,0.508-0.061,0.754-0.061c1.772,0,3.304,1.045,3.998,2.727l0.388,0.947
				c0.157,0.387,0.314,0.774,0.477,1.159c0.174,0.413,0.472,0.66,0.795,0.66c0.066,0,0.136-0.01,0.205-0.03
				c0.251-0.07,0.487-0.242,0.816-0.595c0.309-0.333,0.615-0.732,0.935-1.219l1.467-2.22c1.276-1.932,2.552-3.864,3.823-5.8
				c0.348-0.533,0.781-0.646,1.083-0.646c0.388,0,0.678,0.193,0.773,0.256l3.309,2.188c1.7,1.123,3.399,2.245,5.097,3.375
				c0.551,0.367,1.13,0.773,1.622,1.335c0.055,0.062,0.116,0.131,0.173,0.203c0.487,0.636,0.487,1.192,0.404,1.551
				c-0.084,0.357-0.331,0.855-1.032,1.201c-0.227,0.111-0.458,0.205-0.69,0.299l-0.577,0.238c-0.286,0.121-0.572,0.241-0.863,0.348
				c-1.893,0.697-2.748,2.636-2.033,4.61c0.686,1.893,2.667,3.267,4.71,3.267c0.379,0,0.753-0.048,1.11-0.142
				c1.591-0.416,2.599-1.747,2.566-3.392c-0.015-0.737-0.022-1.474-0.03-2.21c-0.004-0.181,0.009-0.341,0.037-0.497
				c0.2-1.098,0.991-1.49,1.665-1.49c0.165,0,0.34,0.021,0.52,0.064c0.533,0.129,1.067,0.369,1.631,0.735
				c1.653,1.074,3.3,2.158,4.947,3.242l1.651,1.089c0.714,0.473,1.429,0.944,2.146,1.411c0.323,0.211,0.521,0.48,0.588,0.802
				c0.066,0.321-0.005,0.646-0.215,0.965c-5.783,8.747-11.56,17.492-17.329,26.242C72.141,90.847,71.697,90.924,71.463,90.924z"/>
			<path fill="#3279BE" d="M62.304,45.64c0.062,0,0.131,0.03,0.22,0.089c2.801,1.856,5.607,3.699,8.404,5.562
				c0.509,0.339,1.016,0.694,1.424,1.161c0.049,0.055,0.098,0.109,0.143,0.166c0.383,0.5,0.283,0.953-0.287,1.234
				c-0.279,0.137-0.574,0.246-0.861,0.365c-0.39,0.16-0.775,0.332-1.172,0.478c-2.519,0.927-3.498,3.489-2.629,5.89
				c0.852,2.349,3.229,3.926,5.65,3.926c0.456,0,0.914-0.057,1.363-0.174c2.03-0.531,3.354-2.285,3.313-4.379
				c-0.015-0.734-0.022-1.468-0.03-2.201c-0.002-0.102,0.002-0.203,0.021-0.303c0.081-0.448,0.309-0.674,0.682-0.674
				c0.087,0,0.182,0.013,0.285,0.037c0.479,0.115,0.915,0.338,1.321,0.602c1.785,1.16,3.563,2.331,5.342,3.502
				c1.135,0.746,2.264,1.5,3.402,2.24c0.18,0.117,0.201,0.197,0.082,0.379c-5.781,8.745-11.559,17.49-17.328,26.24
				c-0.069,0.104-0.126,0.145-0.186,0.145c-0.058,0-0.117-0.037-0.193-0.092c-1.318-0.947-2.637-1.896-3.967-2.827
				c-0.357-0.249-0.718-0.492-1.064-0.759l-0.007-0.023l-0.022,0.002c-0.078-0.053-0.158-0.105-0.236-0.157
				c-0.015-0.011-0.031-0.022-0.047-0.034c-0.084-0.088-0.186-0.157-0.299-0.205c-0.018-0.015-0.032-0.028-0.049-0.043
				c-0.031-0.027-0.063-0.055-0.096-0.084c-0.088-0.059-0.178-0.118-0.266-0.178c-0.169-0.119-0.339-0.236-0.509-0.354
				c-0.037-0.068-0.095-0.107-0.171-0.117c-0.032-0.021-0.065-0.042-0.098-0.064c-0.015-0.037-0.042-0.058-0.08-0.058
				c-0.003,0-0.005,0-0.008,0c-0.026-0.021-0.055-0.04-0.082-0.061c-0.013-0.039-0.034-0.067-0.078-0.067c-0.001,0-0.002,0-0.004,0
				c-0.113-0.108-0.241-0.199-0.391-0.254l-0.008-0.02h-0.02c-0.033-0.027-0.065-0.057-0.099-0.086
				c-0.331-0.225-0.663-0.449-0.994-0.674c-0.138-0.094-0.274-0.188-0.413-0.283c-0.082-0.129-0.215-0.199-0.338-0.279
				c-0.056-0.043-0.111-0.086-0.167-0.129c-0.019-0.065-0.067-0.102-0.125-0.129c-0.053-0.051-0.104-0.101-0.158-0.15
				c-0.04-0.04-0.083-0.079-0.123-0.119h-0.001c-0.051-0.108-0.121-0.2-0.213-0.275c-0.07-0.132-0.138-0.262-0.207-0.393
				c-0.012-0.049-0.025-0.099-0.039-0.146c-0.008-0.029-0.012-0.06-0.017-0.09c-0.005-0.022-0.007-0.043-0.011-0.066l-0.002-0.004
				c-0.002-0.025-0.004-0.051-0.006-0.076c0.019-0.249,0.098-0.478,0.209-0.697c0.028-0.033,0.055-0.064,0.082-0.098
				c0.051-0.055,0.1-0.109,0.15-0.166c0.012,0,0.02-0.006,0.018-0.02c0.087-0.03,0.155-0.088,0.217-0.154
				c0.051-0.029,0.104-0.06,0.154-0.089c0.043-0.019,0.086-0.037,0.129-0.054c0.017-0.01,0.033-0.019,0.049-0.027
				c0.045-0.018,0.09-0.033,0.135-0.051c0.016,0,0.029-0.008,0.037-0.022c0.097-0.015,0.188-0.04,0.264-0.106
				c0.217-0.064,0.426-0.148,0.625-0.257c0.036-0.017,0.072-0.03,0.11-0.047c0.04-0.015,0.082-0.03,0.124-0.047
				c0.098-0.02,0.191-0.054,0.27-0.12l0.016-0.004c0.17-0.023,0.318-0.102,0.465-0.182l0.006-0.004
				c0.02-0.006,0.039-0.01,0.059-0.016c0.051-0.023,0.102-0.049,0.152-0.072c0.094-0.02,0.18-0.055,0.25-0.123
				c0.049-0.029,0.098-0.061,0.146-0.09c0.121-0.044,0.227-0.109,0.314-0.203c0.084-0.12,0.203-0.196,0.32-0.275
				c0.08-0.014,0.113-0.076,0.148-0.139c0.025-0.029,0.048-0.057,0.072-0.086c0.055-0.025,0.098-0.059,0.117-0.117
				c0.172-0.195,0.314-0.414,0.43-0.648c0.035-0.031,0.058-0.072,0.047-0.124c0.032-0.06,0.063-0.12,0.094-0.179
				c0.063-0.078,0.078-0.176,0.098-0.27c0.039-0.148,0.074-0.295,0.113-0.441c0.078-0.264,0.098-0.532,0.076-0.805v-0.004
				c-0.002-0.027-0.004-0.053-0.006-0.078v0.003c-0.003-0.028-0.005-0.054-0.008-0.081l0.004,0.003
				c0.023-0.118,0.014-0.233-0.027-0.347c-0.006-0.043-0.012-0.086-0.016-0.128c0.01-0.054,0.008-0.103-0.028-0.147l-0.001-0.005
				c-0.004-0.023-0.009-0.047-0.013-0.071c-0.005-0.109-0.021-0.216-0.074-0.315c-0.005-0.018-0.009-0.036-0.014-0.054
				c0.005-0.012,0.001-0.021-0.01-0.027l0.005-0.015l-0.011-0.009c-0.208-0.68-0.499-1.313-1.034-1.807
				c-0.018-0.017-0.021-0.05-0.029-0.076c-0.008-0.048-0.036-0.078-0.08-0.1c-0.024-0.021-0.05-0.044-0.074-0.065
				c-0.014-0.019-0.026-0.039-0.039-0.058c-0.068-0.064-0.134-0.129-0.202-0.194c-0.028-0.025-0.058-0.052-0.087-0.079
				c-0.084-0.071-0.168-0.143-0.252-0.215c-0.044-0.033-0.088-0.067-0.132-0.102c-0.167-0.111-0.335-0.225-0.503-0.337
				c-0.012-0.017-0.027-0.026-0.047-0.026c-0.031-0.02-0.064-0.037-0.1-0.057c-0.188-0.109-0.366-0.246-0.598-0.252
				c-0.017-0.018-0.033-0.033-0.05-0.051c-0.101-0.068-0.21-0.109-0.331-0.114c-0.118-0.081-0.265-0.055-0.39-0.104
				c-0.066-0.057-0.144-0.074-0.225-0.074c-0.02,0-0.039,0.001-0.06,0.003c-0.017-0.005-0.035-0.011-0.054-0.017
				c-0.107-0.04-0.216-0.063-0.328-0.063c-0.034,0-0.069,0.003-0.104,0.007c-0.041-0.006-0.081-0.012-0.121-0.017
				c-0.042,0-0.084,0.001-0.125,0.001c-0.021-0.003-0.039-0.007-0.057-0.011c-0.099-0.006-0.196-0.009-0.294-0.009
				c-0.45,0-0.892,0.066-1.318,0.234c0,0,0.001,0,0.001,0.001c-0.146,0.011-0.277,0.062-0.396,0.143
				c-0.02,0.002-0.034,0.01-0.043,0.026c-0.064,0.026-0.127,0.052-0.189,0.079c-0.082,0.02-0.154,0.055-0.207,0.124
				c-0.393,0.192-0.709,0.478-0.979,0.815c-0.54,0.66-0.859,1.404-0.867,2.269c-0.044,0.314-0.015,0.627,0.009,0.942
				c-0.007,0.018-0.006,0.034,0.003,0.051c-0.028,0.068-0.024,0.136-0.002,0.203c-0.012,0.064-0.032,0.129,0,0.193
				c-0.017,0.115-0.021,0.229,0.006,0.344c0.003,0.02,0.003,0.039,0.006,0.059c-0.002,0.035-0.002,0.071-0.002,0.106v0.017
				c-0.021,0.09-0.032,0.18,0.005,0.268c0.002,0.027,0.003,0.057,0.004,0.084c-0.03,0.113-0.023,0.227,0,0.34
				c-0.009,0.017-0.009,0.032,0.002,0.049c-0.004,0.043-0.008,0.085-0.012,0.129c-0.01,0.057-0.02,0.114-0.029,0.172
				c-0.05,0.143-0.1,0.287-0.149,0.432c-0.04,0.061-0.079,0.122-0.117,0.184c-0.092,0.096-0.185,0.188-0.274,0.283
				c-0.098,0.046-0.193,0.092-0.29,0.139c-0.168,0.02-0.339,0.037-0.507,0.057c-0.154-0.031-0.308-0.063-0.462-0.094
				c-0.03-0.006-0.06-0.012-0.092-0.018c-0.04-0.02-0.081-0.037-0.122-0.057c-0.012-0.014-0.026-0.021-0.043-0.021
				c-0.002,0-0.004,0-0.006,0c-0.043-0.016-0.086-0.029-0.131-0.043l-0.006-0.016l-0.019,0.004c-0.019-0.01-0.038-0.02-0.057-0.029
				c-0.031-0.027-0.065-0.05-0.106-0.05c-0.009,0-0.018,0.001-0.027,0.003c-0.088-0.049-0.176-0.099-0.266-0.148
				c-0.012-0.016-0.027-0.024-0.046-0.025c-0.039-0.018-0.075-0.035-0.113-0.053c-0.048-0.063-0.108-0.096-0.187-0.098
				c-0.141-0.09-0.279-0.178-0.42-0.266c-2.863-1.894-5.726-3.787-8.589-5.68l-0.004-0.006c-0.004-0.023-0.007-0.047-0.009-0.072
				c0.322-0.307,0.531-0.693,0.772-1.057c1.589-2.4,3.18-4.8,4.756-7.207c0.305-0.469,0.547-0.979,0.817-1.471
				c0.065-0.119,0.128-0.238,0.138-0.377c0.014-0.033,0.029-0.066,0.044-0.098c0.052-0.131,0.099-0.263,0.09-0.406
				c0.005-0.023,0.008-0.047,0.013-0.07c0.084-0.457,0.023-0.885-0.256-1.268l-0.005-0.006c-0.021-0.029-0.039-0.06-0.058-0.09
				c-0.025-0.023-0.049-0.05-0.076-0.074c-0.004-0.048-0.032-0.08-0.075-0.098c-0.416-0.396-0.917-0.557-1.477-0.557
				c-0.01,0-0.02,0-0.03,0c-0.707,0.008-1.415-0.004-2.119,0.034c-0.068,0.004-0.136,0.006-0.203,0.006
				c-1.81,0-3.174-1.316-3.378-3.142c-0.269-2.424,1.59-4.915,3.98-5.296c0.202-0.032,0.401-0.048,0.596-0.048
				c1.366,0,2.524,0.776,3.073,2.108c0.292,0.703,0.572,1.411,0.867,2.113c0.339,0.805,0.994,1.272,1.717,1.272
				c0.156,0,0.316-0.022,0.477-0.067c0.521-0.146,0.916-0.49,1.275-0.875c0.388-0.418,0.727-0.875,1.04-1.352
				c1.765-2.674,3.532-5.343,5.29-8.021C62.143,45.703,62.214,45.64,62.304,45.64 M60.857,81.628L60.857,81.628v0.002V81.628
				 M62.304,43.64c-0.449,0-1.297,0.143-1.923,1.103c-1.267,1.929-2.541,3.86-3.816,5.791l-1.467,2.221
				c-0.291,0.441-0.564,0.799-0.838,1.093c-0.076,0.082-0.138,0.143-0.187,0.188c-0.15-0.358-0.297-0.72-0.444-1.081
				c-0.129-0.319-0.259-0.639-0.392-0.956c-0.848-2.06-2.734-3.341-4.919-3.341c-0.301,0-0.607,0.024-0.911,0.073
				c-3.454,0.551-6.042,3.981-5.653,7.492c0.318,2.852,2.574,4.921,5.365,4.921c0.103,0,0.207-0.003,0.311-0.009
				c0.456-0.024,0.924-0.026,1.42-0.027l0.536-0.004c-0.019,0.054-0.036,0.107-0.05,0.162c-0.08,0.147-0.15,0.282-0.221,0.416
				c-0.163,0.309-0.316,0.601-0.475,0.845c-1.363,2.081-2.74,4.161-4.117,6.24l-0.631,0.954c-0.059,0.089-0.12,0.184-0.18,0.278
				c-0.109,0.171-0.232,0.365-0.305,0.434c-0.444,0.424-0.669,1.028-0.611,1.639c0.007,0.074,0.016,0.143,0.027,0.211
				c0.053,0.315,0.18,0.613,0.371,0.869c0.138,0.185,0.311,0.35,0.503,0.477l6.856,4.532l1.733,1.146
				c0.015,0.01,0.029,0.019,0.043,0.028l0.403,0.255c0.079,0.05,0.16,0.094,0.244,0.133c0.059,0.035,0.119,0.066,0.182,0.096
				l0.042,0.02l0.117,0.065l0.133,0.073c0.105,0.059,0.216,0.107,0.328,0.146c0.084,0.04,0.172,0.074,0.261,0.103l0.004,0.001
				c0.164,0.08,0.356,0.146,0.537,0.179c0.001,0,0.068,0.014,0.069,0.014l0.213,0.043l0.232,0.047
				c0.131,0.026,0.264,0.04,0.396,0.04c0.077,0,0.154-0.005,0.23-0.014l0.24-0.026l0.268-0.03c0.223-0.025,0.439-0.089,0.642-0.187
				l0.268-0.129c0.226-0.105,0.429-0.253,0.601-0.434l0.132-0.136l0.135-0.139c0.097-0.102,0.184-0.213,0.257-0.332l0.085-0.133
				c0.093-0.141,0.168-0.293,0.223-0.452l0.146-0.424c0.037-0.105,0.065-0.214,0.084-0.325l0.028-0.166
				c0.01-0.054,0.017-0.108,0.021-0.163l0.007-0.079c0.006-0.062,0.009-0.125,0.009-0.188c0.004-0.086,0.002-0.171-0.005-0.257
				c0.007-0.08,0.009-0.16,0.006-0.24c-0.002-0.054-0.005-0.106-0.008-0.156c-0.001-0.01-0.002-0.019-0.002-0.027
				c0.001-0.032,0.002-0.065,0.002-0.098c0.006-0.107,0.003-0.222-0.009-0.332c-0.002-0.019-0.004-0.037-0.006-0.057
				c0.006-0.078,0.006-0.155,0.003-0.233c0.003-0.06,0.003-0.119,0-0.179c0.006-0.087,0.005-0.175-0.001-0.262
				c-0.001-0.02-0.002-0.039-0.004-0.059l-0.005-0.075c-0.013-0.162-0.028-0.365-0.018-0.442c0.013-0.085,0.019-0.172,0.02-0.258
				c0.002-0.242,0.052-0.576,0.415-1.021c0.123-0.153,0.221-0.241,0.312-0.286c0.076-0.037,0.15-0.079,0.221-0.126l0.036-0.015
				c0.063-0.026,0.124-0.055,0.185-0.087c0.101-0.025,0.198-0.058,0.293-0.098c0.153-0.053,0.33-0.078,0.539-0.078
				c0.026,0,0.052,0,0.078,0.001c0.001,0,0.002,0,0.003,0c0.089,0.013,0.179,0.019,0.269,0.019c0.063,0.008,0.129,0.012,0.194,0.014
				c0.063,0.018,0.128,0.032,0.192,0.044c0.137,0.047,0.26,0.075,0.358,0.093c0.014,0.005,0.028,0.01,0.042,0.015
				c0.167,0.097,0.349,0.168,0.538,0.212l0.053,0.031c0.015,0.009,0.053,0.03,0.067,0.038c0.017,0.01,0.032,0.02,0.049,0.029
				l0.14,0.094l0.234,0.156l0.038,0.03l0.193,0.164l0.037,0.034l0.059,0.057l0.003,0.003c0.016,0.019,0.031,0.037,0.047,0.055
				c0.088,0.137,0.192,0.262,0.312,0.375c0.206,0.19,0.354,0.475,0.496,0.938c0.001,0.005,0.003,0.01,0.004,0.015l0.011,0.04
				c0.007,0.026,0.015,0.053,0.023,0.079c0.001,0.006,0.002,0.011,0.003,0.017c0.002,0.017,0.012,0.072,0.015,0.089
				c0.002,0.009,0.01,0.05,0.012,0.06c0.003,0.016,0.006,0.031,0.01,0.047c0.005,0.037,0.01,0.074,0.015,0.111
				c0.001,0.012,0.003,0.024,0.005,0.037c-0.001,0.082,0.002,0.165,0.012,0.249l0.004,0.046l0.002,0.019
				c0,0.014,0.001,0.026,0.002,0.04c0.005,0.058,0,0.08,0,0.08c-0.005,0.018-0.01,0.034-0.015,0.052l-0.067,0.261l-0.034,0.138
				l-0.029,0.056c-0.046,0.083-0.084,0.169-0.117,0.257c-0.025,0.045-0.053,0.085-0.081,0.12c-0.048,0.045-0.094,0.093-0.138,0.142
				c-0.105,0.076-0.227,0.171-0.35,0.291c-0.012,0.006-0.022,0.013-0.034,0.02l-0.098,0.06l-0.028,0.018
				c-0.026,0.011-0.053,0.022-0.079,0.035l-0.035,0.017c-0.104,0.036-0.205,0.081-0.301,0.134c-0.157,0.04-0.313,0.1-0.459,0.177
				c-0.023,0.008-0.046,0.017-0.069,0.025l-0.076,0.029c-0.038,0.014-0.075,0.028-0.111,0.045c-0.057,0.022-0.102,0.042-0.146,0.063
				c-0.041,0.019-0.081,0.039-0.121,0.061c-0.069,0.038-0.147,0.069-0.239,0.097c-0.105,0.031-0.209,0.072-0.309,0.12
				c-0.088,0.028-0.173,0.063-0.256,0.103l-0.029,0.012c-0.062,0.023-0.122,0.051-0.181,0.081c-0.021,0.009-0.041,0.018-0.062,0.026
				c-0.07,0.03-0.14,0.065-0.207,0.104l-0.077,0.045l-0.076,0.044c-0.094,0.054-0.182,0.115-0.266,0.183
				c-0.171,0.105-0.322,0.234-0.452,0.382c-0.003,0.002-0.005,0.004-0.007,0.007l-0.127,0.14c-0.026,0.029-0.053,0.06-0.078,0.09
				l-0.06,0.071c-0.103,0.12-0.191,0.253-0.263,0.394c-0.236,0.467-0.372,0.925-0.415,1.399c-0.007,0.066-0.01,0.133-0.01,0.201
				v0.002c0,0.102,0.008,0.201,0.022,0.299c0.005,0.035,0.011,0.071,0.018,0.107l-0.005,0.001c0.003,0.022,0.008,0.052,0.013,0.083
				c0.015,0.091,0.032,0.177,0.055,0.261l0.026,0.098c0.04,0.163,0.1,0.321,0.178,0.47l0.086,0.162l0.124,0.235
				c0.08,0.15,0.18,0.29,0.295,0.415c0.081,0.127,0.178,0.244,0.286,0.351l0.075,0.072c0.021,0.021,0.075,0.073,0.099,0.094
				l0.085,0.081c0.014,0.013,0.028,0.026,0.043,0.04c0.084,0.096,0.178,0.184,0.28,0.263l0.166,0.129
				c0.041,0.031,0.082,0.061,0.125,0.089c0.091,0.094,0.191,0.179,0.3,0.254l0.423,0.29l0.497,0.337l0.398,0.27
				c0.018,0.016,0.035,0.03,0.053,0.044c0.07,0.059,0.145,0.111,0.221,0.158c0.061,0.04,0.123,0.075,0.188,0.108
				c0.018,0.014,0.035,0.028,0.053,0.042c0.035,0.03,0.071,0.06,0.109,0.088c0.009,0.007,0.052,0.038,0.061,0.045
				c0.063,0.048,0.127,0.093,0.193,0.133l0.09,0.06c0.022,0.015,0.045,0.029,0.069,0.043c0.029,0.023,0.06,0.045,0.091,0.066
				c0.164,0.113,0.328,0.227,0.491,0.342l0.197,0.132l0.085,0.074c0.095,0.079,0.195,0.148,0.303,0.209
				c0.024,0.021,0.05,0.04,0.076,0.06c0.01,0.008,0.049,0.036,0.059,0.044c0.022,0.016,0.062,0.043,0.084,0.058l0.047,0.031
				l0.14,0.093c0.295,0.226,0.598,0.437,0.902,0.646l0.202,0.141c1.27,0.89,2.531,1.796,3.793,2.703l0.15,0.107
				c0.162,0.116,0.651,0.468,1.36,0.468c0.35,0,1.23-0.102,1.853-1.039c5.771-8.754,11.549-17.498,17.329-26.243
				c0.453-0.689,0.446-1.317,0.361-1.724s-0.331-0.984-1.019-1.433c-0.719-0.468-1.431-0.938-2.143-1.409l-1.254-0.827l-0.399-0.263
				c-1.648-1.086-3.297-2.17-4.951-3.245c-0.662-0.43-1.298-0.714-1.943-0.869c-0.256-0.062-0.509-0.093-0.753-0.093
				c-1.354,0-2.394,0.909-2.649,2.315c-0.04,0.213-0.058,0.444-0.053,0.699c0.008,0.723,0.016,1.462,0.03,2.203
				c0.023,1.165-0.691,2.108-1.819,2.404c-0.275,0.071-0.563,0.108-0.857,0.108c-1.637,0-3.223-1.097-3.771-2.607
				c-0.445-1.23-0.173-2.737,1.439-3.331c0.305-0.112,0.605-0.238,0.906-0.364l0.336-0.141l0.227-0.092
				c0.254-0.103,0.508-0.207,0.753-0.327c0.826-0.407,1.382-1.071,1.569-1.873c0.188-0.803-0.017-1.646-0.573-2.373
				c-0.09-0.113-0.164-0.198-0.238-0.282c-0.56-0.64-1.227-1.107-1.808-1.494c-1.697-1.13-3.398-2.254-5.101-3.377
				c-1.103-0.728-2.205-1.457-3.308-2.187C63.208,43.782,62.762,43.64,62.304,43.64L62.304,43.64z"/>
		</g>
	</g>
</g>
</svg>
