<?xml version="1.0" encoding="utf-8"?>
<!-- Generator: Adobe Illustrator 16.0.0, SVG Export Plug-In . SVG Version: 6.00 Build 0)  -->
<!DOCTYPE svg PUBLIC "-//W3C//DTD SVG 1.1//EN" "http://www.w3.org/Graphics/SVG/1.1/DTD/svg11.dtd">
<svg version="1.1" xmlns="http://www.w3.org/2000/svg" xmlns:xlink="http://www.w3.org/1999/xlink" x="0px" y="0px" width="100px"
	 height="100px" viewBox="0 0 100 100" enable-background="new 0 0 100 100" xml:space="preserve">
<g id="Layer_1" opacity="0">
	<rect opacity="0" width="100" height="100"/>
</g>
<g id="Layer_2">
	<g>
		<g>
			<g>
				<g>
					<path fill="#FFFFFF" d="M10.392,91.205c-1.103,0-2-0.897-2-2V10.794c0-1.103,0.897-2,2-2h78.411c1.103,0,2,0.897,2,2v78.411
						c0,1.103-0.897,2-2,2H10.392z"/>
					<path fill="#3379BC" d="M88.803,9.794c0.55,0,1,0.45,1,1v78.411c0,0.55-0.45,1-1,1H10.392c-0.55,0-1-0.45-1-1V10.794
						c0-0.55,0.45-1,1-1H88.803 M88.803,7.794H10.392c-1.654,0-3,1.346-3,3v78.411c0,1.654,1.346,3,3,3h78.411c1.654,0,3-1.346,3-3
						V10.794C91.803,9.14,90.457,7.794,88.803,7.794L88.803,7.794z"/>
					<path fill="#FFFFFF" d="M89.803,89.205c0,0.55-0.45,1-1,1H10.392c-0.55,0-1-0.45-1-1V10.794c0-0.55,0.45-1,1-1h78.411
						c0.55,0,1,0.45,1,1V89.205z"/>
				</g>
				<g>
					<path fill="#FFFFFF" d="M10.392,91.205c-1.103,0-2-0.897-2-2V31.307c0-1.103,0.897-2,2-2H68.29c1.103,0,2,0.897,2,2v57.898
						c0,1.103-0.897,2-2,2H10.392z"/>
					<path fill="#3379BC" d="M68.29,30.307c0.55,0,1,0.45,1,1v57.898c0,0.55-0.45,1-1,1H10.392c-0.55,0-1-0.45-1-1V31.307
						c0-0.55,0.45-1,1-1H68.29 M68.29,28.307H10.392c-1.654,0-3,1.346-3,3v57.898c0,1.654,1.346,3,3,3H68.29c1.654,0,3-1.346,3-3
						V31.307C71.29,29.652,69.944,28.307,68.29,28.307L68.29,28.307z"/>
					<path fill="#FFFFFF" d="M69.29,89.205c0,0.55-0.45,1-1,1H10.392c-0.55,0-1-0.45-1-1V31.307c0-0.55,0.45-1,1-1H68.29
						c0.55,0,1,0.45,1,1V89.205z"/>
				</g>
				<g>
					<path fill="#FFFFFF" d="M10.392,91.205c-1.103,0-2-0.897-2-2V51.819c0-1.103,0.897-2,2-2h37.385c1.103,0,2,0.897,2,2v37.386
						c0,1.103-0.897,2-2,2H10.392z"/>
					<path fill="#3379BC" d="M47.776,50.819c0.55,0,1,0.45,1,1v37.386c0,0.55-0.45,1-1,1H10.392c-0.55,0-1-0.45-1-1V51.819
						c0-0.55,0.45-1,1-1H47.776 M47.776,48.819H10.392c-1.654,0-3,1.346-3,3v37.386c0,1.654,1.346,3,3,3h37.385c1.654,0,3-1.346,3-3
						V51.819C50.776,50.165,49.431,48.819,47.776,48.819L47.776,48.819z"/>
					<path fill="#FFFFFF" d="M48.776,89.205c0,0.55-0.45,1-1,1H10.392c-0.55,0-1-0.45-1-1V51.819c0-0.55,0.45-1,1-1h37.385
						c0.55,0,1,0.45,1,1V89.205z"/>
				</g>
			</g>
		</g>
		
			<polyline fill="none" stroke="#3379BC" stroke-width="2" stroke-linecap="round" stroke-linejoin="round" stroke-miterlimit="10" points="
			54.599,34.111 65.265,34.111 65.265,44.777 65.06,34.317 52.342,47.034 		"/>
		
			<polyline fill="none" stroke="#3379BC" stroke-width="2" stroke-linecap="round" stroke-linejoin="round" stroke-miterlimit="10" points="
			75.48,13.229 86.147,13.229 86.147,23.896 85.942,13.435 73.224,26.152 		"/>
	</g>
</g>
</svg>
