<?xml version="1.0" encoding="utf-8"?>
<!-- Generator: Adobe Illustrator 16.0.0, SVG Export Plug-In . SVG Version: 6.00 Build 0)  -->
<!DOCTYPE svg PUBLIC "-//W3C//DTD SVG 1.1//EN" "http://www.w3.org/Graphics/SVG/1.1/DTD/svg11.dtd">
<svg version="1.1" xmlns="http://www.w3.org/2000/svg" xmlns:xlink="http://www.w3.org/1999/xlink" x="0px" y="0px" width="100px"
	 height="100px" viewBox="0 0 100 100" enable-background="new 0 0 100 100" xml:space="preserve">
<g id="Layer_1" opacity="0">
	<rect opacity="0" width="100" height="100"/>
</g>
<g id="Layer_2">
	<g>
		<g>
			<path fill="#3379BC" d="M9.902,92.442c-1.103,0-2-0.897-2-2V9.991c0-1.103,0.897-2,2-2h80.451c1.103,0,2,0.897,2,2v80.451
				c0,1.103-0.897,2-2,2H9.902z"/>
			<path fill="#FFFFFF" d="M90.354,8.991c0.55,0,1,0.45,1,1v80.451c0,0.55-0.45,1-1,1H9.902c-0.55,0-1-0.45-1-1V9.991
				c0-0.55,0.45-1,1-1H90.354 M90.354,6.991H9.902c-1.654,0-3,1.346-3,3v80.451c0,1.654,1.346,3,3,3h80.451c1.654,0,3-1.346,3-3
				V9.991C93.354,8.337,92.008,6.991,90.354,6.991L90.354,6.991z"/>
			<path fill="#3379BC" d="M91.354,90.442c0,0.55-0.45,1-1,1H9.902c-0.55,0-1-0.45-1-1V9.991c0-0.55,0.45-1,1-1h80.451
				c0.55,0,1,0.45,1,1V90.442z"/>
		</g>
		<g>
			<path fill="#3379BC" d="M9.902,92.442c-1.103,0-2-0.897-2-2V31.024c0-1.103,0.897-2,2-2H69.32c1.103,0,2,0.897,2,2v59.418
				c0,1.103-0.897,2-2,2H9.902z"/>
			<path fill="#FFFFFF" d="M69.32,30.024c0.55,0,1,0.45,1,1v59.418c0,0.55-0.45,1-1,1H9.902c-0.55,0-1-0.45-1-1V31.024
				c0-0.55,0.45-1,1-1H69.32 M69.32,28.024H9.902c-1.654,0-3,1.346-3,3v59.418c0,1.654,1.346,3,3,3H69.32c1.654,0,3-1.346,3-3
				V31.024C72.32,29.37,70.975,28.024,69.32,28.024L69.32,28.024z"/>
			<path fill="#3379BC" d="M70.32,90.442c0,0.55-0.45,1-1,1H9.902c-0.55,0-1-0.45-1-1V31.024c0-0.55,0.45-1,1-1H69.32
				c0.55,0,1,0.45,1,1V90.442z"/>
		</g>
		<g>
			<path fill="#3379BC" d="M9.902,92.442c-1.103,0-2-0.897-2-2V52.058c0-1.103,0.897-2,2-2h38.384c1.103,0,2,0.897,2,2v38.385
				c0,1.103-0.897,2-2,2H9.902z"/>
			<path fill="#FFFFFF" d="M48.286,51.058c0.55,0,1,0.45,1,1v38.385c0,0.55-0.45,1-1,1H9.902c-0.55,0-1-0.45-1-1V52.058
				c0-0.55,0.45-1,1-1H48.286 M48.286,49.058H9.902c-1.654,0-3,1.346-3,3v38.385c0,1.654,1.346,3,3,3h38.384c1.654,0,3-1.346,3-3
				V52.058C51.286,50.403,49.94,49.058,48.286,49.058L48.286,49.058z"/>
			<path fill="#3379BC" d="M49.286,90.442c0,0.55-0.45,1-1,1H9.902c-0.55,0-1-0.45-1-1V52.058c0-0.55,0.45-1,1-1h38.384
				c0.55,0,1,0.45,1,1V90.442z"/>
		</g>
		
			<polyline fill="none" stroke="#FFFFFF" stroke-width="2" stroke-linecap="round" stroke-linejoin="round" stroke-miterlimit="10" points="
			55.256,33.926 66.193,33.926 66.193,44.862 65.982,34.137 52.942,47.177 		"/>
		
			<polyline fill="none" stroke="#FFFFFF" stroke-width="2" stroke-linecap="round" stroke-linejoin="round" stroke-miterlimit="10" points="
			76.668,12.513 87.605,12.513 87.605,23.45 87.396,12.725 74.354,25.765 		"/>
	</g>
</g>
</svg>
