<?xml version="1.0" encoding="utf-8"?>
<!-- Generator: Adobe Illustrator 16.0.0, SVG Export Plug-In . SVG Version: 6.00 Build 0)  -->
<!DOCTYPE svg PUBLIC "-//W3C//DTD SVG 1.1//EN" "http://www.w3.org/Graphics/SVG/1.1/DTD/svg11.dtd">
<svg version="1.1" xmlns="http://www.w3.org/2000/svg" xmlns:xlink="http://www.w3.org/1999/xlink" x="0px" y="0px" width="100px"
	 height="100px" viewBox="0 0 100 100" enable-background="new 0 0 100 100" xml:space="preserve">
<g id="Layer_1" opacity="0">
	<rect opacity="0" width="100" height="100"/>
</g>
<g id="Layer_2">
	<g>
		<g>
			<g>
				<path fill="#3379BC" d="M49.596,20.52c8.205,15.461,25.014,15.914,26.953,15.914c0.12,0,0.184-0.002,0.184-0.002
					c0,36.567-27.137,43.045-27.137,43.045S22.46,72.999,22.46,36.432c0,0,0.063,0.002,0.184,0.002
					C24.586,36.434,41.394,35.98,49.596,20.52 M76.732,36.432h0.005 M49.596,10.52C49.596,10.52,49.596,10.52,49.596,10.52
					c-3.701,0-7.099,2.044-8.834,5.313c-5.406,10.19-16.589,10.593-18.072,10.6c-0.146-0.006-0.291-0.009-0.436-0.009
					c-2.551,0-4.931,0.987-6.795,2.763c-1.981,1.888-2.999,4.509-2.999,7.245c0,22.537,9.15,35.617,16.827,42.622
					c8.447,7.709,17.035,9.923,17.986,10.15c0.763,0.183,1.543,0.273,2.322,0.273s1.559-0.091,2.322-0.273
					c0.951-0.227,9.539-2.441,17.986-10.149c7.649-6.98,16.763-19.994,16.828-42.381c0.002-0.08,0.003-0.161,0.003-0.241
					c0-0.282-0.012-0.561-0.035-0.837c-0.187-2.429-1.188-4.713-2.966-6.407c-1.864-1.776-4.245-2.764-6.797-2.764
					c-0.144,0-0.288,0.003-0.433,0.009c-1.512-0.008-12.675-0.423-18.076-10.601C56.694,12.564,53.296,10.52,49.596,10.52
					L49.596,10.52z"/>
			</g>
			<g>
				<path fill="#FFFFFF" d="M49.596,20.52c8.205,15.461,25.014,15.914,26.953,15.914c0.12,0,0.184-0.002,0.184-0.002
					c0,36.567-27.137,43.045-27.137,43.045S22.46,72.999,22.46,36.432c0,0,0.063,0.002,0.184,0.002
					C24.586,36.434,41.394,35.98,49.596,20.52 M76.732,36.432h0.005 M49.596,12.52C49.596,12.52,49.596,12.52,49.596,12.52
					c-2.961,0-5.68,1.635-7.067,4.25c-6.005,11.319-18.444,11.663-19.878,11.664c-0.107-0.004-0.213-0.007-0.32-0.007
					c-2.05,0-3.975,0.794-5.467,2.222c-1.577,1.509-2.404,3.6-2.404,5.783c0,21.807,8.796,34.411,16.175,41.145
					c8.076,7.37,16.202,9.467,17.102,9.682c0.611,0.146,1.234,0.219,1.858,0.219s1.247-0.073,1.857-0.219
					c0.9-0.215,9.026-2.312,17.104-9.682c7.355-6.712,16.119-19.255,16.176-40.932c0.002-0.071,0.003-0.142,0.003-0.213
					c0-0.295-0.017-0.586-0.048-0.874c-0.19-1.86-0.994-3.602-2.359-4.908c-1.492-1.428-3.417-2.223-5.468-2.223
					c-0.104,0-0.209,0.002-0.314,0.006c-1.555-0.004-13.905-0.397-19.884-11.664C55.274,14.155,52.556,12.52,49.596,12.52
					L49.596,12.52z"/>
			</g>
			<g>
				<path fill="#3379BC" d="M49.596,80.478c-0.078,0-0.156-0.009-0.232-0.027c-0.279-0.066-27.903-7.089-27.903-44.018
					c0-0.27,0.109-0.528,0.303-0.716s0.445-0.309,0.724-0.283l0.157,0.001c1.833,0,18.136-0.432,26.068-15.383
					c0.347-0.653,1.42-0.653,1.767,0c7.934,14.951,24.237,15.383,26.07,15.383l0.157-0.001c0.242-0.022,0.531,0.095,0.724,0.283
					c0.193,0.188,0.303,0.447,0.303,0.716c0,36.929-27.625,43.952-27.904,44.018C49.751,80.469,49.674,80.478,49.596,80.478z
					 M23.467,37.415c0.446,33.086,23.378,40.287,26.129,41.031c2.751-0.744,25.685-7.944,26.13-41.031
					c-3.889-0.166-18.153-1.688-26.13-14.868C41.621,35.727,27.356,37.249,23.467,37.415z"/>
			</g>
		</g>
		<g>
			<g>
				<path fill="#FFFFFF" d="M49.596,84.478c-0.39,0-0.779-0.046-1.161-0.137c-0.328-0.078-8.127-2-15.777-8.98
					C25.725,69.034,17.46,57.145,17.46,36.432c0-1.35,0.546-2.643,1.514-3.584c0.935-0.909,2.186-1.416,3.486-1.416
					c0.046,0,0.092,0,0.139,0.002c1.631,0,15.743-0.373,22.579-13.257c0.867-1.635,2.566-2.657,4.417-2.657s3.549,1.022,4.417,2.656
					c6.838,12.886,20.949,13.258,22.536,13.258c0.046-0.001,0.092-0.002,0.139-0.002c1.302,0,2.574,0.507,3.509,1.416
					c0.968,0.941,1.536,2.234,1.536,3.584c0,20.712-8.265,32.602-15.198,38.929c-7.649,6.979-15.449,8.901-15.777,8.979
					C50.375,84.432,49.985,84.478,49.596,84.478z"/>
			</g>
			<g>
				<path fill="#3379BC" d="M49.596,20.52c8.205,15.461,25.014,15.914,26.953,15.914c0.12,0,0.184-0.002,0.184-0.002
					c0,36.567-27.137,43.045-27.137,43.045S22.46,72.999,22.46,36.432c0,0,0.063,0.002,0.184,0.002
					C24.586,36.434,41.394,35.98,49.596,20.52 M76.732,36.432h0.005 M49.596,10.52C49.596,10.52,49.596,10.52,49.596,10.52
					c-3.701,0-7.099,2.044-8.834,5.313c-5.406,10.19-16.589,10.593-18.072,10.6c-0.146-0.006-0.291-0.009-0.436-0.009
					c-2.551,0-4.931,0.987-6.795,2.763c-1.981,1.888-2.999,4.509-2.999,7.245c0,22.537,9.15,35.617,16.827,42.622
					c8.447,7.709,17.035,9.923,17.986,10.15c0.763,0.183,1.543,0.273,2.322,0.273s1.559-0.091,2.322-0.273
					c0.951-0.227,9.539-2.441,17.986-10.149c7.649-6.98,16.763-19.994,16.828-42.381c0.002-0.08,0.003-0.161,0.003-0.241
					c0-0.282-0.012-0.561-0.035-0.837c-0.187-2.429-1.188-4.713-2.966-6.407c-1.864-1.776-4.245-2.764-6.797-2.764
					c-0.144,0-0.288,0.003-0.433,0.009c-1.512-0.008-12.675-0.423-18.076-10.601C56.694,12.564,53.296,10.52,49.596,10.52
					L49.596,10.52z"/>
			</g>
			<g>
				<path fill="#FFFFFF" d="M49.596,20.52c8.205,15.461,25.014,15.914,26.953,15.914c0.12,0,0.184-0.002,0.184-0.002
					c0,36.567-27.137,43.045-27.137,43.045S22.46,72.999,22.46,36.432c0,0,0.063,0.002,0.184,0.002
					C24.586,36.434,41.394,35.98,49.596,20.52 M76.732,36.432h0.005 M49.596,12.52C49.596,12.52,49.596,12.52,49.596,12.52
					c-2.961,0-5.68,1.635-7.067,4.25c-6.005,11.319-18.444,11.663-19.878,11.664c-0.107-0.004-0.213-0.007-0.32-0.007
					c-2.05,0-3.975,0.794-5.467,2.222c-1.577,1.509-2.404,3.6-2.404,5.783c0,21.807,8.796,34.411,16.175,41.145
					c8.076,7.37,16.202,9.467,17.102,9.682c0.611,0.146,1.234,0.219,1.858,0.219s1.247-0.073,1.857-0.219
					c0.9-0.215,9.026-2.312,17.104-9.682c7.355-6.712,16.119-19.255,16.176-40.932c0.002-0.071,0.003-0.142,0.003-0.213
					c0-0.295-0.017-0.586-0.048-0.874c-0.19-1.86-0.994-3.602-2.359-4.908c-1.492-1.428-3.417-2.223-5.468-2.223
					c-0.104,0-0.209,0.002-0.314,0.006c-1.555-0.004-13.905-0.397-19.884-11.664C55.274,14.155,52.556,12.52,49.596,12.52
					L49.596,12.52z"/>
			</g>
			<g>
				<path fill="#3379BC" d="M49.596,80.478c-0.078,0-0.156-0.009-0.232-0.027c-0.279-0.066-27.903-7.089-27.903-44.018
					c0-0.27,0.109-0.528,0.303-0.716s0.445-0.309,0.724-0.283l0.157,0.001c1.833,0,18.136-0.432,26.068-15.383
					c0.347-0.653,1.42-0.653,1.767,0c7.934,14.951,24.237,15.383,26.07,15.383l0.157-0.001c0.242-0.022,0.531,0.095,0.724,0.283
					c0.193,0.188,0.303,0.447,0.303,0.716c0,36.929-27.625,43.952-27.904,44.018C49.751,80.469,49.674,80.478,49.596,80.478z
					 M23.467,37.415c0.446,33.086,23.378,40.287,26.129,41.031c2.751-0.744,25.685-7.944,26.13-41.031
					c-3.889-0.166-18.153-1.688-26.13-14.868C41.621,35.727,27.356,37.249,23.467,37.415z"/>
			</g>
		</g>
		<g>
			<path fill="#3379BC" d="M52.182,65.165H47.01c-0.818,0-1.576-0.34-2.077-0.934c-0.502-0.594-0.712-1.397-0.576-2.205
				l2.123-12.578c-0.031-0.069-0.373-0.657-1.059-1.154c-0.139-0.1-3.387-2.49-3.387-5.899c0-4.17,3.393-7.563,7.563-7.563
				s7.563,3.393,7.563,7.563c0,3.409-3.248,5.799-3.387,5.899c-0.687,0.498-1.027,1.087-1.055,1.25l2.119,12.483
				c0.136,0.808-0.074,1.611-0.576,2.205S53.001,65.165,52.182,65.165z M49.596,36.833c-3.067,0-5.563,2.495-5.563,5.563
				c0,2.38,2.535,4.261,2.561,4.28c1.022,0.739,2.041,2.028,1.856,3.109l-2.122,12.574c-0.039,0.229,0.008,0.437,0.131,0.582
				c0.123,0.145,0.318,0.225,0.55,0.225h5.172c0.232,0,0.429-0.08,0.551-0.226c0.123-0.145,0.17-0.352,0.131-0.581l-2.123-12.574
				c-0.18-1.082,0.836-2.37,1.858-3.11c0.024-0.018,2.56-1.899,2.56-4.279C55.158,39.328,52.663,36.833,49.596,36.833z"/>
		</g>
	</g>
</g>
</svg>
