<?xml version="1.0" encoding="utf-8"?>
<!-- Generator: Adobe Illustrator 16.0.0, SVG Export Plug-In . SVG Version: 6.00 Build 0)  -->
<!DOCTYPE svg PUBLIC "-//W3C//DTD SVG 1.1//EN" "http://www.w3.org/Graphics/SVG/1.1/DTD/svg11.dtd">
<svg version="1.1" xmlns="http://www.w3.org/2000/svg" xmlns:xlink="http://www.w3.org/1999/xlink" x="0px" y="0px" width="100px"
	 height="100px" viewBox="0 0 100 100" enable-background="new 0 0 100 100" xml:space="preserve">
<g id="Layer_1" opacity="0">
	<rect opacity="0" width="100" height="100"/>
</g>
<g id="Layer_2">
	<g>
		<g>
			<path fill="#3379BC" d="M50.004,84.424c-0.39,0-0.779-0.046-1.161-0.137c-0.328-0.078-8.127-1.999-15.776-8.979
				c-6.933-6.326-15.197-18.216-15.197-38.929c0-1.35,0.546-2.643,1.514-3.584c0.935-0.909,2.186-1.416,3.486-1.416
				c0.046,0,0.093,0,0.139,0.002c1.631,0,15.743-0.373,22.579-13.257c0.867-1.635,2.566-2.657,4.417-2.657s3.55,1.022,4.417,2.656
				c6.838,12.886,20.949,13.258,22.536,13.258c0.046-0.001,0.092-0.002,0.139-0.002c1.302,0,2.574,0.507,3.509,1.416
				c0.968,0.941,1.536,2.234,1.536,3.584c0,20.713-8.265,32.603-15.198,38.929c-7.649,6.98-15.449,8.901-15.777,8.979
				C50.783,84.378,50.394,84.424,50.004,84.424z"/>
			<path fill="#3379BC" d="M50.004,20.467c8.205,15.461,25.014,15.914,26.953,15.914c0.12,0,0.184-0.002,0.184-0.002
				c0,36.567-27.137,43.045-27.137,43.045s-27.135-6.478-27.135-43.045c0,0,0.063,0.002,0.184,0.002
				C24.995,36.381,41.802,35.927,50.004,20.467 M77.141,36.379h0.005 M50.004,10.467C50.004,10.467,50.004,10.467,50.004,10.467
				c-3.701,0-7.099,2.044-8.834,5.313c-5.406,10.19-16.589,10.593-18.071,10.6c-0.146-0.006-0.292-0.009-0.436-0.009
				c-2.551,0-4.931,0.987-6.795,2.763c-1.981,1.888-2.999,4.509-2.999,7.245c0,22.536,9.15,35.617,16.827,42.622
				c8.447,7.708,17.035,9.923,17.986,10.149c0.763,0.183,1.542,0.273,2.322,0.273s1.559-0.091,2.322-0.273
				c0.951-0.227,9.539-2.441,17.986-10.149c7.649-6.979,16.763-19.993,16.828-42.381c0.002-0.08,0.003-0.161,0.003-0.241
				c0-0.282-0.012-0.561-0.035-0.837c-0.187-2.429-1.188-4.713-2.966-6.407c-1.864-1.776-4.245-2.764-6.797-2.764
				c-0.144,0-0.288,0.003-0.433,0.009c-1.512-0.008-12.675-0.423-18.076-10.601C57.103,12.511,53.704,10.467,50.004,10.467
				L50.004,10.467z"/>
			<path fill="#FFFFFF" d="M50.004,20.467c8.205,15.461,25.014,15.914,26.953,15.914c0.12,0,0.184-0.002,0.184-0.002
				c0,36.567-27.137,43.045-27.137,43.045s-27.135-6.478-27.135-43.045c0,0,0.063,0.002,0.184,0.002
				C24.995,36.381,41.802,35.927,50.004,20.467 M77.141,36.379h0.005 M50.004,19.467L50.004,19.467c-0.37,0-0.71,0.205-0.883,0.531
				c-7.932,14.951-24.235,15.383-26.067,15.383l-0.157-0.001c-0.009,0-0.017,0-0.026,0c-0.26,0-0.511,0.102-0.698,0.284
				c-0.193,0.188-0.303,0.447-0.303,0.716c0,19.254,7.555,30.19,13.894,35.974c6.895,6.292,13.722,7.976,14.009,8.044
				c0.077,0.019,0.154,0.027,0.232,0.027s0.156-0.009,0.232-0.027c0.287-0.068,7.114-1.752,14.01-8.044
				c6.331-5.776,13.876-16.691,13.895-35.902c0.002-0.024,0.003-0.048,0.003-0.072c0-0.552-0.445-1-0.998-1h-0.005
				c-0.009,0-0.019,0-0.027,0l-0.156,0.001c-1.833,0-18.136-0.432-26.07-15.383C50.714,19.671,50.374,19.467,50.004,19.467
				L50.004,19.467z"/>
			<path fill="none" stroke="#FFFFFF" stroke-width="2" stroke-linecap="round" stroke-linejoin="round" stroke-miterlimit="10" d="
				M50.004,20.467C41.291,36.89,22.869,36.379,22.869,36.379c0,36.567,27.135,43.045,27.135,43.045s27.137-6.478,27.137-43.045
				C77.141,36.379,58.719,36.89,50.004,20.467z"/>
		</g>
		<g>
			<path fill="#3379BC" d="M56.566,42.342c0-3.624-2.938-6.563-6.563-6.563s-6.563,2.938-6.563,6.563
				c0,2.938,1.932,5.424,4.594,6.262l-0.324,1.918l-2.293,13.59h4.586h4.586l-2.293-13.59l-0.323-1.918
				C54.635,47.767,56.566,45.279,56.566,42.342z"/>
			<path fill="none" stroke="#FFFFFF" stroke-width="2" stroke-linecap="round" stroke-linejoin="round" stroke-miterlimit="10" d="
				M56.566,42.342c0-3.624-2.938-6.563-6.563-6.563s-6.563,2.938-6.563,6.563c0,2.938,2.974,5.089,2.974,5.089
				c0.891,0.645,1.547,1.604,1.458,2.131s-0.312,1.847-0.495,2.931l-1.627,9.646c-0.184,1.084,0.567,1.972,1.667,1.972h0.586
				c1.1,0,2.9,0,4,0h0.586c1.1,0,1.851-0.888,1.667-1.972l-1.627-9.646c-0.184-1.084-0.405-2.403-0.495-2.931
				c-0.088-0.527,0.568-1.487,1.459-2.132C53.594,47.431,56.566,45.279,56.566,42.342z"/>
		</g>
	</g>
</g>
</svg>
