<?xml version="1.0" encoding="utf-8"?>
<!-- Generator: Adobe Illustrator 16.0.0, SVG Export Plug-In . SVG Version: 6.00 Build 0)  -->
<!DOCTYPE svg PUBLIC "-//W3C//DTD SVG 1.1//EN" "http://www.w3.org/Graphics/SVG/1.1/DTD/svg11.dtd">
<svg version="1.1" xmlns="http://www.w3.org/2000/svg" xmlns:xlink="http://www.w3.org/1999/xlink" x="0px" y="0px" width="100px"
	 height="100px" viewBox="0 0 100 100" enable-background="new 0 0 100 100" xml:space="preserve">
<g id="Layer_1" opacity="0">
	<rect opacity="0" width="100" height="100"/>
</g>
<g id="Layer_2">
	<g>
		<g>
			<path fill-rule="evenodd" clip-rule="evenodd" fill="#3279BE" d="M57.506,64.104c-1.1,0-2.9,0-4,0H38.033
				c-1.1,0-1.55-0.779-1-1.732l7.735-13.4c0.55-0.953,1.45-2.511,2-3.464l7.737-13.398c0.55-0.953,1.45-0.953,2,0l7.734,13.398
				c0.55,0.953,1.45,2.511,2,3.464l7.736,13.4c0.55,0.953,0.1,1.732-1,1.732H57.506z"/>
			<path fill="none" stroke="#FFFFFF" stroke-width="2" stroke-miterlimit="10" d="M57.506,64.104c-1.1,0-2.9,0-4,0H38.033
				c-1.1,0-1.55-0.779-1-1.732l7.735-13.4c0.55-0.953,1.45-2.511,2-3.464l7.737-13.398c0.55-0.953,1.45-0.953,2,0l7.734,13.398
				c0.55,0.953,1.45,2.511,2,3.464l7.736,13.4c0.55,0.953,0.1,1.732-1,1.732H57.506z"/>
		</g>
		<g>
			<path fill-rule="evenodd" clip-rule="evenodd" fill="#3279BE" d="M89.683,54.764c0,1.1-0.9,2-2,2H23.328c-1.1,0-2-0.9-2-2V21.542
				c0-1.1,0.9-2,2-2h64.354c1.1,0,2,0.9,2,2V54.764z"/>
			<path fill="none" stroke="#FFFFFF" stroke-width="2" stroke-miterlimit="10" d="M89.683,54.764c0,1.1-0.9,2-2,2H23.328
				c-1.1,0-2-0.9-2-2V21.542c0-1.1,0.9-2,2-2h64.354c1.1,0,2,0.9,2,2V54.764z"/>
		</g>
		<g>
			<path fill-rule="evenodd" clip-rule="evenodd" fill="#3279BE" d="M83.086,51.172c0,1.1-0.9,2-2,2H29.924c-1.1,0-2-0.9-2-2V25.135
				c0-1.1,0.9-2,2-2h51.162c1.1,0,2,0.9,2,2V51.172z"/>
			<path fill="none" stroke="#FFFFFF" stroke-width="2" stroke-miterlimit="10" d="M83.086,51.172c0,1.1-0.9,2-2,2H29.924
				c-1.1,0-2-0.9-2-2V25.135c0-1.1,0.9-2,2-2h51.162c1.1,0,2,0.9,2,2V51.172z"/>
		</g>
		<g>
			<path fill-rule="evenodd" clip-rule="evenodd" fill="#3279BE" stroke="#FFFFFF" stroke-width="2" stroke-miterlimit="10" d="
				M55.869,70.552c0,10.396-45.542,10.396-45.542,0c0-10.396,10.194-18.823,22.771-18.823
				C45.676,51.729,55.869,60.155,55.869,70.552z"/>
			
				<circle fill-rule="evenodd" clip-rule="evenodd" fill="#3279BE" stroke="#FFFFFF" stroke-width="2" stroke-miterlimit="10" cx="33.098" cy="44.34" r="13.684"/>
		</g>
	</g>
</g>
</svg>
