<?xml version="1.0" encoding="utf-8"?>
<!-- Generator: Adobe Illustrator 16.0.0, SVG Export Plug-In . SVG Version: 6.00 Build 0)  -->
<!DOCTYPE svg PUBLIC "-//W3C//DTD SVG 1.1//EN" "http://www.w3.org/Graphics/SVG/1.1/DTD/svg11.dtd">
<svg version="1.1" xmlns="http://www.w3.org/2000/svg" xmlns:xlink="http://www.w3.org/1999/xlink" x="0px" y="0px" width="100px"
	 height="100px" viewBox="0 0 100 100" enable-background="new 0 0 100 100" xml:space="preserve">
<g id="Layer_1" opacity="0">
	<rect opacity="0" width="100" height="100"/>
</g>
<g id="Layer_2">
	<g>
		<g>
			<g>
				<path fill-rule="evenodd" clip-rule="evenodd" fill="#FFFFFF" d="M57.098,64.157c-1.1,0-2.9,0-4,0H37.625
					c-1.1,0-1.55-0.779-1-1.732l7.736-13.4c0.55-0.953,1.45-2.511,2-3.464l7.737-13.397c0.55-0.953,1.45-0.953,2,0l7.734,13.397
					c0.551,0.953,1.451,2.511,2,3.464l7.736,13.4c0.551,0.953,0.101,1.732-1,1.732H57.098z"/>
			</g>
			<g>
				<path fill="#3279BE" d="M72.568,65.157H37.625c-0.891,0-1.614-0.367-1.984-1.009c-0.371-0.641-0.327-1.451,0.118-2.224
					l17.473-30.262c0.445-0.772,1.126-1.215,1.866-1.215s1.421,0.443,1.866,1.215l17.471,30.262
					c0.445,0.771,0.489,1.582,0.119,2.224C74.184,64.789,73.46,65.157,72.568,65.157z M37.4,63.132
					c0.047,0.014,0.121,0.025,0.225,0.025h34.944c0.104,0,0.178-0.013,0.225-0.025c-0.013-0.047-0.039-0.117-0.091-0.207
					L55.231,32.663c-0.052-0.09-0.099-0.147-0.134-0.182c-0.035,0.035-0.082,0.092-0.134,0.182L37.491,62.925
					C37.439,63.015,37.413,63.085,37.4,63.132z"/>
			</g>
		</g>
		<g>
			<g>
				<path fill-rule="evenodd" clip-rule="evenodd" fill="#FFFFFF" d="M89.274,54.817c0,1.1-0.899,2-2,2H22.92c-1.1,0-2-0.9-2-2
					V21.595c0-1.1,0.9-2,2-2h64.354c1.101,0,2,0.9,2,2V54.817z"/>
			</g>
			<g>
				<path fill="#3279BE" d="M87.274,57.817H22.92c-1.654,0-3-1.346-3-3V21.595c0-1.654,1.346-3,3-3h64.354c1.654,0,3,1.346,3,3
					v33.222C90.274,56.472,88.929,57.817,87.274,57.817z M22.92,20.595c-0.551,0-1,0.449-1,1v33.222c0,0.552,0.449,1,1,1h64.354
					c0.552,0,1-0.448,1-1V21.595c0-0.551-0.448-1-1-1H22.92z"/>
			</g>
		</g>
		<g>
			<g>
				<path fill-rule="evenodd" clip-rule="evenodd" fill="#FFFFFF" d="M82.678,51.226c0,1.1-0.899,2-2,2H29.515c-1.1,0-2-0.9-2-2
					V25.188c0-1.1,0.9-2,2-2h51.163c1.101,0,2,0.9,2,2V51.226z"/>
			</g>
			<g>
				<path fill="#3279BE" d="M80.678,54.226H29.515c-1.654,0-3-1.346-3-3V25.188c0-1.654,1.346-3,3-3h51.163c1.654,0,3,1.346,3,3
					v26.038C83.678,52.88,82.332,54.226,80.678,54.226z M29.515,24.188c-0.551,0-1,0.449-1,1v26.038c0,0.552,0.449,1,1,1h51.163
					c0.552,0,1-0.448,1-1V25.188c0-0.551-0.448-1-1-1H29.515z"/>
			</g>
		</g>
		<g>
			<g>
				<path fill-rule="evenodd" clip-rule="evenodd" fill="#FFFFFF" d="M55.461,70.604c0,10.396-45.542,10.396-45.542,0
					s10.195-18.822,22.771-18.822C45.267,51.782,55.461,60.208,55.461,70.604z"/>
				<path fill="#3279BE" d="M32.69,79.402c-11.832,0-23.771-2.721-23.771-8.798c0-10.93,10.664-19.822,23.771-19.822
					c13.107,0,23.771,8.893,23.771,19.822C56.461,76.682,44.522,79.402,32.69,79.402z M32.689,52.782
					c-12.004,0-21.771,7.995-21.771,17.822c0,3.875,9.359,6.798,21.771,6.798s21.771-2.923,21.771-6.798
					C54.461,60.777,44.694,52.782,32.689,52.782z"/>
			</g>
			<g>
				<circle fill-rule="evenodd" clip-rule="evenodd" fill="#FFFFFF" cx="32.689" cy="44.393" r="13.684"/>
				<path fill="#3279BE" d="M32.689,59.077c-8.097,0-14.684-6.587-14.684-14.684s6.587-14.685,14.684-14.685
					s14.684,6.587,14.684,14.685S40.786,59.077,32.689,59.077z M32.689,31.708c-6.994,0-12.684,5.69-12.684,12.685
					c0,6.994,5.69,12.684,12.684,12.684c6.994,0,12.684-5.69,12.684-12.684C45.373,37.399,39.683,31.708,32.689,31.708z"/>
			</g>
		</g>
	</g>
</g>
</svg>
