<?xml version="1.0" encoding="utf-8"?>
<!-- Generator: Adobe Illustrator 16.0.0, SVG Export Plug-In . SVG Version: 6.00 Build 0)  -->
<!DOCTYPE svg PUBLIC "-//W3C//DTD SVG 1.1//EN" "http://www.w3.org/Graphics/SVG/1.1/DTD/svg11.dtd">
<svg version="1.1" id="Layer_1" xmlns="http://www.w3.org/2000/svg" xmlns:xlink="http://www.w3.org/1999/xlink" x="0px" y="0px"
	 width="500px" height="500px" viewBox="0 0 500 500" enable-background="new 0 0 500 500" xml:space="preserve">
<g>
	<path fill="#FFFFFF" d="M340.015,159.985l0.042-0.042c-0.692-0.692-1.41-1.351-2.134-2.001
		c-22.877-21.858-53.859-35.302-87.923-35.302c-70.226,0-127.359,57.133-127.359,127.359c0,35.113,14.283,66.953,37.345,90.015
		l-0.042,0.042c0.785,0.785,1.595,1.539,2.422,2.272c22.848,21.698,53.713,35.03,87.635,35.03
		c70.227,0,127.359-57.133,127.359-127.359C377.359,214.887,363.076,183.047,340.015,159.985z M312.176,144.656
		c-9.882-2.422-20.845-2.793-32.38-1.186c-4.016-6.263-8.367-11.184-12.956-14.665C283.199,131.067,298.534,136.574,312.176,144.656
		z M274.357,144.367c-18.258,3.476-37.716,11.787-56.48,24.771c-1.006-1.013-2.16-1.878-3.428-2.56
		c9.333-24.782,22.221-38.938,35.551-38.938C258.482,127.641,266.936,133.564,274.357,144.367z M217.083,179.324
		c0,5.219-4.246,9.466-9.464,9.466c-5.219,0-9.466-4.247-9.466-9.466s4.247-9.466,9.466-9.466
		C212.837,169.858,217.083,174.105,217.083,179.324z M233.293,128.786c-9.059,6.852-17.221,19.25-23.599,36.239
		c-0.68-0.098-1.37-0.167-2.076-0.167c-7.977,0-14.466,6.489-14.466,14.466s6.489,14.466,14.466,14.466
		c7.976,0,14.464-6.489,14.464-14.466c0-2.172-0.495-4.227-1.356-6.078c18.867-13.057,38.398-21.26,56.494-24.379
		c2.09,3.534,4.081,7.469,5.945,11.792c-7.066,3.434-11.961,10.664-11.961,19.034c0,11.673,9.497,21.169,21.17,21.169
		c0.771,0,1.531-0.047,2.281-0.128c1.154,6.448,2.07,13.067,2.75,19.831c-14.861-1.412-30.891-2.155-47.406-2.155
		c-51.214,0-105.094,7.619-121.979,21.927C132.528,182.925,176.835,136.529,233.293,128.786z M312.018,187.544
		c32.205,11.282,53.763,30.514,59.06,52.064c-1.449-1.12-3.154-2.208-5.099-3.265c0.243-1.068,0.383-2.174,0.383-3.314
		c0-8.243-6.706-14.95-14.948-14.95c-6.008,0-11.186,3.571-13.559,8.695c-10.481-2.39-22.43-4.303-35.371-5.693
		c-0.71-7.337-1.695-14.511-2.952-21.491C305.216,197.539,309.774,193.135,312.018,187.544z M344.461,246.251
		c-8.087,20.878-21.635,41.193-39.325,58.884c-2.676,2.676-5.404,5.239-8.171,7.702c4.495-18.931,6.902-40.438,6.902-62.838
		c0-8.094-0.327-16.051-0.941-23.849c12.285,1.35,23.622,3.184,33.611,5.452c-0.045,0.47-0.072,0.944-0.072,1.426
		C336.465,238.762,339.713,243.745,344.461,246.251z M341.465,233.029c0-5.486,4.463-9.95,9.948-9.95s9.948,4.463,9.948,9.95
		c0,5.486-4.463,9.949-9.948,9.949S341.465,238.515,341.465,233.029z M292.375,195.862c-8.916,0-16.17-7.253-16.17-16.169
		c0-8.917,7.254-16.172,16.17-16.172s16.169,7.255,16.169,16.172C308.544,188.609,301.291,195.862,292.375,195.862z M250,223.411
		c16.713,0,32.912,0.765,47.87,2.219c0.652,7.958,0.997,16.09,0.997,24.37c0,24.737-2.96,48.343-8.47,68.42
		c-44.218,35.87-96.854,45.006-124.818,20.071c-21.19-20.224-35.149-47.959-37.563-78.885c6.72,5.677,18.626,9.746,29.182,12.437
		c20.601,5.251,48.401,8.554,78.482,9.351c1.11,6.912,7.099,12.216,14.319,12.216c8.006,0,14.52-6.514,14.52-14.52
		s-6.514-14.52-14.52-14.52c-7.086,0-12.994,5.106-14.26,11.83c-64.764-1.726-108.1-14.944-108.1-26.4
		C127.641,237.424,177.892,223.411,250,223.411z M240.48,279.09c0-5.249,4.271-9.52,9.52-9.52s9.52,4.271,9.52,9.52
		s-4.271,9.52-9.52,9.52S240.48,284.339,240.48,279.09z M188.005,355.451c5.758,1.399,11.906,2.124,18.393,2.124
		c6.962,0,14.306-0.815,21.938-2.465c20.177-4.361,40.69-14.204,59.55-28.371c-1.204,3.678-2.489,7.228-3.876,10.599
		c-9.156,22.257-21.553,35.021-34.01,35.021C227.39,372.359,206.197,366.188,188.005,355.451z M266.84,371.195
		c8.214-6.23,15.667-17.062,21.794-31.955c2.29-5.566,4.329-11.573,6.127-17.915c4.776-3.943,9.424-8.168,13.91-12.654
		c18.252-18.252,32.227-39.259,40.551-60.872c0.717,0.106,1.445,0.179,2.191,0.179c5.316,0,9.981-2.799,12.632-6.992
		c5.38,3.007,8.314,6.166,8.314,9.014C372.359,311.756,326.368,362.964,266.84,371.195z M313.305,182.702
		c0.142-0.986,0.239-1.985,0.239-3.009c0-11.674-9.496-21.172-21.169-21.172c-1.538,0-3.034,0.174-4.48,0.487
		c-1.683-3.934-3.458-7.577-5.319-10.906c20.636-2.446,39.048,1.948,51.948,13.505c17.038,16.299,29.385,37.461,34.793,61.232
		C359.076,206.113,339.509,191.815,313.305,182.702z"/>
	<rect x="247.5" y="58.876" fill="#FFFFFF" width="5" height="43.502"/>
	
		<rect x="163.433" y="91.02" transform="matrix(0.3827 0.9239 -0.9239 0.3827 200.7194 -113.3561)" fill="#FFFFFF" width="43.502" height="5"/>
	
		<rect x="108.485" y="127.736" transform="matrix(0.7071 0.7071 -0.7071 0.7071 130.2371 -53.9455)" fill="#FFFFFF" width="43.503" height="4.999"/>
	
		<rect x="312.316" y="71.769" transform="matrix(0.9239 0.3826 -0.3826 0.9239 59.7441 -113.3454)" fill="#FFFFFF" width="5" height="43.503"/>
	
		<rect x="367.264" y="108.484" transform="matrix(0.7071 0.7071 -0.7071 0.7071 200.3921 -223.3175)" fill="#FFFFFF" width="4.999" height="43.503"/>
</g>
</svg>
