<?xml version="1.0" encoding="utf-8"?>
<!-- Generator: Adobe Illustrator 16.0.0, SVG Export Plug-In . SVG Version: 6.00 Build 0)  -->
<!DOCTYPE svg PUBLIC "-//W3C//DTD SVG 1.1//EN" "http://www.w3.org/Graphics/SVG/1.1/DTD/svg11.dtd">
<svg version="1.1" id="Layer_1" xmlns="http://www.w3.org/2000/svg" xmlns:xlink="http://www.w3.org/1999/xlink" x="0px" y="0px"
	 width="500px" height="500px" viewBox="0 0 500 500" enable-background="new 0 0 500 500" xml:space="preserve">
<g>
	<g>
		<circle fill="none" stroke="#00AEEF" stroke-width="3" stroke-miterlimit="10" cx="250" cy="250" r="124.859"/>
		<path fill="none" stroke="#00AEEF" stroke-width="3" stroke-miterlimit="10" d="M306.903,306.903
			c-48.761,48.761-113.765,62.813-145.192,31.386"/>
		<path fill="none" stroke="#00AEEF" stroke-width="3" stroke-miterlimit="10" d="M351.413,233.028
			c-6.534,24.784-21.736,51.102-44.51,73.875"/>
		<path fill="none" stroke="#00AEEF" stroke-width="3" stroke-miterlimit="10" d="M207.951,179.692
			c46.403-37.685,102.011-46.308,130.338-17.981"/>
		<path fill="none" stroke="#00AEEF" stroke-width="3" stroke-miterlimit="10" d="M250,279.09
			c-68.958,0-124.859-13.024-124.859-29.09"/>
		<path fill="none" stroke="#00AEEF" stroke-width="3" stroke-miterlimit="10" d="M250,220.911
			c68.958,0,124.859,13.024,124.859,29.089"/>
		<path fill="none" stroke="#00AEEF" stroke-width="3" stroke-miterlimit="10" d="M125.141,250
			c0-16.065,55.901-29.089,124.859-29.089"/>
		<path fill="none" stroke="#00AEEF" stroke-width="3" stroke-miterlimit="10" d="M250,324.999"/>
		<path fill="none" stroke="#00AEEF" stroke-width="3" stroke-miterlimit="10" d="M292.376,179.431
			c48.1,10.423,82.483,38.084,82.483,70.569"/>
		<path fill="none" stroke="#00AEEF" stroke-width="3" stroke-miterlimit="10" d="M301.367,250
			c0,68.958-22.998,124.859-51.367,124.859"/>
		<path fill="none" stroke="#00AEEF" stroke-width="3" stroke-miterlimit="10" d="M250,125.141
			c28.369,0,51.367,55.901,51.367,124.859"/>
		<path fill="none" stroke="#00AEEF" stroke-width="3" stroke-miterlimit="10" d="M207.648,179.324
			c9.261-32.726,24.775-54.184,42.352-54.184"/>
		<circle fill="#FFFFFF" stroke="#00AEEF" stroke-width="3" stroke-miterlimit="10" cx="250" cy="279.09" r="12.02"/>
		<circle fill="#FFFFFF" stroke="#00AEEF" stroke-width="3" stroke-miterlimit="10" cx="207.618" cy="179.324" r="11.965"/>
		<circle fill="#FFFFFF" stroke="#00AEEF" stroke-width="3" stroke-miterlimit="10" cx="292.375" cy="179.693" r="18.669"/>
		<circle fill="#FFFFFF" stroke="#00AEEF" stroke-width="3" stroke-miterlimit="10" cx="351.413" cy="233.029" r="12.448"/>
	</g>
	<line fill="none" stroke="#00AEEF" stroke-width="3" stroke-miterlimit="10" x1="250" y1="58.876" x2="250" y2="102.379"/>
	<line fill="none" stroke="#00AEEF" stroke-width="3" stroke-miterlimit="10" x1="176.86" y1="73.425" x2="193.508" y2="113.616"/>
	
		<line fill="none" stroke="#00AEEF" stroke-width="3" stroke-miterlimit="10" x1="114.855" y1="114.855" x2="145.616" y2="145.616"/>
	<line fill="none" stroke="#00AEEF" stroke-width="3" stroke-miterlimit="10" x1="323.14" y1="73.425" x2="306.492" y2="113.616"/>
	
		<line fill="none" stroke="#00AEEF" stroke-width="3" stroke-miterlimit="10" x1="385.145" y1="114.855" x2="354.384" y2="145.617"/>
</g>
</svg>
