<?xml version="1.0" encoding="utf-8"?>
<!-- Generator: Adobe Illustrator 16.0.0, SVG Export Plug-In . SVG Version: 6.00 Build 0)  -->
<!DOCTYPE svg PUBLIC "-//W3C//DTD SVG 1.1//EN" "http://www.w3.org/Graphics/SVG/1.1/DTD/svg11.dtd">
<svg version="1.1" id="Layer_1" xmlns="http://www.w3.org/2000/svg" xmlns:xlink="http://www.w3.org/1999/xlink" x="0px" y="0px"
	 width="158.982px" height="41.995px" viewBox="0 0 158.982 41.995" enable-background="new 0 0 158.982 41.995"
	 xml:space="preserve">
<g>
<!-- 	<path fill="#151628" d="M130.814,17.875c0,0,0,16.939,0,17.5c0,1.404-1.139,2.542-2.543,2.542c-0.311,0-5.109,0-5.229,0
		c-1.275,0-2.32-0.942-2.504-2.167h-0.037v-3.203c-0.006-0.003-0.012-0.007-0.018-0.01V17.875H110.48v18.959h0.016
		c0.139,2.588,2.078,4.682,4.588,5.078v0.083h22.205c2.156-0.646,3.389-2.823,3.514-5.161h0.014V17.875H130.814z"
		
	/> -->
	<path id="letter-n" fill="#fff" d="M130.814,17.875c0,0,0,16.939,0,17.5c0,1.404-1.139,2.542-2.543,2.542c-0.311,0-5.109,0-5.229,0
		c-1.275,0-2.32-0.942-2.504-2.167h-0.037v-3.203c-0.006-0.003-0.012-0.007-0.018-0.01V17.875H110.48v18.959h0.016
		c0.139,2.588,2.078,4.682,4.588,5.078v0.083h22.205c2.156-0.646,3.389-2.823,3.514-5.161h0.014V17.875H130.814z"
		
	/>
	<path fill="#151628" d="M106.752,21.854c0-2.044-2.406-3.726-5.5-3.952v-0.027H71.584v0.027c-3.096,0.227-5.5,1.908-5.5,3.952
		c0,0.032,0.013,0.054,0.017,0.083h-0.038v20.058h10c0,0,0.021-17.805,0.021-17.953c0-1.22,0.988-2.208,2.208-2.208
		c0.148,0,2.329,0,2.501,0c1.219,0,2.209,0.988,2.209,2.208c0,0.173,0,17.953,0,17.953h7c0,0,0-17.781,0-17.953
		c0-1.22,0.988-2.208,2.209-2.208c0.172,0,2.412,0,2.584,0c1.219,0,2.207,0.988,2.207,2.208c0,0.172,0,17.953,0,17.953h9.75
		C106.752,41.995,106.752,21.887,106.752,21.854z"/>
	<path fill="#151628" d="M57.875,17.875c-3.563,0-23.875,0-23.875,0v2.063c0,0,0.063,2,2.063,2s15,0,15,0S52,22.375,52,23.063
		s0,0.375,0,0.938c0,0.346-2.109,1.05-8.225,2.282c-8.525,1.718-10.069,5.063-9.838,8.56c0.396,5.991,3.692,7.153,4.313,7.153
		c0.619,0,19.75,0,19.75,0s4.938-1.495,4.938-5.058s0-14.184,0-15S61.438,17.875,57.875,17.875z M52,36c0,0-0.625,1.938-1.938,1.938
		s-4.057,0-5.5,0S42.447,37.25,41.875,36c-0.458-1-0.393-2.461,0-3.063c0.392-0.602,0.25-2.379,10.125-3.002V36z"/>
	<path fill="#151628" d="M31.013,22.125c-0.346-2.396-2.637-4.25-5.419-4.25c-0.142,0-0.344,0-0.344,0H5v0.029
		c-2.51,0.242-4.505,1.997-4.825,4.221L0,41.995h10V24.063c0,0-0.001-0.021-0.001-0.027l0.092-0.093
		c-0.016-0.093-0.028-0.188-0.028-0.286c0-0.949,0.77-1.719,1.719-1.719c0.098,0,0.192,0.013,0.285,0.029l0.092-0.092
		c1.474,0,4.618,0,6.765,0l0.106,0.106c0.122-0.026,0.247-0.044,0.377-0.044c0.949,0,1.719,0.77,1.719,1.719
		c0,0.151-0.026,0.295-0.063,0.436v17.903h10v-19.87H31.013z M28.063,22.125v-0.086c0.036,0.028,0.072,0.059,0.109,0.086H28.063z"/>
	<circle fill="#151628" cx="149.899" cy="9.082" r="9.083"/>
</g>
</svg>
